<svg width="16" height="20" viewBox="0 0 16 20" fill="none" xmlns="http://www.w3.org/2000/svg">
<path d="M2.2121 2.68555C2.2121 5.32306 3.85013 6.90557 7.12621 7.73847L10.5966 8.54361C13.7061 9.26546 15.594 11.0423 15.594 13.9297C15.6218 15.179 15.2053 16.4006 14.4557 17.4001C14.4557 14.5127 12.9565 12.958 9.37504 12.014L5.96015 11.2367C3.21158 10.6259 1.10156 9.1544 1.10156 6.01715C1.10156 4.82332 1.49025 3.6295 2.2121 2.68555Z" fill="#464646"/>
<path d="M12.3192 13.2073C13.7907 14.1513 14.457 15.4839 14.457 17.3996C13.2077 18.9821 11.0699 19.8428 8.54341 19.8428C4.29562 19.8428 1.26942 17.7328 0.630859 14.0958H4.71207C5.23957 15.7616 6.62774 16.5389 8.51565 16.5389C10.7645 16.5667 12.2915 15.3451 12.3192 13.2073ZM2.21337 2.65727C3.40719 1.10252 5.46168 0.158569 7.96038 0.158569C12.3192 0.158569 14.8179 2.46293 15.4565 5.68347H11.5141C11.0699 4.40636 9.98711 3.40688 8.01591 3.40688C5.87813 3.43464 4.43444 4.65623 4.35115 6.59967C2.92051 5.81068 2.15784 4.26754 2.21337 2.65727Z" fill="#3E3E3E"/>
</svg>
