<svg width="18" height="21" viewBox="0 0 18 21" fill="none" xmlns="http://www.w3.org/2000/svg">
<path d="M1.22939 0.158569C0.721092 0.158569 0.314453 0.564848 0.314453 1.05238V17.0191C0.314453 17.5067 0.721092 17.8114 1.20906 17.8114H3.56757V21.0007L6.49537 17.8317H17.19C17.6779 17.8317 17.9829 17.527 17.9829 17.0191V1.0727C17.9829 0.585162 17.6983 0.158569 17.19 0.158569H1.22939Z" fill="#464646"/>
<path d="M11.7603 3.34863C12.1667 3.34863 12.5122 3.42984 12.8373 3.61254C13.1421 3.77495 13.4266 3.99826 13.6501 4.26217C14.1053 4.81678 14.35 5.51414 14.341 6.23134C14.341 6.75916 14.1987 7.26668 13.9346 7.7539C13.6607 8.24396 13.2319 8.62948 12.7154 8.85014C13.3656 9.03284 13.8736 9.35766 14.2597 9.82457C14.6254 10.3118 14.8083 10.9411 14.8083 11.7328C14.8083 12.2404 14.7157 12.6925 14.5238 13.0321C14.3206 13.3975 14.0158 13.702 13.6501 13.9253C13.264 14.1689 12.8373 14.3922 12.3496 14.4937C11.8619 14.6156 11.3336 14.7171 10.785 14.7171H3.5918V3.34863H11.7603ZM10.5933 9.70234H6.52089V11.6227H10.4954C10.7304 11.6227 10.9458 11.5267 11.122 11.3731C11.2786 11.2194 11.3765 10.989 11.3765 10.7009C11.3822 10.4538 11.3067 10.2114 11.1611 10.0096C11.0045 9.81756 10.8283 9.70234 10.5933 9.70234ZM10.2605 5.86161H6.52089V7.58994H10.1822C10.378 7.58994 10.5738 7.49392 10.7304 7.3787C10.9066 7.26347 10.9849 7.01383 10.9849 6.68736C10.9849 6.39931 10.9066 6.18807 10.7696 6.05364C10.6325 5.93842 10.4563 5.86161 10.2605 5.86161Z" fill="#181818"/>
</svg>
