<svg width="133" height="80" viewBox="0 0 133 80" fill="none" xmlns="http://www.w3.org/2000/svg">
<g clip-path="url(#clip0_65_770)">
<path d="M31.3389 20.8573H56.3891V22.8444H33.6351V37.8003H55.0322V39.7875H33.6351V56.2075H56.65V58.1947H31.3389V20.8573ZM58.6332 20.8573H61.2948L73.0893 37.2774L85.1447 20.8573L101.542 0L74.6027 39.0031L88.4847 58.1947H85.7188L73.0893 40.7287L60.4076 58.1947H57.6938L71.6802 39.0031L58.6332 20.8573ZM89.4763 22.8444V20.8573H118.023V22.8444H104.872V58.1947H102.575V22.8444H89.4763ZM0 20.8573H2.87034L42.4506 79.9699L26.094 58.1947L2.40065 23.6811L2.29627 58.1947H0V20.8573ZM117.792 55.6079C117.323 55.6079 116.971 55.2451 116.971 54.7762C116.971 54.3074 117.323 53.9446 117.792 53.9446C118.266 53.9446 118.613 54.3074 118.613 54.7762C118.613 55.2451 118.266 55.6079 117.792 55.6079ZM120.048 53.4199H121.277C121.294 54.0841 121.779 54.5307 122.494 54.5307C123.293 54.5307 123.745 54.0506 123.745 53.152V47.459H124.996V53.1576C124.996 54.7762 124.058 55.7083 122.506 55.7083C121.048 55.7083 120.048 54.8041 120.048 53.4199ZM126.633 53.3474H127.873C127.979 54.112 128.727 54.5976 129.805 54.5976C130.811 54.5976 131.548 54.0786 131.548 53.3641C131.548 52.7502 131.079 52.3818 130.012 52.1306L128.973 51.8795C127.515 51.539 126.851 50.8357 126.851 49.6525C126.851 48.218 128.024 47.2636 129.783 47.2636C131.419 47.2636 132.614 48.218 132.687 49.5743H131.47C131.352 48.832 130.704 48.3687 129.766 48.3687C128.778 48.3687 128.119 48.8432 128.119 49.5688C128.119 50.1436 128.543 50.4729 129.593 50.7185L130.481 50.9362C132.134 51.3213 132.816 51.9911 132.816 53.2023C132.816 54.7427 131.62 55.7083 129.71 55.7083C127.923 55.7083 126.722 54.7874 126.633 53.3474Z" fill="black"/>
</g>
<defs>
<clipPath id="clip0_65_770">
<rect width="132.816" height="80" fill="white"/>
</clipPath>
</defs>
</svg>
