<svg width="189" height="51" viewBox="0 0 189 51" fill="none" xmlns="http://www.w3.org/2000/svg">
<g clip-path="url(#clip0_65_801)">
<path fill-rule="evenodd" clip-rule="evenodd" d="M95.3245 6.82819e-05C95.1937 0.00167181 95.0615 0.0330136 94.9448 0.101757C94.7118 0.239137 94.5651 0.491441 94.5651 0.762751V20.2111C94.5651 20.4022 94.4765 20.573 94.312 20.6688C94.147 20.7649 93.9458 20.7649 93.7804 20.6688L90.6165 18.8384C90.1451 18.5654 89.5693 18.5655 89.0978 18.8384L76.4671 26.1601C75.9949 26.4337 75.7078 26.9601 75.7078 27.5075V42.151C75.7078 42.698 75.9953 43.1989 76.4671 43.473L89.0978 50.7947C89.57 51.0684 90.1442 51.0684 90.6165 50.7947L103.247 43.473C103.719 43.1989 104.006 42.698 104.006 42.151V5.64393C104.006 5.08859 103.705 4.56742 103.222 4.29652L95.7041 0.0763395C95.5861 0.0102005 95.4552 -0.00139734 95.3245 6.82819e-05ZM14.0734 18.279C13.8325 18.2887 13.6062 18.3311 13.39 18.457L0.759356 25.7787C0.288718 26.052 0 26.5497 0 27.1007L0.0252576 46.7525C0.0252576 47.0258 0.165659 47.2797 0.404938 47.4136C0.639465 47.5545 0.930558 47.5545 1.16429 47.4136L8.6566 43.0916C9.1312 42.8084 9.44127 42.3158 9.44127 41.7696V32.592C9.44127 32.0446 9.72799 31.5422 10.2006 31.2701L13.3899 29.4142C13.628 29.276 13.8835 29.2109 14.1493 29.2109C14.4096 29.2109 14.6772 29.2759 14.9086 29.4142L18.0979 31.2701C18.5706 31.5422 18.8573 32.0446 18.8573 32.592V41.7696C18.8573 42.3158 19.1704 42.8116 19.642 43.0916L27.1343 47.4136C27.3696 47.5545 27.6602 47.5545 27.8936 47.4136C28.1262 47.2797 28.2733 47.0258 28.2733 46.7525L28.2985 27.1007C28.2985 26.5497 28.013 26.052 27.5392 25.7787L14.9086 18.457C14.695 18.3311 14.4677 18.2889 14.2252 18.279H14.0734ZM127.572 18.457C127.308 18.4567 127.049 18.5237 126.812 18.6604L114.182 25.9821C113.71 26.2558 113.422 26.7567 113.422 27.3041V41.9476C113.422 42.4982 113.731 42.9975 114.207 43.2696L126.736 50.4388C127.199 50.7042 127.764 50.724 128.23 50.464L135.823 46.2184C136.064 46.0842 136.227 45.8334 136.228 45.5574C136.23 45.2813 136.087 45.0338 135.849 44.8964L123.142 37.5746C122.904 37.4384 122.737 37.1623 122.737 36.8882V32.3121C122.737 32.0385 122.906 31.7878 123.142 31.6512L127.091 29.3631C127.326 29.2265 127.614 29.2265 127.85 29.3631L131.799 31.6512C132.035 31.7878 132.179 32.0385 132.179 32.3121V35.9222C132.179 36.1962 132.322 36.4465 132.558 36.5831C132.795 36.7201 133.082 36.7207 133.318 36.5831L140.886 32.1596C141.356 31.8856 141.645 31.3834 141.645 30.8377V27.3039C141.645 26.7581 141.357 26.2559 140.886 25.9819L128.331 18.6601C128.095 18.5225 127.836 18.4573 127.572 18.457ZM89.8065 29.3888C89.8723 29.3888 89.9498 29.405 90.009 29.4392L94.3373 31.9561C94.4548 32.0245 94.5398 32.1503 94.5398 32.2866V37.3203C94.5398 37.4569 94.4556 37.5829 94.3373 37.6508L90.009 40.1676C89.8911 40.2352 89.7471 40.2352 89.6293 40.1676L85.301 37.6508C85.1831 37.5825 85.0985 37.4569 85.0985 37.3203V32.2866C85.0985 32.1503 85.1835 32.0248 85.301 31.9561L89.6293 29.4396C89.6884 29.4055 89.7406 29.3892 89.8065 29.3892V29.3888Z" fill="#404137"/>
<path fill-rule="evenodd" clip-rule="evenodd" d="M165.413 18.1011C164.975 18.1011 164.549 18.192 164.173 18.4062L152.251 25.3211C151.479 25.7673 151.011 26.6106 151.011 27.5075V41.3121C151.011 42.2085 151.479 43.0509 152.251 43.4984L155.364 45.3034C156.877 46.0522 157.435 46.0407 158.123 46.0407C160.363 46.0407 161.641 44.6758 161.641 42.3036V28.6769C161.641 28.4843 161.475 28.3464 161.287 28.3464H159.794C159.602 28.3464 159.439 28.4843 159.439 28.6769V42.3036C159.439 43.355 158.349 44.4125 156.579 43.5239L153.339 41.6172C153.225 41.5545 153.137 41.444 153.137 41.3121V27.5075C153.137 27.3764 153.224 27.2434 153.339 27.177L165.236 20.2874C165.347 20.2232 165.48 20.2232 165.59 20.2874L177.487 27.177C177.6 27.2454 177.689 27.3725 177.689 27.5075V41.3121C177.689 41.444 177.623 41.579 177.512 41.6426L165.59 48.5322C165.488 48.5932 165.347 48.5932 165.236 48.5322L162.173 46.7017C162.082 46.648 161.957 46.6521 161.869 46.7017C161.024 47.1831 160.865 47.2391 160.072 47.5153C159.877 47.5836 159.58 47.6899 160.173 48.0237L164.173 50.388C164.553 50.6093 164.978 50.7185 165.413 50.7185C165.854 50.7185 166.273 50.6093 166.653 50.388L178.575 43.4984C179.347 43.0477 179.815 42.2085 179.815 41.3121V27.5075C179.815 26.6106 179.347 25.7692 178.575 25.3211L166.653 18.4062C166.28 18.192 165.851 18.1011 165.413 18.1011ZM52.0158 18.3807C51.7526 18.3807 51.4921 18.4474 51.2564 18.5841L38.6258 25.8804C38.1536 26.1538 37.8665 26.6809 37.8665 27.2278V41.8713C37.8665 42.4189 38.1539 42.9194 38.6258 43.1933L51.2564 50.5151C51.7287 50.789 52.3029 50.789 52.7752 50.5151L65.4058 43.1933C65.8772 42.9194 66.1651 42.4189 66.1651 41.8713V27.2278C66.1651 26.6801 65.878 26.1538 65.4058 25.8804L52.7752 18.5841C52.5394 18.4474 52.279 18.3807 52.0158 18.3807ZM168.602 27.9653C165.207 27.9653 163.186 29.4164 163.186 31.8295C163.186 34.4474 165.192 35.1666 168.45 35.4904C172.348 35.8737 172.652 36.4485 172.652 37.2192C172.652 38.5559 171.591 39.1258 169.083 39.1258C165.932 39.1258 165.24 38.3358 165.008 36.7616C164.981 36.5928 164.851 36.4565 164.679 36.4565H163.135C162.945 36.4565 162.781 36.6209 162.781 36.8124C162.781 38.8275 163.872 41.2106 169.083 41.2106C172.856 41.2106 175.031 39.7233 175.031 37.1175C175.031 34.5342 173.274 33.8408 169.615 33.3549C165.917 32.8635 165.565 32.6231 165.565 31.7533C165.565 31.0354 165.864 30.0753 168.602 30.0753C171.048 30.0753 171.953 30.6052 172.323 32.2618C172.356 32.4175 172.492 32.5414 172.652 32.5414H174.196C174.291 32.5414 174.383 32.4828 174.449 32.4142C174.514 32.341 174.56 32.2585 174.551 32.1601C174.312 29.3071 172.417 27.9653 168.602 27.9653ZM127.546 31.4482C127.496 31.4482 127.44 31.4482 127.395 31.4734L124.965 32.8971C124.873 32.9492 124.813 33.0461 124.813 33.1514V35.9479C124.813 36.0531 124.873 36.1496 124.965 36.2021L127.395 37.6003C127.486 37.6532 127.583 37.6532 127.673 37.6003L130.103 36.2021C130.193 36.15 130.255 36.0531 130.255 35.9479V33.1514C130.255 33.0461 130.193 32.9495 130.103 32.8971L127.673 31.4734C127.628 31.4466 127.597 31.4482 127.546 31.4482Z" fill="#83CD29"/>
</g>
<defs>
<clipPath id="clip0_65_801">
<rect width="188.7" height="51" fill="white"/>
</clipPath>
</defs>
</svg>
