<svg width="180" height="45" viewBox="0 0 180 45" fill="none" xmlns="http://www.w3.org/2000/svg">
<g clip-path="url(#clip0_65_795)">
<path d="M37.8681 45H62.9606C63.7577 45.0002 64.5407 44.7922 65.2309 44.3972C65.9211 44.0021 66.4942 43.434 66.8925 42.7498C67.2907 42.0658 67.5004 41.2897 67.5 40.4998C67.4996 39.7099 67.2894 38.934 66.8904 38.2502L50.0391 9.32164C49.6408 8.63764 49.0678 8.06962 48.3776 7.67469C47.6876 7.27976 46.9048 7.07184 46.1079 7.07184C45.3111 7.07184 44.5284 7.27976 43.8382 7.67469C43.1483 8.06962 42.5752 8.63764 42.177 9.32164L37.8681 16.7234L29.4435 2.24948C29.0449 1.56551 28.4717 0.997581 27.7815 0.602724C27.0913 0.20787 26.3083 0 25.5112 0C24.7144 0 23.9314 0.20787 23.2412 0.602724C22.551 0.997581 21.9776 1.56551 21.579 2.24948L0.609488 38.2502C0.210557 38.934 0.000347201 39.7099 4.29734e-07 40.4998C-0.000346343 41.2897 0.209182 42.0658 0.607511 42.7498C1.00584 43.434 1.57892 44.0021 2.26912 44.3972C2.95931 44.7922 3.74229 45.0002 4.5393 45H20.2903C26.5311 45 31.1334 42.2831 34.3003 36.9827L41.9887 23.7859L46.1068 16.7234L58.4661 37.9374H41.9887L37.8681 45ZM20.0336 37.9303L9.04134 37.9279L25.5187 9.64399L33.7402 23.7859L28.2356 33.2381C26.1324 36.6772 23.7433 37.9303 20.0336 37.9303Z" fill="#00DC82"/>
<path d="M84.825 45C85.3221 45 85.725 44.5971 85.725 44.1V23.175C85.725 23.175 86.9049 25.0393 89.1 28.8L97.809 43.8662C98.2116 44.568 98.9529 45 99.7553 45H105.75V11.25H99.675C99.1779 11.25 98.775 11.6529 98.775 12.15V33.3L94.95 26.55L86.7178 12.3796C86.3145 11.6802 85.5744 11.25 84.7738 11.25H78.75V45H84.825Z" fill="#3D3D3D"/>
<path d="M152.596 32.3679L160.324 20.7H154.535C153.781 20.7 153.077 21.0819 152.66 21.7174L149.12 27.1125L145.581 21.7174C145.164 21.0819 144.46 20.7 143.706 20.7H137.962L145.691 32.3196L137.368 45H142.985C143.733 45 144.432 44.6241 144.85 43.9969L149.166 37.5268L153.437 43.989C153.854 44.6207 154.556 45 155.307 45H160.873L152.596 32.3679Z" fill="#3D3D3D"/>
<path d="M163.034 20.7H167.47V13.5161H173.827V20.7H180V26.2929H173.827V35.8875C173.827 38.25 175.015 39.3589 177.073 39.3589H180V45H176.204C170.9 45 167.47 41.8179 167.47 36.1768V26.2929H163.034V20.7Z" fill="#3D3D3D"/>
<path d="M132.75 20.7H129.375C128.59 20.7 127.976 20.7326 127.463 21.2678C126.949 21.7731 126.9 22.0847 126.9 22.8576V34.6669C126.9 36.48 126.815 37.6358 126 38.5275C125.185 39.3896 124.061 39.663 122.4 39.663C120.769 39.663 119.615 39.3896 118.8 38.5275C117.985 37.6358 117.9 36.48 117.9 34.6669V22.8576C117.9 22.0847 117.851 21.7731 117.338 21.2678C116.824 20.7326 116.21 20.7 115.425 20.7H112.05V34.7449C112.05 37.8958 112.926 40.3928 114.677 42.2357C116.459 44.0784 119.048 45 122.4 45C125.752 45 128.296 44.0784 130.078 42.2357C131.859 40.3928 132.75 37.8958 132.75 34.7449V20.7Z" fill="#3D3D3D"/>
</g>
<defs>
<clipPath id="clip0_65_795">
<rect width="180" height="45" fill="white"/>
</clipPath>
</defs>
</svg>
