<svg width="197" height="67" viewBox="0 0 197 67" fill="none" xmlns="http://www.w3.org/2000/svg">
<path d="M37.6433 40.1223C41.3159 40.1223 44.2932 37.145 44.2932 33.4724C44.2932 29.7998 41.3159 26.8225 37.6433 26.8225C33.9707 26.8225 30.9934 29.7998 30.9934 33.4724C30.9934 37.145 33.9707 40.1223 37.6433 40.1223Z" fill="#00D8FF"/>
<path fill-rule="evenodd" clip-rule="evenodd" d="M37.6453 19.9518C46.5737 19.9518 54.8679 21.2329 61.1217 23.3859C68.6567 25.98 73.2895 29.912 73.2895 33.4724C73.2895 37.1826 68.3796 41.3598 60.2881 44.0407C54.1707 46.0675 46.1206 47.1255 37.6453 47.1255C28.9558 47.1255 20.7274 46.1324 14.541 44.0184C6.71418 41.3432 2 37.1119 2 33.4724C2 29.9409 6.42336 26.0392 13.8524 23.4491C20.1295 21.2606 28.6285 19.9518 37.6441 19.9518H37.6453Z" stroke="#00D8FF" stroke-width="3.6857"/>
<path fill-rule="evenodd" clip-rule="evenodd" d="M25.872 26.7512C30.3325 19.0168 35.5856 12.4718 40.575 8.12985C46.5863 2.89845 52.307 0.849679 55.3912 2.62817C58.6054 4.48168 59.771 10.8219 58.0511 19.1705C56.7521 25.4825 53.6458 32.9843 49.4118 40.3262C45.0706 47.8537 40.0998 54.4857 35.1784 58.7874C28.951 64.2312 22.9303 66.2012 19.7775 64.3829C16.7182 62.62 15.5482 56.8379 17.0159 49.1082C18.2559 42.5773 21.3679 34.561 25.8705 26.751L25.872 26.7512Z" stroke="#00D8FF" stroke-width="3.6857"/>
<path fill-rule="evenodd" clip-rule="evenodd" d="M25.8845 40.346C21.4115 32.6205 18.366 24.7991 17.0948 18.3081C15.5646 10.4874 16.6465 4.50783 19.7279 2.72417C22.9389 0.865218 29.014 3.02162 35.3879 8.68118C40.2071 12.9601 45.1556 19.3965 49.402 26.7316C53.7556 34.2518 57.0186 41.8707 58.288 48.2826C59.8941 56.3967 58.5942 62.5964 55.4443 64.4198C52.3879 66.1892 46.7951 64.3159 40.8314 59.1839C35.7926 54.8481 30.4017 48.1483 25.8845 40.3459V40.346Z" stroke="#00D8FF" stroke-width="3.6857"/>
<path fill-rule="evenodd" clip-rule="evenodd" d="M111.464 50.4626L103.313 38.1485C107.432 37.7849 111.144 34.8002 111.144 29.3472C111.144 23.7986 107.206 20.2474 101.683 20.2474H89.5522V50.4396H93.31V38.4431H99.3312L107.027 50.4396L111.464 50.4626ZM101.233 35.1618H93.3119V23.6187H101.233C104.811 23.6187 107.254 25.9721 107.254 29.3682C107.254 32.7644 104.809 35.1656 101.233 35.1656V35.1618ZM125.452 51.0041C129.03 51.0041 131.971 49.8274 134.144 47.6558L132.514 45.4363C130.792 47.2023 128.259 48.1972 125.77 48.1972C121.063 48.1972 118.164 44.7571 117.892 40.6396H135.591V39.7786C135.591 33.2159 131.697 28.0538 125.086 28.0538C118.839 28.0538 114.314 33.17 114.314 39.5069C114.314 46.3432 118.977 50.9868 125.45 50.9868L125.452 51.0041ZM132.244 38.1465H117.894C118.076 34.7982 120.382 30.8568 125.046 30.8568C130.027 30.8568 132.198 34.8862 132.244 38.1465ZM158.139 50.4607V35.4315C158.139 30.1355 154.293 28.0519 149.675 28.0519C146.097 28.0519 143.292 29.2286 140.938 31.6738L142.523 34.0272C144.468 31.9455 146.598 30.9946 149.223 30.9946C152.391 30.9946 154.747 32.6687 154.747 35.6114V39.549C152.981 37.5113 150.492 36.5604 147.503 36.5604C143.791 36.5604 139.85 38.8698 139.85 43.7583C139.85 48.511 143.787 51.0021 147.503 51.0021C150.446 51.0021 152.937 49.9613 154.747 47.9695V50.4569L158.139 50.4607ZM148.726 48.5588C145.557 48.5588 143.338 46.569 143.338 43.8061C143.338 40.9993 145.557 39.0075 148.726 39.0075C151.125 39.0075 153.432 39.9125 154.747 41.7245V45.8438C153.434 47.6538 151.125 48.5588 148.726 48.5588ZM174.555 51.0041C178.539 51.0041 180.892 49.3739 182.568 47.2023L180.305 45.1206C178.856 47.0664 177.001 47.9715 174.756 47.9715C170.093 47.9715 167.199 44.3495 167.199 39.5069C167.199 34.6643 170.095 31.0883 174.756 31.0883C177.02 31.0883 178.876 31.9493 180.305 33.9392L182.568 31.8575C180.894 29.6839 178.539 28.0557 174.555 28.0557C168.037 28.0557 163.646 33.0361 163.646 39.5088C163.646 46.0275 168.037 50.9888 174.555 50.9888V51.0041ZM192.847 51.0041C194.837 51.0041 196.061 50.4148 196.922 49.6016L195.927 47.0665C195.474 47.5639 194.588 47.9715 193.618 47.9715C192.125 47.9715 191.398 46.7948 191.398 45.1646V31.5839H195.837V28.5972H191.398V22.6219H188.002V28.5972H184.38V31.5858H188.002V45.8917C188.002 49.152 189.632 51.0079 192.847 51.0079V51.0041Z" fill="#00D8FF"/>
</svg>
