<svg width="189" height="47" viewBox="0 0 189 47" fill="none" xmlns="http://www.w3.org/2000/svg">
<g clip-path="url(#clip0_1_2)">
<path d="M35.9507 6.12586C31.6659 -0.0275674 23.2026 -1.85149 17.0842 2.06096L6.33885 8.93321C5.61515 9.38981 4.94106 9.91981 4.32746 10.5154C3.71346 11.1111 3.16296 11.7695 2.68496 12.4799C2.20656 13.1898 1.80293 13.9477 1.48063 14.7414C1.1589 15.5353 0.919774 16.3608 0.767954 17.2044C0.640784 17.9119 0.571855 18.6286 0.561855 19.3474C0.552415 20.0671 0.601975 20.7851 0.710525 21.496C0.819085 22.2069 0.985845 22.9076 1.21003 23.5909C1.43344 24.2741 1.71269 24.9369 2.04545 25.5743C1.81574 25.9227 1.60492 26.2829 1.4122 26.6534C1.21869 27.0238 1.04484 27.4038 0.890665 27.7916C0.735705 28.1795 0.601185 28.5752 0.486345 28.9773C0.371495 29.3786 0.277095 29.7862 0.203155 30.1977C0.0505452 31.0595 -0.0163153 31.9355 0.00335467 32.8107C0.0238047 33.6868 0.130785 34.558 0.322725 35.4119C0.515445 36.2666 0.791555 37.0992 1.14869 37.8986C1.50582 38.698 1.94161 39.4595 2.44896 40.172C6.73376 46.3254 15.1971 48.1485 21.3155 44.2369L32.0616 37.393C32.7837 36.9357 33.4571 36.4056 34.0699 35.8093C34.6835 35.2129 35.2341 34.5549 35.7124 33.8447C36.1898 33.1346 36.5934 32.3771 36.9167 31.5832C37.2392 30.7901 37.4783 29.9655 37.6317 29.1218C37.8859 27.7047 37.9045 26.2551 37.6868 24.8318C37.5775 24.1217 37.4107 23.4218 37.1865 22.7385C36.9631 22.0561 36.6831 21.3925 36.3503 20.7566C36.5792 20.4075 36.7908 20.0473 36.9835 19.6768C37.1771 19.3064 37.3509 18.9264 37.5059 18.5386C37.6608 18.1507 37.7961 17.755 37.9118 17.3529C38.0266 16.9516 38.1218 16.544 38.1965 16.1333C38.3488 15.271 38.4155 14.3957 38.3955 13.5202C38.3751 12.6442 38.2681 11.7729 38.0754 10.9191C37.8833 10.0647 37.6068 9.23171 37.2502 8.43241C36.8933 7.63316 36.458 6.87161 35.9507 6.15904" fill="#FF3E00"/>
<path d="M61.3483 35.9066C60.8512 35.9192 60.354 35.8947 59.8608 35.8323C59.3676 35.7707 58.8791 35.6712 58.4008 35.5361C57.9226 35.4002 57.4545 35.2288 57.0022 35.0234C56.5492 34.8176 56.1121 34.5778 55.6948 34.3062C55.3063 34.0487 54.9405 33.7588 54.6014 33.4389C54.2624 33.119 53.9509 32.7706 53.6701 32.3978C53.39 32.0241 53.1422 31.6284 52.9291 31.2129C52.7159 30.7974 52.5389 30.3645 52.3989 29.919L55.8309 28.6496C55.9497 28.9237 56.0866 29.1891 56.2423 29.4443C56.3981 29.6994 56.5712 29.9435 56.7607 30.1734C56.9511 30.404 57.1564 30.6213 57.3767 30.8227C57.5967 31.0243 57.8307 31.2101 58.0768 31.3788C58.3261 31.547 58.5889 31.6955 58.861 31.8235C59.1332 31.9515 59.4148 32.0581 59.7035 32.1434C59.9922 32.2287 60.2864 32.2919 60.5845 32.3314C60.8827 32.3717 61.1831 32.3891 61.4836 32.3836C61.7723 32.3986 62.061 32.3891 62.3474 32.3543C62.6337 32.3196 62.9169 32.2595 63.193 32.1758C63.4691 32.0921 63.7373 31.9846 63.9953 31.8543C64.2533 31.7245 64.4994 31.5723 64.7308 31.3993C64.933 31.2287 65.1155 31.0344 65.2736 30.8211C65.5898 30.3931 65.8028 29.8971 65.8958 29.3724C65.9415 29.1102 65.9572 28.844 65.9422 28.5793C65.943 28.4561 65.9375 28.3321 65.9234 28.2097C65.91 28.0872 65.8895 27.9656 65.8612 27.8455C65.8329 27.7254 65.7975 27.6069 65.7558 27.4916C65.7133 27.3755 65.6638 27.2625 65.6079 27.1527C65.5115 26.955 65.3994 26.7654 65.2728 26.5856C65.2099 26.4955 65.143 26.4079 65.073 26.3233C65.0038 26.238 64.9306 26.1567 64.8543 26.0769C64.7576 25.9892 64.6577 25.9047 64.5546 25.8241C64.4516 25.7435 64.3454 25.6669 64.2368 25.595C64.1277 25.5226 64.0159 25.4544 63.9017 25.3904C63.7877 25.3273 63.6712 25.2672 63.5525 25.2127C62.9672 24.9197 62.485 24.6961 62.098 24.5429C61.7102 24.3896 61.1422 24.1835 60.3965 23.9267C59.4565 23.5958 58.7477 23.3398 58.2868 23.1495C58.1279 23.0823 57.9713 23.012 57.8148 22.9401C57.6591 22.8675 57.5041 22.7924 57.3507 22.715C57.1965 22.6368 57.0447 22.557 56.8937 22.4741C56.7426 22.3919 56.5932 22.3066 56.4445 22.2189C56.2849 22.1341 56.1288 22.043 55.9765 21.9456C55.8241 21.848 55.6756 21.7444 55.5312 21.6352C55.3872 21.5258 55.2476 21.4106 55.1127 21.29C54.9777 21.1694 54.8476 21.0435 54.7226 20.9124C54.6148 20.7837 54.5125 20.6518 54.415 20.5151C54.3183 20.3784 54.2262 20.2386 54.1397 20.0949C54.0539 19.9511 53.9737 19.8042 53.899 19.6541C53.8242 19.504 53.755 19.3516 53.6929 19.1959C53.33 18.3107 53.1796 17.3522 53.2538 16.3978C53.328 15.4435 53.6247 14.52 54.12 13.7021C54.449 13.1578 54.861 12.6687 55.3409 12.2526C56.7474 11.0093 58.6549 10.3876 61.0636 10.3876C63.0797 10.3876 64.7363 10.8331 66.0327 11.7234C66.345 11.9319 66.6392 12.1673 66.9106 12.4264C67.1828 12.6863 67.4313 12.969 67.6539 13.2724C67.8766 13.5749 68.0724 13.8972 68.2392 14.2345C68.406 14.5718 68.5428 14.9225 68.649 15.2843L65.2783 16.4131C65.1934 16.2235 65.0935 16.0402 64.9794 15.8665C64.8653 15.6927 64.7379 15.5276 64.5987 15.3735C64.3187 15.0652 63.9919 14.8034 63.6303 14.5979C63.414 14.4778 63.189 14.3727 62.9578 14.2835C62.7265 14.1942 62.4897 14.12 62.249 14.0631C62.0083 14.0062 61.7637 13.9651 61.5167 13.9406C61.2705 13.9169 61.0227 13.9098 60.7749 13.9193C60.5326 13.9051 60.2895 13.9114 60.0473 13.9375C59.8058 13.9636 59.5666 14.0094 59.333 14.0749C59.0986 14.1413 58.8705 14.2258 58.6502 14.3293C58.43 14.4328 58.2191 14.5544 58.0185 14.6926C57.8549 14.8206 57.7063 14.9683 57.5772 15.1318C57.4482 15.2953 57.3389 15.4739 57.2524 15.6634C57.1658 15.853 57.1029 16.0529 57.0636 16.2582C57.025 16.4628 57.0109 16.6722 57.0219 16.8799C57.025 17.2003 57.0949 17.5165 57.2272 17.8081C57.2941 17.9534 57.3751 18.0916 57.4695 18.2196C57.5644 18.3481 57.6725 18.4661 57.792 18.5719C57.9084 18.6864 58.0303 18.7955 58.157 18.8989C58.2836 19.0024 58.4142 19.1004 58.5503 19.192C58.8212 19.375 59.1082 19.5329 59.4077 19.6636C59.9678 19.899 60.8244 20.2133 61.9698 20.6146C62.6707 20.8753 63.2064 21.0649 63.532 21.1976C63.8569 21.3295 64.3556 21.5404 65.0235 21.8469C65.1548 21.9053 65.2846 21.9662 65.4136 22.0302C65.5426 22.0941 65.6701 22.1605 65.7959 22.2292C65.9218 22.2987 66.0469 22.3698 66.1704 22.4441C66.2931 22.5183 66.415 22.5949 66.5354 22.6739C66.6431 22.7513 66.7493 22.8311 66.8547 22.9117C67.0657 23.0732 67.2719 23.241 67.473 23.4149C67.5737 23.501 67.6736 23.5894 67.7711 23.6787C68.088 23.9551 68.3709 24.2686 68.6136 24.6124C68.6946 24.7269 68.771 24.8446 68.8425 24.9647C68.911 25.0903 68.9755 25.2175 69.036 25.347C69.1574 25.6054 69.2628 25.871 69.3515 26.1424C69.396 26.2779 69.4367 26.4146 69.4734 26.5524C69.5182 26.7143 69.5576 26.8779 69.5906 27.0422C69.6244 27.2065 69.652 27.3716 69.674 27.5382C69.696 27.7041 69.7125 27.8716 69.7228 28.039C69.7338 28.2065 69.7377 28.374 69.7369 28.5422C69.7369 30.8464 68.9527 32.6498 67.3841 33.9507C65.8156 35.2517 63.8034 35.9042 61.3483 35.9066ZM83.853 35.4934L75.4266 10.8181H79.3574L84.9401 28.0122C85.0172 28.2436 85.0911 28.4759 85.1619 28.7097C85.2327 28.9427 85.3011 29.1773 85.3656 29.4119C85.4946 29.8824 85.6111 30.3562 85.7149 30.833C85.766 30.5944 85.8203 30.3566 85.8785 30.1197C85.9359 29.8827 85.9965 29.6473 86.061 29.4119C86.1255 29.1765 86.1932 28.9427 86.264 28.7089C86.334 28.4759 86.4087 28.2436 86.4858 28.0122L91.9988 10.8181H95.8958L87.5029 35.4848L83.853 35.4934ZM103.338 35.4934V10.8181H118.583V14.2708H106.992V21.0364H114.47V24.4892H106.992V32.0155H119.353V35.4682L103.338 35.4934ZM128.652 35.4934V10.8181H132.307V31.9617H144.313V35.4848L128.652 35.4934ZM158.075 14.349V35.4848H154.425V14.3411H147.473V10.8181H165.017V14.3411L158.075 14.349ZM172.578 35.4934V10.8181H187.823V14.2708H176.228V21.0364H183.707V24.4892H176.228V32.0155H188.589V35.4682L172.578 35.4934Z" fill="#4A4A55"/>
<path d="M16.8861 40.8726C15.2062 41.3159 13.4332 41.2244 11.8061 40.6104C10.9971 40.3057 10.2386 39.8769 9.5571 39.339C8.87535 38.8014 8.27821 38.1613 7.78613 37.4407C7.48304 37.0092 7.22365 36.5491 7.01044 36.066C6.79712 35.5821 6.63227 35.0783 6.51747 34.5618C6.40336 34.0453 6.33931 33.5185 6.32759 32.9885C6.31587 32.4592 6.35649 31.93 6.44795 31.4088C6.46355 31.3237 6.47993 31.2387 6.49791 31.1545C6.51588 31.0703 6.53624 30.986 6.55729 30.9026C6.57835 30.8191 6.60109 30.7357 6.62522 30.653C6.64945 30.5705 6.67527 30.4878 6.70179 30.406L6.90259 29.7822L7.45097 30.1978C7.76498 30.4314 8.08922 30.6507 8.422 30.8565C8.75399 31.0624 9.09541 31.253 9.44379 31.4294C9.79216 31.6059 10.1476 31.7671 10.5101 31.9126C10.8718 32.0588 11.2398 32.1891 11.6124 32.3027L12.0209 32.4235L11.9842 32.8399C11.9749 32.9805 11.9771 33.1227 11.9912 33.2634C12.0052 33.404 12.0319 33.5439 12.0701 33.6797C12.1076 33.8165 12.1569 33.9491 12.2178 34.0763C12.2779 34.2042 12.349 34.3258 12.4303 34.441C12.5786 34.6579 12.7591 34.8503 12.9646 35.0123C13.17 35.1737 13.3981 35.3023 13.6418 35.3946C13.8856 35.4859 14.1419 35.5391 14.4012 35.5527C14.6605 35.5662 14.9206 35.5391 15.1722 35.4725C15.2293 35.4574 15.2871 35.4391 15.3433 35.4192C15.3995 35.3985 15.455 35.3763 15.5097 35.3524C15.5644 35.3278 15.6183 35.3015 15.6714 35.273C15.7245 35.2444 15.7761 35.2142 15.8268 35.1816L26.4814 28.2676C26.7432 28.1004 26.9675 27.8793 27.14 27.6185C27.2259 27.4881 27.2986 27.3499 27.3564 27.2044C27.4142 27.0591 27.4571 26.9081 27.4837 26.7539C27.5662 26.2788 27.5057 25.7895 27.3102 25.3499C27.2455 25.2036 27.1665 25.0654 27.0752 24.9358C26.9267 24.7189 26.7463 24.5266 26.5408 24.3645C26.1276 24.039 25.6262 23.8505 25.1042 23.8242C24.8449 23.8107 24.5847 23.8377 24.3332 23.9036C24.2754 23.9195 24.2184 23.937 24.1621 23.9576C24.1051 23.9776 24.0496 23.9998 23.9949 24.0244C23.9402 24.0483 23.8864 24.0752 23.8333 24.1031C23.7809 24.1317 23.7294 24.1627 23.6785 24.1952L19.5867 26.8366C19.2527 27.0521 18.903 27.2415 18.5407 27.4031C18.3595 27.4834 18.1759 27.5572 17.9892 27.624C17.8025 27.6908 17.6134 27.7496 17.422 27.802C16.5885 28.0206 15.7268 28.1095 14.8668 28.0642C14.0067 28.0198 13.1591 27.8417 12.3513 27.5374C11.5444 27.2325 10.7876 26.8046 10.107 26.2684C9.42611 25.7321 8.82976 25.0934 8.33839 24.374C7.7334 23.5091 7.30399 22.5301 7.07519 21.4944C6.96118 20.9779 6.89871 20.451 6.887 19.9219C6.87607 19.3926 6.91669 18.8634 7.00885 18.3421C7.18939 17.3165 7.57868 16.3405 8.15169 15.4768C8.4373 15.0462 8.76611 14.647 9.13285 14.2856C9.49999 13.9241 9.90309 13.6023 10.3351 13.325L21.0233 6.4118C21.1889 6.30373 21.3592 6.20281 21.5327 6.10905C21.7061 6.01449 21.8833 5.92708 22.0631 5.84603C22.2435 5.76498 22.4264 5.69108 22.6115 5.62512C22.7974 5.55838 22.9857 5.49879 23.1754 5.44634C24.0097 5.22623 24.873 5.13644 25.7346 5.18094C26.5963 5.22544 27.4454 5.40264 28.254 5.70777C29.0625 6.0129 29.821 6.44199 30.5022 6.97995C31.1834 7.5171 31.7802 8.15759 32.2716 8.87825C32.8792 9.74196 33.3111 10.7206 33.5418 11.7564C33.6566 12.2728 33.7207 12.8005 33.7324 13.3297C33.7449 13.8592 33.7051 14.3887 33.6136 14.9102C33.5972 14.996 33.5801 15.081 33.5613 15.166C33.5433 15.251 33.5231 15.3353 33.502 15.4195C33.4809 15.5037 33.4582 15.588 33.4348 15.6714C33.4105 15.7548 33.3856 15.8383 33.3598 15.9209L33.1551 16.5447L32.6106 16.1291C32.2959 15.8939 31.9714 15.6726 31.6381 15.4656C31.3045 15.2582 30.9623 15.066 30.6131 14.8879C30.2636 14.7103 29.9067 14.5479 29.5437 14.4008C29.1804 14.2538 28.811 14.1228 28.4376 14.0075L28.0282 13.8868L28.0649 13.4711C28.0766 13.3289 28.0758 13.1866 28.0634 13.0444C28.0509 12.9026 28.0258 12.7621 27.9883 12.6249C27.9517 12.4874 27.9032 12.3539 27.843 12.2251C27.7829 12.0965 27.7126 11.9733 27.6314 11.8565C27.4818 11.6436 27.3017 11.4548 27.097 11.2963C26.8918 11.1382 26.6642 11.0126 26.4221 10.9237C26.1804 10.8343 25.9267 10.7831 25.6698 10.7719C25.412 10.7599 25.1549 10.7877 24.9058 10.8544C24.848 10.8695 24.791 10.8878 24.7347 10.9078C24.6785 10.9276 24.6223 10.9498 24.5675 10.9745C24.5128 10.9991 24.459 11.0254 24.4067 11.0539C24.3535 11.0825 24.3019 11.1128 24.2511 11.1454L13.5763 18.0466C13.3158 18.2145 13.0922 18.4352 12.9193 18.6949C12.8334 18.8246 12.7606 18.9628 12.7021 19.1074C12.6443 19.2527 12.6013 19.4029 12.574 19.5571C12.5467 19.7144 12.5357 19.8742 12.5396 20.0346C12.5443 20.1944 12.5639 20.3533 12.599 20.5099C12.6342 20.6657 12.6842 20.8176 12.7482 20.9635C12.813 21.1098 12.8912 21.2488 12.9825 21.3792C13.1302 21.5937 13.3091 21.7844 13.5129 21.9449C13.7168 22.1054 13.9434 22.2341 14.1856 22.3255C14.427 22.4169 14.6808 22.471 14.9378 22.4852C15.1956 22.4995 15.4534 22.475 15.7042 22.4106C15.7613 22.3947 15.8183 22.3764 15.8753 22.3566C15.9315 22.3359 15.987 22.3136 16.0417 22.289C16.0963 22.2651 16.1503 22.2389 16.2034 22.2103C16.2557 22.1817 16.3081 22.1516 16.3588 22.1198L20.4499 19.4816C20.6171 19.3735 20.7882 19.271 20.9631 19.1757C21.1373 19.0803 21.3155 18.9922 21.4975 18.9111C21.6788 18.83 21.8631 18.7562 22.0506 18.6894C22.2373 18.6234 22.4271 18.5638 22.6185 18.5129C23.4536 18.292 24.316 18.2015 25.1777 18.2452C26.0388 18.2895 26.8883 18.4669 27.6969 18.7713C28.5057 19.076 29.2639 19.5047 29.9452 20.0426C30.6272 20.5798 31.2233 21.2203 31.7147 21.9401C32.0177 22.3717 32.2778 22.8317 32.4911 23.3148C32.7044 23.7987 32.87 24.3018 32.9848 24.819C33.0996 25.3355 33.1637 25.8624 33.1754 26.3915C33.1879 26.9216 33.1481 27.4508 33.0567 27.9721C32.9668 28.4837 32.8247 28.9844 32.6325 29.4659C32.4403 29.9472 32.1995 30.4069 31.9138 30.8374C31.6287 31.2681 31.2998 31.6678 30.9326 32.0294C30.5655 32.3909 30.1624 32.7127 29.7304 32.9893L19.0547 39.9032C18.8875 40.0113 18.7165 40.113 18.5415 40.2076C18.3665 40.3021 18.1884 40.3903 18.0071 40.4713C17.8251 40.5524 17.6408 40.6263 17.4541 40.6938C17.2674 40.7606 17.0775 40.8202 16.8861 40.8726Z" fill="white"/>
</g>
<defs>
<clipPath id="clip0_1_2">
<rect width="189" height="47" fill="white"/>
</clipPath>
</defs>
</svg>
