<svg width="178" height="40" viewBox="0 0 178 40" fill="none" xmlns="http://www.w3.org/2000/svg">
<path d="M89.0892 10.8889C82.1784 10.8889 77.1954 15.3889 77.1954 22.1389C77.1954 28.8889 82.7982 33.3889 89.7154 33.3889C93.8903 33.3889 97.5713 31.7389 99.8496 28.9576L95.0609 26.1951C93.7966 27.5764 91.8748 28.3827 89.7154 28.3827C86.7167 28.3827 84.1691 26.8201 83.2236 24.3201H100.764C100.901 23.6201 100.983 22.8951 100.983 22.1327C100.983 15.3889 96.0064 10.8889 89.0892 10.8889ZM83.1736 19.9514C83.956 17.4577 86.0969 15.8889 89.0892 15.8889C92.0875 15.8889 94.2284 17.4577 95.0048 19.9514H83.1736ZM81.7589 4.01389L64.413 34.0139L47.0611 4.01389H53.5649L64.407 22.7639L75.2488 4.01389H81.7589ZM23.1299 0L46.2599 40H0L23.1299 0ZM126.147 22.1389C126.147 25.8889 128.601 28.3889 132.407 28.3889C134.986 28.3889 136.92 27.2201 137.915 25.3139L142.723 28.0827C140.732 31.3951 137.002 33.3889 132.407 33.3889C125.49 33.3889 120.514 28.8889 120.514 22.1389C120.514 15.3889 125.496 10.8889 132.407 10.8889C137.002 10.8889 140.726 12.8826 142.723 16.1951L137.915 18.9639C136.92 17.0576 134.986 15.8889 132.407 15.8889C128.607 15.8889 126.147 18.3889 126.147 22.1389ZM177.778 4.01389V32.7639H172.144V4.01389H177.778ZM156.495 10.8889C149.584 10.8889 144.601 15.3889 144.601 22.1389C144.601 28.8889 150.21 33.3889 157.121 33.3889C161.296 33.3889 164.977 31.7389 167.255 28.9576L162.466 26.1951C161.202 27.5764 159.28 28.3827 157.121 28.3827C154.122 28.3827 151.574 26.8201 150.629 24.3201H168.169C168.307 23.6201 168.388 22.8951 168.388 22.1327C168.388 15.3889 163.412 10.8889 156.495 10.8889ZM150.579 19.9514C151.362 17.4577 153.496 15.8889 156.495 15.8889C159.493 15.8889 161.634 17.4577 162.41 19.9514H150.579ZM118.635 11.5139V17.5701C118.01 17.3889 117.346 17.2639 116.632 17.2639C112.995 17.2639 110.372 19.7639 110.372 23.5139V32.7639H104.739V11.5139H110.372V17.2639C110.372 14.0889 114.072 11.5139 118.635 11.5139Z" fill="#1B1B1B"/>
</svg>
