<svg width="146" height="54" viewBox="0 0 146 54" fill="none" xmlns="http://www.w3.org/2000/svg">
<path d="M12.6985 0.22435L23.9362 0.2286L31.2821 12.4219L38.6021 0.229577L49.8301 0.226597L31.3383 32.3026L12.6985 0.22435Z" fill="#35495E"/>
<path d="M0.446777 0.310185L12.6929 0.226593L31.3317 32.3041L49.8245 0.228547L62.0921 0.241396L31.3298 53.0346L0.446777 0.310185Z" fill="#41B883"/>
<path d="M71.8894 12.6499C71.4716 12.6499 71.0554 12.7694 70.6939 13.008C70.3324 13.2466 70.0009 13.6581 70.0009 14.1863C70.0009 14.2558 69.9599 14.4118 70.0961 14.6837L70.0607 14.5975L77.327 38.1371C77.4571 38.5787 77.7693 38.9161 78.1196 39.1098C78.4699 39.3034 78.8554 39.3773 79.2289 39.3773C80.0229 39.3773 80.8947 38.9989 81.1617 38.1459V38.1436L88.4214 14.5158V14.4296C88.4214 14.5487 88.4568 14.4799 88.4568 14.2218C88.4568 13.6845 88.1131 13.2895 87.7461 13.0412C87.379 12.7929 86.9469 12.6499 86.4974 12.6499C85.943 12.6499 85.3053 12.9866 85.0915 13.6271L85.0871 13.6337L79.2267 33.1631L73.3441 13.6688C73.2569 13.3205 73.0219 13.0287 72.7485 12.8663C72.4751 12.704 72.1769 12.6499 71.8894 12.6499ZM129.763 13.8636C128.607 13.8636 127.631 14.7484 127.631 15.8555C127.631 16.9625 128.592 17.8782 129.763 17.8782C130.913 17.8782 131.827 16.9453 131.827 15.8555C131.827 14.7656 130.897 13.8636 129.763 13.8636ZM112.727 21.3998C108.773 21.3998 105.516 24.5595 105.516 28.3569V32.2477C105.516 34.3746 106.365 36.1975 107.805 37.4561C109.246 38.7147 111.257 39.4104 113.562 39.4104C115.264 39.4104 116.652 39.0298 117.644 38.5129C118.141 38.2544 118.539 37.9645 118.833 37.6485C119.127 37.3325 119.345 36.9866 119.345 36.5542C119.345 36.1572 119.192 35.8132 118.944 35.5041C118.696 35.1951 118.306 34.9117 117.804 34.9117C117.441 34.9117 117.162 35.0642 116.92 35.2123C116.679 35.3604 116.452 35.524 116.179 35.681C115.632 35.9949 114.909 36.3 113.63 36.3C112.207 36.3 111.021 35.8948 110.203 35.2145C109.386 34.5343 108.91 33.59 108.91 32.3517V31.631H116.205C116.983 31.631 117.848 31.6321 118.596 31.1557C119.345 30.6788 119.799 29.7309 119.799 28.2884C119.799 24.2938 116.461 21.3998 112.727 21.3998ZM140.143 21.3998C138.042 21.3998 136.496 22.0789 135.503 23.0999C134.51 24.1208 134.082 25.449 134.082 26.6901C134.082 28.2718 134.721 29.4053 135.638 30.1321C136.554 30.8589 137.695 31.2246 138.78 31.5514C139.865 31.8781 140.903 32.1681 141.6 32.597C142.297 33.026 142.672 33.4899 142.672 34.4695C142.672 34.9953 142.514 35.4138 142.085 35.7561C141.657 36.0983 140.896 36.3685 139.656 36.3685C138.19 36.3685 137.37 36.0073 136.774 35.6389C136.475 35.4547 136.235 35.2636 135.988 35.0929C135.74 34.9222 135.46 34.737 135.067 34.737C134.594 34.737 134.245 35.028 134.033 35.3294C133.821 35.6308 133.698 35.9733 133.698 36.3441C133.698 36.8027 133.922 37.2058 134.239 37.5556C134.555 37.9053 134.984 38.2166 135.509 38.4885C136.561 39.0324 138.008 39.4103 139.727 39.4103C141.594 39.4103 143.128 38.9555 144.215 38.0729C145.301 37.1904 145.893 35.8783 145.893 34.3656C145.893 32.6569 145.271 31.4283 144.354 30.6163C143.438 29.8043 142.28 29.3857 141.18 29.0488C140.079 28.712 139.019 28.4498 138.31 28.0806C137.601 27.7113 137.267 27.3707 137.267 26.5861C137.267 26.1617 137.438 25.6279 137.87 25.2067C138.302 24.7855 139.007 24.444 140.179 24.444C141.115 24.444 141.811 24.6588 142.368 24.8862C142.647 24.9999 142.889 25.1187 143.119 25.2178C143.349 25.3168 143.561 25.4145 143.865 25.4145C144.415 25.4145 144.792 25.0524 145.016 24.7159C145.241 24.3795 145.371 24.0477 145.371 23.6681C145.371 23.1925 145.074 22.8554 144.746 22.6025C144.418 22.3497 144.007 22.149 143.531 21.9747C142.578 21.6262 141.363 21.3998 140.143 21.3998ZM90.4288 21.6098C89.5095 21.6098 88.7152 22.1855 88.7152 23.0424V32.3162C88.7152 36.0784 91.9185 39.4104 95.8908 39.4104C99.7961 39.4104 103.066 36.1175 103.066 32.3162V23.0093C103.066 22.5804 102.83 22.2084 102.52 21.9725C102.209 21.7366 101.814 21.6099 101.386 21.6099C100.957 21.6099 100.561 21.7349 100.244 21.9658C99.9264 22.1968 99.6723 22.5659 99.6723 23.0093V32.3162C99.6723 34.2883 97.9512 36.196 95.8909 36.196C93.7963 36.196 92.1094 34.2543 92.1094 32.3162V23.0424C92.1094 22.5982 91.8664 22.2557 91.5648 22.0122C91.2631 21.7686 90.869 21.6098 90.4288 21.6098ZM129.765 21.6098C129.335 21.6098 128.937 21.7203 128.62 21.9591C128.303 22.198 128.086 22.5909 128.086 23.0092V40.096C128.086 41.3782 127.996 42.4537 127.714 43.1047C127.432 43.7558 127.1 44.0443 126.149 44.0443C125.309 44.0443 124.608 44.777 124.608 45.6537C124.608 46.018 124.726 46.418 125.024 46.7303C125.323 47.0425 125.786 47.2255 126.322 47.2255C128.129 47.2255 129.512 46.4253 130.336 45.1253C131.16 43.8253 131.48 42.0863 131.48 40.0959V23.0092C131.48 22.5639 131.226 22.1766 130.902 21.948C130.579 21.7195 130.183 21.6098 129.765 21.6098ZM112.692 24.4086C114.949 24.4086 116.473 26.2956 116.473 28.2176C116.473 28.427 116.451 28.5642 116.429 28.6266C116.407 28.689 116.41 28.6809 116.378 28.7018C116.316 28.7434 115.967 28.8322 115.3 28.8322H108.91V28.0783C108.91 26.0668 110.593 24.4086 112.692 24.4086ZM123.474 35.0155C122.241 35.0155 121.307 36.0343 121.307 37.213C121.307 38.3452 122.227 39.3772 123.474 39.3772C124.655 39.3772 125.606 38.3766 125.606 37.213C125.606 36.0052 124.64 35.0155 123.474 35.0155Z" fill="#35495E"/>
</svg>
