<svg width="30" height="30" viewBox="0 0 30 30" fill="none" xmlns="http://www.w3.org/2000/svg">
<circle cx="15" cy="15" r="15" fill="#1A1A1A"/>
<path d="M9.90598 7H20.5043C22.1111 7 23.4103 8.29915 23.4103 9.90598V20.094C23.4103 21.7009 22.1111 23 20.5043 23H9.90598C8.29915 23 7 21.7009 7 20.094V9.90598C7 8.29915 8.29915 7 9.90598 7Z" fill="#FA0F00"/>
<path d="M19.759 19.0336H17.8103C17.6394 19.0336 17.4821 18.9379 17.4137 18.7738L15.3009 13.8234C15.2873 13.7755 15.2326 13.7482 15.1847 13.7618C15.1573 13.7687 15.13 13.796 15.1232 13.8234L13.8035 16.9618C13.7761 17.0165 13.8035 17.0849 13.865 17.1054C13.8787 17.1123 13.8924 17.1123 13.9061 17.1123H15.3556C15.4445 17.1123 15.5266 17.167 15.5608 17.249L16.1967 18.6644C16.2514 18.7943 16.1898 18.9516 16.0599 19.0063C16.0257 19.02 15.9915 19.0268 15.9573 19.0268H10.6787C10.5488 19.0268 10.4394 18.9174 10.4394 18.7875C10.4394 18.7533 10.4462 18.7259 10.4599 18.6918L13.8172 10.6986C13.8855 10.5277 14.0565 10.4114 14.2411 10.4183H16.1761C16.3608 10.4183 16.5317 10.5277 16.6001 10.6986L19.9779 18.6918C20.0326 18.8148 19.971 18.9584 19.8548 19.0063C19.8206 19.02 19.7932 19.0268 19.759 19.0336Z" fill="white"/>
</svg>
