<svg width="40" height="40" viewBox="0 0 40 40" fill="none" xmlns="http://www.w3.org/2000/svg">
<circle cx="20" cy="20" r="20" fill="white"/>
<g clip-path="url(#clip0_247_1500)">
<path d="M28.6612 27.3765C18.946 32.0001 12.9167 28.1316 9.05711 25.782C8.81828 25.634 8.41236 25.8167 8.76455 26.2212C10.0504 27.7803 14.2643 31.5381 19.7646 31.5381C25.2687 31.5381 28.5432 28.5348 28.9528 28.0109C29.3596 27.4914 29.0723 27.2049 28.6611 27.3765H28.6612ZM31.3896 25.8697C31.1287 25.5299 29.8032 25.4666 28.969 25.5691C28.1336 25.6686 26.8795 26.1792 26.9885 26.4858C27.0445 26.6006 27.1587 26.5491 27.7326 26.4975C28.3081 26.4401 29.9204 26.2366 30.2563 26.6758C30.5939 27.118 29.7421 29.2245 29.5866 29.5642C29.4363 29.904 29.644 29.9916 29.9263 29.7653C30.2047 29.5391 30.7088 28.9534 31.047 28.1244C31.383 27.291 31.5879 26.1283 31.3896 25.8697Z" fill="#FF9900"/>
<path fill-rule="evenodd" clip-rule="evenodd" d="M22.1287 17.942C22.1287 19.1551 22.1593 20.1668 21.5461 21.2442C21.0512 22.1202 20.2672 22.6589 19.3913 22.6589C18.1956 22.6589 17.4993 21.7479 17.4993 20.4034C17.4993 17.7492 19.8774 17.2675 22.1287 17.2675V17.942ZM25.2689 25.532C25.063 25.7159 24.7652 25.7291 24.5331 25.6064C23.4995 24.7481 23.3155 24.3495 22.7462 23.5305C21.0381 25.2736 19.8293 25.7948 17.6132 25.7948C14.9941 25.7948 12.9531 24.1786 12.9531 20.942C12.9531 18.415 14.3241 16.6937 16.2729 15.8529C17.9635 15.1083 20.3242 14.9769 22.1287 14.7711V14.3681C22.1287 13.6279 22.1855 12.752 21.752 12.1126C21.3709 11.5388 20.6439 11.3023 20.0044 11.3023C18.8176 11.3023 17.7577 11.9111 17.4993 13.1724C17.4466 13.4528 17.2409 13.7287 16.9606 13.7418L13.9385 13.4178C13.6846 13.3608 13.4043 13.155 13.4744 12.7651C14.1707 9.10376 17.4773 8 20.4379 8C21.9533 8 23.9329 8.40297 25.1286 9.55049C26.644 10.9651 26.4995 12.8527 26.4995 14.9068V19.7595C26.4995 21.218 27.1039 21.8574 27.6732 22.6458C27.8747 22.9261 27.9185 23.2634 27.6644 23.4735C27.0294 24.0034 25.8994 24.9889 25.2775 25.5408L25.2688 25.532" fill="black"/>
<path d="M28.6612 27.3765C18.946 32.0001 12.9167 28.1316 9.05711 25.782C8.81828 25.634 8.41236 25.8167 8.76455 26.2212C10.0504 27.7803 14.2643 31.5381 19.7646 31.5381C25.2687 31.5381 28.5432 28.5348 28.9528 28.0109C29.3596 27.4914 29.0723 27.2049 28.6611 27.3765H28.6612ZM31.3896 25.8697C31.1287 25.5299 29.8032 25.4666 28.969 25.5691C28.1336 25.6686 26.8795 26.1792 26.9885 26.4858C27.0445 26.6006 27.1587 26.5491 27.7326 26.4975C28.3081 26.4401 29.9204 26.2366 30.2563 26.6758C30.5939 27.118 29.7421 29.2245 29.5866 29.5642C29.4363 29.904 29.644 29.9916 29.9263 29.7653C30.2047 29.5391 30.7088 28.9534 31.047 28.1244C31.383 27.291 31.5879 26.1283 31.3896 25.8697Z" fill="#FF9900"/>
<path fill-rule="evenodd" clip-rule="evenodd" d="M22.1287 17.942C22.1287 19.1551 22.1593 20.1668 21.5461 21.2442C21.0512 22.1202 20.2672 22.6589 19.3913 22.6589C18.1956 22.6589 17.4993 21.7479 17.4993 20.4034C17.4993 17.7492 19.8774 17.2675 22.1287 17.2675V17.942ZM25.2689 25.532C25.063 25.7159 24.7652 25.7291 24.5331 25.6064C23.4995 24.7481 23.3155 24.3495 22.7462 23.5305C21.0381 25.2736 19.8293 25.7948 17.6132 25.7948C14.9941 25.7948 12.9531 24.1786 12.9531 20.942C12.9531 18.415 14.3241 16.6937 16.2729 15.8529C17.9635 15.1083 20.3242 14.9769 22.1287 14.7711V14.3681C22.1287 13.6279 22.1855 12.752 21.752 12.1126C21.3709 11.5388 20.6439 11.3023 20.0044 11.3023C18.8176 11.3023 17.7577 11.9111 17.4993 13.1724C17.4466 13.4528 17.2409 13.7287 16.9606 13.7418L13.9385 13.4178C13.6846 13.3608 13.4043 13.155 13.4744 12.7651C14.1707 9.10376 17.4773 8 20.4379 8C21.9533 8 23.9329 8.40297 25.1286 9.55049C26.644 10.9651 26.4995 12.8527 26.4995 14.9068V19.7595C26.4995 21.218 27.1039 21.8574 27.6732 22.6458C27.8747 22.9261 27.9185 23.2634 27.6644 23.4735C27.0294 24.0034 25.8994 24.9889 25.2775 25.5408L25.2688 25.532" fill="#373737"/>
</g>
<defs>
<clipPath id="clip0_247_1500">
<rect width="24" height="24" fill="white" transform="translate(8 8)"/>
</clipPath>
</defs>
</svg>
