<svg width="31" height="31" viewBox="0 0 31 31" fill="none" xmlns="http://www.w3.org/2000/svg">
<circle cx="15.773" cy="15.2271" r="15" transform="rotate(-180 15.773 15.2271)" fill="#1A1A1A"/>
<path d="M23.559 20.2711C23.559 21.4824 22.5807 22.4491 21.381 22.4491H11.1839C9.97725 22.4491 9.00005 21.4824 9.00005 20.2711V10.074C9.00005 8.8685 9.97783 7.89014 11.1839 7.89014H21.381C22.5807 7.89014 23.559 8.86804 23.559 10.074V20.2711Z" fill="#FF6600"/>
<path d="M14.6604 10.5371C12.9974 10.5371 11.6489 11.8762 11.6477 13.5288V16.8114C11.6477 18.464 12.9974 19.8019 14.6604 19.8019H17.9034C19.5676 19.8019 20.9125 18.464 20.9125 16.8114V14.6908C20.9125 14.3606 20.6462 14.0925 20.3136 14.0925H19.805H19.7942C19.476 14.0925 19.2169 13.846 19.1952 13.536L19.1916 13.5288C19.1916 11.8762 17.8431 10.5371 16.1789 10.5371H14.6604ZM14.5857 12.964H16.2921C16.6115 12.964 16.8718 13.2213 16.8718 13.5396C16.8718 13.8567 16.6115 14.1152 16.2921 14.1152H14.5857C14.2664 14.1152 14.0061 13.8567 14.0061 13.5396C14.0061 13.2213 14.2664 12.964 14.5857 12.964ZM14.5821 16.3327H18.0058C18.3083 16.3327 18.5553 16.5744 18.5553 16.8748C18.5553 17.1752 18.3083 17.4217 18.0058 17.4217H14.5821C14.2796 17.4217 14.0362 17.1752 14.0362 16.8748C14.0362 16.5744 14.2796 16.3327 14.5821 16.3327Z" fill="white"/>
</svg>
