<svg width="30" height="30" viewBox="0 0 30 30" fill="none" xmlns="http://www.w3.org/2000/svg">
<circle cx="15" cy="15" r="15" fill="#1A1A1A"/>
<path d="M19.5423 12.0798V9.8809C19.8329 9.7451 20.0789 9.52956 20.2518 9.25937C20.4246 8.98919 20.5171 8.67546 20.5186 8.35473V8.30423C20.5186 7.36907 19.7605 6.61097 18.8254 6.61097H18.7749C18.3258 6.61097 17.8951 6.78937 17.5776 7.10691C17.26 7.42446 17.0816 7.85515 17.0816 8.30423V8.35473C17.0831 8.67546 17.1756 8.98919 17.3485 9.25937C17.5213 9.52956 17.7673 9.7451 18.0579 9.8809V12.0798C17.2228 12.2076 16.4363 12.5539 15.778 13.0835L9.74749 8.38652C9.7905 8.23129 9.81295 8.07169 9.81544 7.91146C9.81618 7.5341 9.70498 7.16499 9.49592 6.85083C9.28686 6.53667 8.98932 6.29157 8.64094 6.14653C8.29257 6.00149 7.90899 5.96304 7.53875 6.03602C7.16852 6.10901 6.82824 6.29016 6.56097 6.55656C6.29369 6.82296 6.11143 7.16264 6.03724 7.53264C5.96304 7.90264 6.00025 8.28633 6.14415 8.63518C6.28805 8.98403 6.53217 9.28237 6.84564 9.49246C7.15912 9.70255 7.52786 9.81495 7.90523 9.81544C8.23537 9.81389 8.55933 9.72575 8.84475 9.55983L14.783 14.1808C14.2495 14.9867 13.9712 15.9346 13.9844 16.9009C13.9975 17.8673 14.3014 18.8073 14.8566 19.5984L13.0505 21.4052C12.9045 21.3585 12.7524 21.3337 12.5991 21.3316C12.2893 21.3318 11.9866 21.4239 11.7291 21.5962C11.4717 21.7684 11.2711 22.0131 11.1527 22.2993C11.0342 22.5856 11.0033 22.9005 11.0638 23.2043C11.1243 23.508 11.2735 23.7871 11.4925 24.0061C11.7115 24.2252 11.9906 24.3743 12.2944 24.4348C12.5982 24.4953 12.9131 24.4644 13.1993 24.346C13.4855 24.2276 13.7302 24.0269 13.9025 23.7695C14.0747 23.512 14.1668 23.2093 14.167 22.8995C14.165 22.7463 14.1402 22.5942 14.0935 22.4482L15.8802 20.6608C16.4629 21.1093 17.1405 21.4186 17.8611 21.5648C18.5818 21.7111 19.3263 21.6904 20.0377 21.5045C20.7492 21.3185 21.4086 20.9722 21.9655 20.492C22.5224 20.0118 22.962 19.4106 23.2506 18.7343C23.5392 18.058 23.6692 17.3245 23.6306 16.5902C23.592 15.8559 23.3858 15.1402 23.0279 14.4979C22.67 13.8556 22.1698 13.3037 21.5656 12.8845C20.9614 12.4654 20.2693 12.1901 19.5423 12.0798ZM18.8017 19.3117C18.4715 19.3207 18.1428 19.2635 17.835 19.1435C17.5273 19.0234 17.2468 18.8428 17.01 18.6125C16.7732 18.3821 16.585 18.1066 16.4565 17.8023C16.328 17.498 16.2618 17.171 16.2618 16.8407C16.2618 16.5103 16.328 16.1833 16.4565 15.879C16.585 15.5747 16.7732 15.2992 17.01 15.0689C17.2468 14.8385 17.5273 14.658 17.835 14.5379C18.1428 14.4178 18.4715 14.3606 18.8017 14.3697C19.4417 14.3921 20.048 14.662 20.493 15.1226C20.9379 15.5831 21.1868 16.1984 21.1871 16.8388C21.1874 17.4792 20.9392 18.0948 20.4947 18.5558C20.0502 19.0168 19.4442 19.2874 18.8042 19.3104" fill="#FF7A59"/>
</svg>
