<svg width="31" height="31" viewBox="0 0 31 31" fill="none" xmlns="http://www.w3.org/2000/svg">
<circle cx="15.2139" cy="15.2139" r="15" transform="rotate(90 15.2139 15.2139)" fill="#1A1A1A"/>
<path d="M3.37892 18.9256C3.82455 18.9256 4.18581 18.5549 4.18581 18.0976C4.18581 17.6403 3.82455 17.2695 3.37892 17.2695C2.93328 17.2695 2.57202 17.6403 2.57202 18.0976C2.57202 18.5549 2.93328 18.9256 3.37892 18.9256Z" fill="white"/>
<path d="M6.04798 16.6559C6.58333 16.6559 6.99454 16.2896 7.14195 15.9234L7.84023 16.3852C7.48333 17.0301 6.84712 17.4839 6.00143 17.4839C4.87643 17.4839 3.85229 16.5683 3.85229 15.2307C3.85229 13.9011 4.87643 12.9775 6.00143 12.9775C6.85488 12.9775 7.48333 13.4393 7.83247 14.0842L7.13419 14.546C6.99454 14.1798 6.59109 13.8135 6.04798 13.8135C5.19454 13.8135 4.72902 14.4584 4.72902 15.2387C4.72902 16.0189 5.19454 16.6559 6.04798 16.6559Z" fill="white"/>
<path d="M8.86436 15.4616C8.86436 16.1065 9.31436 16.6559 10.0747 16.6559C10.61 16.6559 10.9825 16.3772 11.1144 16.011L11.8669 16.3772C11.51 17.0221 10.8816 17.4839 10.0281 17.4839C8.91091 17.4839 7.96436 16.5683 7.96436 15.2307C7.96436 13.9011 8.8566 12.9775 10.0281 12.9775C11.1066 12.9775 11.9988 13.8533 11.9988 15.183L11.9057 15.4616H8.86436ZM8.91091 14.6575H11.06C11.0135 14.1798 10.5635 13.8135 10.0281 13.8135C9.3997 13.8135 9.0428 14.1798 8.91091 14.6575Z" fill="white"/>
<path d="M12.4954 13.0731H13.3023L13.3954 13.4393L13.4419 13.4871L13.4885 13.4393C13.6669 13.1607 14.1169 12.9775 14.4738 12.9775C15.5523 12.9775 16.1729 13.71 16.1729 14.7212V17.3884H15.2807V14.7291C15.2574 14.14 14.9781 13.8135 14.3885 13.8135C13.8609 13.8135 13.4186 14.2514 13.4031 14.7849V17.3963H12.5109V13.0731H12.4954Z" fill="white"/>
<path d="M16.3903 13.0734H17.205V12.1578L17.911 11.2422H18.0817V13.0814H18.9895V13.9014H18.0817V16.1068C18.0817 16.3855 18.2679 16.5686 18.5395 16.5686L19.0748 16.4731V17.3011L18.5783 17.3966C17.686 17.3966 17.1972 16.9349 17.1972 16.1068V13.9014H16.3826V13.0734H16.3903Z" fill="white"/>
<path d="M19.6179 13.0729H20.4248L20.5179 13.5347L20.5645 13.5825L20.611 13.5347C20.8826 13.1685 21.2395 12.9854 21.5964 12.9854C21.7748 12.9854 21.8679 12.9854 22.0464 13.0809V13.901H21.511C20.9834 13.901 20.5412 14.3389 20.5257 14.8723V17.3882H19.6334V13.0729H19.6179Z" fill="white"/>
<path d="M26.2438 17.3962H25.4369L25.3438 17.0299L25.2972 16.9822L25.2507 17.0299C24.9791 17.3086 24.5369 17.4917 24.0869 17.4917C22.9231 17.4917 21.9377 16.5761 21.9377 15.2385C21.9377 13.9089 22.9231 12.9854 24.0869 12.9854C24.5369 12.9854 24.9791 13.1685 25.2507 13.4471L25.2972 13.4949L25.3438 13.4471L25.4369 13.0809H26.2438V17.3962ZM24.1412 13.8134C23.2877 13.8134 22.83 14.4583 22.83 15.2385C22.83 16.0188 23.2877 16.6637 24.1412 16.6637C24.9015 16.6637 25.4369 16.0188 25.4369 15.2385C25.4369 14.4503 24.9015 13.8134 24.1412 13.8134Z" fill="white"/>
</svg>
