<svg width="51" height="50" viewBox="0 0 51 50" fill="none" xmlns="http://www.w3.org/2000/svg">
<ellipse cx="25.8986" cy="25" rx="25.0002" ry="25" fill="#181818"/>
<path fill-rule="evenodd" clip-rule="evenodd" d="M35.9909 27.2478C35.825 27.2111 35.6914 27.169 35.5633 27.1165C35.4776 27.0744 35.4029 27.0323 35.3389 26.9748C35.2956 26.9386 35.2734 26.8834 35.2799 26.8277C35.3439 26.161 35.2744 25.5677 35.3333 24.9114C35.6061 22.2229 37.3272 23.0738 38.8722 22.6379C39.7542 22.3912 40.6416 21.9079 40.9679 20.9578C41.0213 20.8003 40.9734 20.6324 40.861 20.5116C39.8652 19.3954 38.7418 18.3943 37.5147 17.5293C33.3704 14.696 28.2856 13.5024 23.2846 14.19C23.1588 14.2044 23.0634 14.3108 23.0634 14.4353C23.0634 14.4819 23.0772 14.5281 23.103 14.5683C23.7062 15.4908 24.5117 16.2697 25.4604 16.8472C25.6314 16.9522 25.5618 17.1781 25.3641 17.1306C24.7928 17.007 24.2518 16.7753 23.7712 16.448C23.7173 16.4132 23.6486 16.4073 23.5896 16.4322L22.686 16.7893C22.5934 16.826 22.533 16.9147 22.533 17.0129C22.533 17.0849 22.5658 17.1532 22.622 17.1989C25.0715 19.2841 28.6334 19.5801 31.4046 17.929C31.5756 17.824 31.8484 18.034 31.7949 18.2232C31.7042 18.5223 31.6023 18.9374 31.4954 19.4991C30.8005 22.9276 28.8118 22.6651 26.3475 21.7988C21.4294 20.0449 18.6338 21.5417 16.1534 18.5803C15.9769 18.3703 15.6723 18.3019 15.4691 18.4753C14.9489 18.9102 14.6489 19.548 14.6489 20.2192C14.6489 20.9909 15.0461 21.7128 15.7041 22.1351C15.7843 22.1876 15.8857 22.1668 15.9447 22.0984C16.0995 21.9042 16.2225 21.7834 16.3829 21.6992C16.5488 21.615 16.634 21.8567 16.4898 21.9776C15.9608 22.4342 15.811 22.9805 15.4687 24.0623C14.9235 25.7478 15.1535 27.4754 12.6247 27.9267C11.2884 27.995 11.3096 28.8876 10.823 30.216C10.2562 31.8227 9.51848 32.5261 8.15039 33.9333C7.95778 34.1224 7.94211 34.432 8.15039 34.6054C8.69551 35.0621 9.26228 35.0883 9.83412 34.8575C11.2561 34.2695 12.3519 32.4632 13.3836 31.2923C14.5328 29.9901 17.2911 30.5468 19.3762 29.2709C20.4987 28.5934 21.1779 27.7271 20.9636 26.4353C20.9263 26.2253 21.1719 26.0995 21.2576 26.2937C21.4235 26.6612 21.5354 27.05 21.5783 27.4487C21.5944 27.5591 21.6852 27.6379 21.7976 27.6325C24.0536 27.5066 26.9668 29.948 29.6933 30.6097C29.8591 30.6518 29.9767 30.4626 29.8859 30.321C29.5513 29.8249 29.3103 29.2736 29.1749 28.6934C29.1214 28.4888 29.4315 28.4309 29.5384 28.6201C30.3605 30.0825 31.8834 31.0397 33.5796 31.1615C34.2426 31.214 34.9693 31.1352 35.7287 30.9094C36.6374 30.6414 37.4769 30.2952 38.4764 30.4839C39.2289 30.598 39.9035 31.0049 40.3472 31.6127C40.9513 32.4845 42.2341 32.7153 42.9184 31.8019C43.0092 31.6761 43.0253 31.5122 42.9613 31.3715C41.454 27.9058 37.6318 27.6696 35.9854 27.2496H35.9909V27.2478Z" fill="white"/>
</svg>
