<svg width="50" height="50" viewBox="0 0 50 50" fill="none" xmlns="http://www.w3.org/2000/svg">
<ellipse cx="25.0002" cy="25" rx="25.0002" ry="25" fill="#181818"/>
<g clip-path="url(#clip0_1264_237)">
<mask id="mask0_1264_237" style="mask-type:luminance" maskUnits="userSpaceOnUse" x="11" y="16" width="29" height="18">
<path d="M11 16H40V33.6727H11V16Z" fill="white"/>
</mask>
<g mask="url(#mask0_1264_237)">
<path fill-rule="evenodd" clip-rule="evenodd" d="M25.5 16C21.6333 16 19.2167 17.9636 18.25 21.8909C19.7 19.9273 21.3917 19.1909 23.325 19.6818C24.4281 19.9616 25.2164 20.7749 26.0891 21.6744C27.5107 23.14 29.1561 24.8364 32.75 24.8364C36.6167 24.8364 39.0333 22.8727 40 18.9455C38.55 20.9091 36.8583 21.6455 34.925 21.1545C33.8219 20.8747 33.0336 20.0615 32.1609 19.162C30.7393 17.6964 29.0939 16 25.5 16ZM18.25 24.8364C14.3833 24.8364 11.9667 26.8 11 30.7273C12.45 28.7636 14.1417 28.0273 16.075 28.5182C17.1781 28.7985 17.9664 29.6113 18.8391 30.5107C20.2607 31.9764 21.9061 33.6727 25.5 33.6727C29.3667 33.6727 31.7833 31.7091 32.75 27.7818C31.3 29.7455 29.6083 30.4818 27.675 29.9909C26.5719 29.7111 25.7836 28.8978 24.9109 27.9984C23.4893 26.5327 21.8439 24.8364 18.25 24.8364Z" fill="#38BDF8"/>
</g>
</g>
<defs>
<clipPath id="clip0_1264_237">
<rect width="29" height="18" fill="white" transform="translate(11 16)"/>
</clipPath>
</defs>
</svg>
