<svg width="30" height="30" viewBox="0 0 30 30" fill="none" xmlns="http://www.w3.org/2000/svg">
<circle cx="15" cy="15" r="15" fill="#1A1A1A"/>
<path d="M11.9265 18.5895C10.8909 17.6177 10.2696 16.2795 10.2696 14.7501C10.2696 13.2206 10.875 11.8824 11.8628 10.9106C12.723 10.0503 12.723 8.71206 11.8628 7.85176C11.0025 6.99147 9.66422 6.99147 8.80393 7.85176C7.09927 9.62015 6 12.0577 6 14.7501C6 17.4425 7.09927 19.88 8.86765 21.6483C9.72795 22.5086 11.0662 22.5086 11.9265 21.6483C12.7071 20.7881 12.7071 19.4498 11.9265 18.5895Z" fill="#FFD85F"/>
<path d="M11.9262 10.9105C12.898 9.87501 14.2522 9.26962 15.7657 9.26962C17.2792 9.26962 18.6333 9.87501 19.6052 10.8628C20.4654 11.7231 21.8037 11.7231 22.664 10.8628C23.5243 10.0025 23.5243 8.66422 22.664 7.80393C20.8956 6.09927 18.4581 5 15.7657 5C13.0733 5 10.6358 6.09927 8.86739 7.86765C8.00709 8.72795 8.00709 10.0662 8.86739 10.9265C9.72768 11.6912 11.0659 11.6912 11.9262 10.9105Z" fill="#3BB4E7"/>
<path d="M19.6052 18.5896C18.6333 19.6252 17.2792 20.2305 15.7657 20.2305C14.2522 20.2305 12.898 19.6252 11.9262 18.6374C11.0659 17.7771 9.72768 17.7771 8.86739 18.6374C8.00709 19.4977 8.00709 20.8359 8.86739 21.6962C10.6358 23.4009 13.0733 24.5002 15.7657 24.5002C18.4581 24.5002 20.8956 23.4009 22.664 21.6325C23.5243 20.7722 23.5243 19.434 22.664 18.5737C21.8037 17.809 20.4654 17.809 19.6052 18.5896Z" fill="#ED5C68"/>
<path d="M10.398 11.5162C11.577 11.5162 12.5328 10.5604 12.5328 9.38139C12.5328 8.20237 11.577 7.24658 10.398 7.24658C9.21897 7.24658 8.26318 8.20237 8.26318 9.38139C8.26318 10.5604 9.21897 11.5162 10.398 11.5162Z" fill="#308BC5"/>
<path d="M10.398 22.2535C11.577 22.2535 12.5328 21.2977 12.5328 20.1187C12.5328 18.9397 11.577 17.9839 10.398 17.9839C9.21897 17.9839 8.26318 18.9397 8.26318 20.1187C8.26318 21.2977 9.21897 22.2535 10.398 22.2535Z" fill="#D5465F"/>
</svg>
