<svg width="40" height="40" viewBox="0 0 40 40" fill="none" xmlns="http://www.w3.org/2000/svg">
<circle cx="20" cy="20" r="20" fill="white"/>
<g clip-path="url(#clip0_247_1478)">
<path d="M8.13791 16.8379C5.88083 16.8379 4 17.8083 4 20.7366C4 23.0564 5.26474 24.5172 8.19608 24.5172C11.6465 24.5172 11.8676 22.2134 11.8676 22.2134H10.1958C10.1958 22.2134 9.83739 23.4539 8.09414 23.4539C6.67432 23.4539 5.65316 22.4817 5.65316 21.1192H12.0426V20.264C12.0426 18.916 11.1983 16.8379 8.13791 16.8379ZM8.07952 17.9307C9.43103 17.9307 10.3524 18.7699 10.3524 20.0277H5.69009C5.69009 18.6924 6.89281 17.9307 8.07952 17.9307Z" fill="#E53238"/>
<path d="M12.0413 14.002V23.0462C12.0413 23.5596 12.0051 24.2805 12.0051 24.2805H13.5997C13.5997 24.2805 13.657 23.7628 13.657 23.2896C13.657 23.2896 14.4448 24.5389 16.5871 24.5389C18.8429 24.5389 20.3752 22.9514 20.3752 20.6771C20.3752 18.5613 18.9677 16.8596 16.5907 16.8596C14.3648 16.8596 13.6731 18.0779 13.6731 18.0779V14.002H12.0413ZM16.1791 17.9782C17.711 17.9782 18.6852 19.1307 18.6852 20.6771C18.6852 22.3354 17.5601 23.4203 16.1901 23.4203C14.5551 23.4203 13.6731 22.1262 13.6731 20.6918C13.6731 19.3553 14.4645 17.9782 16.1791 17.9782Z" fill="#0064D2"/>
<path d="M24.3382 16.8379C20.9427 16.8379 20.7249 18.7223 20.7249 19.0235H22.415C22.415 19.0235 22.5036 17.9234 24.2217 17.9234C25.3381 17.9234 26.2032 18.4414 26.2032 19.437V19.7915H24.2217C21.5911 19.7915 20.2004 20.5715 20.2004 22.1544C20.2004 23.7121 21.4854 24.5597 23.2219 24.5597C25.5885 24.5597 26.3508 23.2343 26.3508 23.2343C26.3508 23.7615 26.3908 24.281 26.3908 24.281H27.8932C27.8932 24.281 27.8351 23.637 27.8351 23.2251V19.6641C27.8351 17.3292 25.977 16.8379 24.3382 16.8379ZM26.2032 20.8547V21.3273C26.2032 21.9437 25.8279 23.4761 23.6188 23.4761C22.4092 23.4761 21.8905 22.8641 21.8905 22.1543C21.8905 20.8631 23.6371 20.8547 26.2032 20.8547Z" fill="#F5AF02"/>
<path d="M26.925 17.1328H28.8264L31.5551 22.674L34.2776 17.1328H36L31.0411 26.9979H29.2343L30.6652 24.2479L26.925 17.1328Z" fill="#86B817"/>
</g>
<defs>
<clipPath id="clip0_247_1478">
<rect width="32" height="13" fill="white" transform="translate(4 14)"/>
</clipPath>
</defs>
</svg>
