<svg width="64" height="64" viewBox="0 0 64 64" fill="none" xmlns="http://www.w3.org/2000/svg">
<circle cx="32" cy="32" r="32" fill="#1A1A1A"/>
<path fill-rule="evenodd" clip-rule="evenodd" d="M12.6001 45.9927V24.0259L18.1463 17H29.6761V23.0919H21.0419L18.6385 26.1362V29.0034H28.3572V35.089H18.6385V45.9927H12.6001Z" fill="white"/>
<path fill-rule="evenodd" clip-rule="evenodd" d="M45.498 45.9916L37.1793 36.0817H35.8035V46H29.7651V23.8833L35.1714 17H41.8472C44.1896 17 46.3195 17.6898 48.0087 19.0191C49.6726 20.3264 50.8507 22.2029 51.3271 24.5962C51.6847 26.3972 51.5774 28.257 50.9874 29.9375C50.4015 31.6054 49.3613 33.1003 47.8509 34.2105L47.8477 34.2052C46.9989 34.8384 46.0481 35.3123 45.0268 35.6236C44.9364 35.6509 44.8448 35.676 44.7523 35.7012L53.3908 45.9916H45.498ZM35.8035 29.9595H41.8546C42.3899 29.9595 42.878 29.8945 43.305 29.7655C43.6847 29.6481 44.0171 29.4877 44.2895 29.2833L44.3126 29.2602C44.787 28.9111 45.1162 28.4362 45.3024 27.9047C45.5327 27.2495 45.5727 26.5115 45.4297 25.7913C45.2572 24.9233 44.8669 24.2712 44.3284 23.8488C43.7194 23.3697 42.8611 23.1223 41.8472 23.1223H38.067L35.8035 26.0031V29.9595Z" fill="white"/>
</svg>
