<svg width="40" height="40" viewBox="0 0 40 40" fill="none" xmlns="http://www.w3.org/2000/svg">
<circle cx="20" cy="20" r="20" fill="#0051BA"/>
<path d="M18.7979 22.4798C18.926 22.6648 19.0656 22.8382 19.2285 22.9943H14.8351C14.8351 22.8208 14.6664 22.4682 14.4802 22.1908C14.294 21.9133 13.2872 20.3931 13.2872 20.3931V22.4798C13.2872 22.6532 13.2872 22.8208 13.3745 22.9943H9.71435C9.80164 22.8208 9.80164 22.6532 9.80164 22.4798V17.5202C9.80164 17.3468 9.80164 17.1792 9.71435 17.0058H13.3745C13.2872 17.1792 13.2872 17.3468 13.2872 17.5202V19.6879C13.2872 19.6879 14.4569 18.1734 14.7246 17.8208C14.9282 17.5549 15.1785 17.1791 15.1785 17.0058H18.9958C18.7339 17.1792 18.443 17.4913 18.2044 17.7803C17.9949 18.0347 16.8078 19.474 16.8078 19.474C16.8078 19.474 18.5652 22.1388 18.7979 22.4798ZM19.9501 17.5202V22.4798C19.9501 22.6532 19.9501 22.8208 19.8628 22.9943H26.9272V21.3295C26.7526 21.4162 26.5838 21.4162 26.4093 21.4162H23.4357V20.6301H26.2929V19.3699H23.4357V18.578H26.4093C26.5839 18.578 26.7526 18.578 26.9272 18.659V17H19.8628C19.9501 17.1792 19.9501 17.3468 19.9501 17.5202ZM36.7149 22.4798C36.773 22.6705 36.872 22.8439 37 22.9943H33.171C33.1885 22.8208 33.1245 22.6532 33.0547 22.4798C33.0547 22.4798 32.9965 22.341 32.915 22.1388L32.8801 22.052H30.6747L30.6397 22.1445C30.6397 22.1445 30.5757 22.3122 30.5175 22.4856C30.4594 22.659 30.3953 22.8266 30.4186 23H27.3985C27.5219 22.8484 27.6148 22.6736 27.672 22.4856L29.4817 17.526C29.5458 17.3526 29.6098 17.185 29.5865 17.0116H34.6898C34.6433 17.185 34.7364 17.3526 34.8004 17.526C34.9517 17.9017 36.5868 22.1445 36.7149 22.4798ZM32.3971 20.7861L31.8618 19.3988C31.8152 19.2717 31.7745 19.1387 31.7454 19.0058C31.7221 19.1397 31.687 19.2713 31.6406 19.3988C31.6232 19.4567 31.3962 20.0636 31.1343 20.7861H32.3971ZM7.98023 17.0058H4C4.08729 17.1792 4.08729 17.3468 4.08729 17.5202V22.4798C4.08729 22.6532 4.08729 22.8208 4 22.9943H7.98023C7.89294 22.8208 7.89294 22.6532 7.89294 22.4798V17.5202C7.89294 17.3468 7.89294 17.1792 7.98023 17.0058Z" fill="#FBD914"/>
</svg>
