<svg width="50" height="50" viewBox="0 0 50 50" fill="none" xmlns="http://www.w3.org/2000/svg">
<ellipse cx="25.0002" cy="25" rx="25.0002" ry="25" fill="#181818"/>
<path fill-rule="evenodd" clip-rule="evenodd" d="M35.7856 31.5076C35.996 34.2821 35.996 35.5844 35.996 37H29.6299C29.6299 36.6926 29.638 36.4095 29.638 36.1183C29.6542 35.2285 29.6704 34.2983 29.5329 32.4216C29.3468 29.6714 28.1658 29.0647 26.0061 29.0647H24.0971H16V24.0657H26.3215C29.0475 24.0657 30.4146 23.2326 30.4146 21.0162C30.4146 19.0667 29.0475 17.8938 26.3215 17.8938H16V13H27.454C33.6259 13 36.6997 15.9363 36.6997 20.636C36.6997 24.1466 34.5399 26.4358 31.6198 26.816C34.087 27.3094 35.5187 28.725 35.7856 31.5076Z" fill="white"/>
<path d="M16 36.9435V33.2145H22.73C23.8544 33.2145 24.0971 34.0557 24.0971 34.5572V36.9435H16Z" fill="white"/>
</svg>
