<svg width="50" height="50" viewBox="0 0 50 50" fill="none" xmlns="http://www.w3.org/2000/svg">
<ellipse cx="25.0002" cy="25" rx="25.0002" ry="25" fill="#181818"/>
<path d="M25.6267 27.6399C27.1335 27.6399 28.355 26.4184 28.355 24.9116C28.355 23.4048 27.1335 22.1833 25.6267 22.1833C24.1199 22.1833 22.8984 23.4048 22.8984 24.9116C22.8984 26.4184 24.1199 27.6399 25.6267 27.6399Z" fill="#00D8FF"/>
<path fill-rule="evenodd" clip-rule="evenodd" d="M25.6252 19.3651C29.2885 19.3651 32.6917 19.8908 35.2576 20.7741C38.3492 21.8385 40.25 23.4518 40.25 24.9126C40.25 26.4349 38.2355 28.1488 34.9155 29.2488C32.4056 30.0804 29.1026 30.5145 25.6252 30.5145C22.06 30.5145 18.6838 30.107 16.1456 29.2396C12.9342 28.142 11 26.4059 11 24.9126C11 23.4636 12.8149 21.8628 15.863 20.8001C18.4385 19.9021 21.9257 19.3651 25.6248 19.3651H25.6252Z" stroke="#00D8FF" stroke-width="1.51227"/>
<path fill-rule="evenodd" clip-rule="evenodd" d="M20.7943 22.1554C22.6245 18.982 24.7798 16.2966 26.827 14.5151C29.2934 12.3686 31.6406 11.528 32.906 12.2577C34.2248 13.0182 34.7031 15.6196 33.9974 19.045C33.4644 21.6348 32.1899 24.7128 30.4527 27.7252C28.6715 30.8137 26.632 33.5348 24.6128 35.2998C22.0576 37.5334 19.5874 38.3417 18.2938 37.5957C17.0385 36.8723 16.5585 34.4999 17.1607 31.3285C17.6695 28.6488 18.9463 25.3598 20.7937 22.1553L20.7943 22.1554Z" stroke="#00D8FF" stroke-width="1.51227"/>
<path fill-rule="evenodd" clip-rule="evenodd" d="M20.7991 27.7334C18.9638 24.5636 17.7142 21.3545 17.1927 18.6912C16.5648 15.4824 17.0087 13.029 18.273 12.2972C19.5905 11.5344 22.0831 12.4192 24.6983 14.7413C26.6756 16.4969 28.706 19.1378 30.4483 22.1474C32.2346 25.2329 33.5734 28.3589 34.0942 30.9898C34.7532 34.319 34.2198 36.8627 32.9274 37.6108C31.6734 38.3368 29.3787 37.5682 26.9318 35.4626C24.8644 33.6835 22.6525 30.9347 20.7991 27.7333V27.7334Z" stroke="#00D8FF" stroke-width="1.51227"/>
</svg>
