<svg width="30" height="30" viewBox="0 0 30 30" fill="none" xmlns="http://www.w3.org/2000/svg">
<circle cx="15" cy="15" r="15" fill="#1A1A1A"/>
<path fill-rule="evenodd" clip-rule="evenodd" d="M13.5567 8.54681C14.3171 7.75527 15.3754 7.26511 16.5445 7.26511C18.1033 7.26511 19.4543 8.13112 20.1818 9.42148C20.8275 9.13282 21.5269 8.98379 22.2342 8.98414C25.0401 8.98414 27.3177 11.2791 27.3177 14.1109C27.3177 16.9428 25.0401 19.2378 22.2342 19.2378C21.8913 19.2378 21.557 19.2033 21.2296 19.1382C20.5931 20.2726 19.3764 21.0434 17.9907 21.0434C17.4266 21.0445 16.8697 20.9165 16.3626 20.6693C15.7175 22.1848 14.2149 23.25 12.4656 23.25C10.6383 23.25 9.08811 22.0982 8.49056 20.4788C8.22461 20.5349 7.95352 20.5631 7.68171 20.5629C5.50801 20.5629 3.75 18.7789 3.75 16.5879C3.75 15.1157 4.54154 13.834 5.71585 13.1412C5.46672 12.5673 5.33848 11.9482 5.33914 11.3226C5.33914 8.79379 7.39159 6.75 9.92035 6.75C11.4012 6.75 12.7262 7.4558 13.5576 8.55131" fill="#00A1E0"/>
<path fill-rule="evenodd" clip-rule="evenodd" d="M7.18309 15.302C7.16828 15.3406 7.18837 15.3486 7.19314 15.3555C7.23739 15.3875 7.28234 15.4107 7.32737 15.4368C7.56812 15.5641 7.79502 15.6013 8.0323 15.6013C8.51554 15.6013 8.81605 15.3441 8.81605 14.9302V14.922C8.81605 14.5393 8.47657 14.3998 8.15961 14.3002L8.11813 14.2868C7.87824 14.2091 7.67126 14.1413 7.67126 13.9837V13.9757C7.67126 13.8406 7.7925 13.741 7.97956 13.741C8.18741 13.741 8.43509 13.8102 8.59357 13.8977C8.59357 13.8977 8.64051 13.928 8.65757 13.8827C8.66683 13.8582 8.74763 13.642 8.75629 13.6177C8.76547 13.5924 8.74936 13.5732 8.73282 13.5634C8.55096 13.4525 8.29982 13.3772 8.04001 13.3772L7.99177 13.3773C7.54924 13.3773 7.24007 13.6449 7.24007 14.0277V14.0359C7.24007 14.4395 7.58128 14.5711 7.89998 14.6621L7.95125 14.678C8.18334 14.7494 8.38425 14.8114 8.38425 14.9742V14.9823C8.38425 15.1321 8.25348 15.2439 8.04391 15.2439C7.96242 15.2439 7.7027 15.2425 7.42124 15.0646C7.38721 15.0448 7.36781 15.0305 7.34157 15.0144C7.32771 15.006 7.29307 14.9909 7.27801 15.0363L7.18274 15.3013M14.2581 15.3013C14.2433 15.3399 14.2634 15.3479 14.2683 15.3548C14.3124 15.3868 14.3575 15.41 14.4025 15.4361C14.6433 15.5634 14.8702 15.6006 15.1075 15.6006C15.5907 15.6006 15.8912 15.3434 15.8912 14.9295V14.9213C15.8912 14.5386 15.5526 14.3991 15.2348 14.2995L15.1933 14.2861C14.9534 14.2084 14.7464 14.1406 14.7464 13.983V13.975C14.7464 13.8399 14.8677 13.7403 15.0547 13.7403C15.2626 13.7403 15.5094 13.8095 15.6687 13.897C15.6687 13.897 15.7157 13.9273 15.7328 13.882C15.742 13.8575 15.8229 13.6413 15.8307 13.617C15.8399 13.5917 15.8237 13.5725 15.8073 13.5627C15.6254 13.4518 15.3743 13.3765 15.1145 13.3765L15.0662 13.3766C14.6236 13.3766 14.3145 13.6442 14.3145 14.027V14.0352C14.3145 14.4388 14.6557 14.5704 14.9744 14.6614L15.0255 14.6773C15.2585 14.7487 15.4586 14.8107 15.4586 14.9735V14.9816C15.4586 15.1314 15.3278 15.2432 15.1182 15.2432C15.0365 15.2432 14.7761 15.2418 14.4955 15.0639C14.4615 15.0441 14.4416 15.0304 14.4158 15.0138C14.407 15.0082 14.3662 14.9923 14.3523 15.0356L14.257 15.3006M19.0894 14.49C19.0894 14.7238 19.0458 14.9083 18.9604 15.039C18.8752 15.1681 18.7465 15.2313 18.5672 15.2313C18.3879 15.2313 18.2598 15.1686 18.1758 15.0399C18.0911 14.91 18.0485 14.7247 18.0485 14.4909C18.0485 14.257 18.0914 14.0734 18.1758 13.9444C18.2596 13.8162 18.3871 13.7547 18.5672 13.7547C18.7473 13.7547 18.8755 13.8168 18.9604 13.9444C19.0463 14.0734 19.0894 14.257 19.0894 14.4909M19.493 14.057C19.4532 13.9227 19.3916 13.805 19.3094 13.7062C19.227 13.6075 19.1232 13.5278 18.9993 13.4707C18.8764 13.4131 18.7309 13.3841 18.5663 13.3841C18.4018 13.3841 18.2572 13.4133 18.1333 13.4707C18.0103 13.5282 17.9056 13.6075 17.8233 13.7062C17.7412 13.805 17.6795 13.9227 17.6397 14.057C17.6003 14.1903 17.5803 14.3358 17.5803 14.4909C17.5803 14.6459 17.6003 14.7914 17.6397 14.9247C17.6793 15.059 17.741 15.1767 17.8233 15.2755C17.9056 15.3742 18.0103 15.453 18.1333 15.5093C18.2572 15.5654 18.4027 15.594 18.5663 15.594C18.73 15.594 18.8755 15.5654 18.9985 15.5093C19.1214 15.4532 19.2262 15.3742 19.3085 15.2755C19.3907 15.1767 19.4523 15.059 19.4921 14.9247C19.5314 14.7914 19.5514 14.6459 19.5514 14.4909C19.5514 14.3367 19.5314 14.1903 19.4921 14.057M22.8089 15.1655C22.7957 15.1262 22.7574 15.1411 22.7574 15.1411C22.6988 15.1635 22.6362 15.1843 22.5695 15.1947C22.5023 15.2052 22.4275 15.2105 22.3486 15.2105C22.1538 15.2105 21.9979 15.1524 21.8871 15.0373C21.7753 14.9221 21.713 14.7368 21.7139 14.4857C21.7145 14.257 21.7697 14.0856 21.8689 13.9539C21.9667 13.824 22.1174 13.7565 22.3166 13.7565C22.4829 13.7565 22.6102 13.7758 22.7436 13.8175C22.7436 13.8175 22.7752 13.8313 22.7903 13.7896C22.8257 13.6918 22.8519 13.6216 22.8899 13.5142C22.9006 13.4835 22.8743 13.4705 22.8647 13.4668C22.8124 13.4464 22.6889 13.4128 22.5954 13.3987C22.5079 13.3854 22.4066 13.3785 22.2923 13.3785C22.1225 13.3785 21.9718 13.4075 21.8428 13.465C21.7138 13.5224 21.6047 13.6018 21.5181 13.7005C21.4315 13.7993 21.3656 13.917 21.3215 14.0513C21.2777 14.1846 21.2557 14.331 21.2557 14.486C21.2557 14.8203 21.3457 15.0913 21.5241 15.2897C21.7025 15.4888 21.971 15.5893 22.3208 15.5893C22.5278 15.5893 22.74 15.5475 22.8924 15.4871C22.8924 15.4871 22.9215 15.4731 22.9089 15.4391L22.8093 15.1655M23.5151 14.2648C23.5344 14.1349 23.57 14.0267 23.6259 13.9427C23.7097 13.8145 23.8372 13.7443 24.0165 13.7443C24.1958 13.7443 24.3144 13.8148 24.3993 13.9427C24.4556 14.0271 24.4802 14.1392 24.4894 14.2648L23.5108 14.2646L23.5151 14.2648ZM24.8747 13.979C24.8403 13.85 24.7552 13.7192 24.6998 13.6595C24.6115 13.5651 24.5257 13.4984 24.44 13.462C24.3162 13.4094 24.1831 13.3824 24.0485 13.3826C23.8779 13.3826 23.7229 13.4115 23.5974 13.4701C23.4718 13.5291 23.3661 13.6095 23.283 13.71C23.1999 13.8104 23.1375 13.9291 23.0977 14.065C23.0578 14.1993 23.0377 14.3465 23.0377 14.5006C23.0377 14.6583 23.0586 14.8046 23.0997 14.9371C23.1411 15.0705 23.2079 15.1874 23.298 15.2844C23.388 15.3822 23.5032 15.4584 23.6418 15.5121C23.7795 15.5654 23.9466 15.593 24.138 15.5924C24.5329 15.5911 24.7408 15.5032 24.8256 15.4556C24.8408 15.4471 24.8551 15.4325 24.8372 15.3903L24.748 15.14C24.7343 15.1027 24.6966 15.1162 24.6966 15.1162C24.5987 15.1527 24.4602 15.2184 24.1354 15.2175C23.9232 15.2172 23.7665 15.1546 23.6678 15.0564C23.5673 14.956 23.5171 14.8096 23.5093 14.6018L24.8776 14.6028C24.8776 14.6028 24.9136 14.6025 24.9173 14.5673C24.9188 14.5528 24.9642 14.2867 24.8765 13.9793L24.8747 13.979ZM12.5773 14.2648C12.5966 14.1349 12.6323 14.0267 12.6882 13.9427C12.772 13.8145 12.8995 13.7443 13.0787 13.7443C13.258 13.7443 13.3767 13.8148 13.4615 13.9427C13.5177 14.0271 13.5423 14.1392 13.5516 14.2648L12.573 14.2646L12.5773 14.2648ZM13.937 13.979C13.9027 13.85 13.8175 13.7192 13.762 13.6595C13.6737 13.5651 13.588 13.4984 13.5022 13.462C13.3784 13.4094 13.2453 13.3824 13.1108 13.3826C12.9402 13.3826 12.7852 13.4115 12.6596 13.4701C12.534 13.5291 12.4284 13.6095 12.3452 13.71C12.2624 13.8104 12.1997 13.9291 12.1599 14.065C12.1202 14.1993 12.1001 14.3465 12.1001 14.5006C12.1001 14.6583 12.1208 14.8046 12.1622 14.9371C12.2035 15.0705 12.2704 15.1874 12.3596 15.2844C12.4497 15.3822 12.5649 15.4584 12.7034 15.5121C12.8411 15.5654 13.0074 15.593 13.1996 15.5924C13.5945 15.5911 13.8024 15.5032 13.8873 15.4556C13.9023 15.4471 13.9167 15.4325 13.8988 15.3903L13.8096 15.14C13.7958 15.1027 13.758 15.1162 13.758 15.1162C13.6602 15.1527 13.5216 15.2184 13.1969 15.2175C12.9856 15.2172 12.8279 15.1546 12.7292 15.0564C12.6288 14.956 12.5785 14.8096 12.5707 14.6018L13.939 14.6028C13.939 14.6028 13.9751 14.6025 13.9788 14.5673C13.9803 14.5528 14.0256 14.2867 13.9379 13.9793L13.937 13.979ZM9.62421 15.1568C9.57061 15.114 9.56316 15.1036 9.5454 15.0758C9.5183 15.0339 9.50444 14.9744 9.50444 14.8982C9.50444 14.7787 9.54428 14.6921 9.62655 14.6341C9.62568 14.6343 9.74433 14.5319 10.0232 14.5354C10.1473 14.5376 10.2711 14.5481 10.3938 14.567V15.1879H10.394C10.394 15.1879 10.2208 15.2252 10.0251 15.237C9.7471 15.2537 9.62413 15.157 9.62499 15.1572L9.62421 15.1568ZM10.1681 14.1955C10.1126 14.1915 10.0408 14.1895 9.95503 14.1895C9.83812 14.1895 9.72467 14.204 9.61902 14.2326C9.5125 14.2614 9.41637 14.3059 9.3341 14.3651C9.2516 14.424 9.18374 14.501 9.13578 14.5903C9.08737 14.6803 9.06269 14.786 9.06269 14.9055C9.06269 15.0267 9.08373 15.1315 9.1253 15.2173C9.16603 15.3023 9.22735 15.3758 9.3037 15.4312C9.37965 15.4864 9.47344 15.5273 9.58169 15.5515C9.68908 15.5761 9.81032 15.5884 9.94368 15.5884C10.084 15.5884 10.2234 15.5767 10.3585 15.5539C10.4736 15.534 10.5882 15.5117 10.7023 15.487C10.7479 15.4765 10.7984 15.4628 10.7984 15.4628C10.8322 15.4542 10.8296 15.4181 10.8296 15.4181L10.8288 14.171C10.8288 13.8974 10.7557 13.6939 10.6115 13.5683C10.4677 13.4427 10.2573 13.3795 9.98447 13.3795C9.88228 13.3795 9.71688 13.3934 9.61815 13.4132C9.61815 13.4132 9.32024 13.471 9.19727 13.5673C9.19727 13.5673 9.17025 13.584 9.18497 13.6216L9.28196 13.8814C9.294 13.9151 9.32682 13.9036 9.32682 13.9036C9.32682 13.9036 9.33713 13.8995 9.34925 13.8923C9.61165 13.7495 9.9442 13.7538 9.9442 13.7538C10.0914 13.7538 10.2057 13.7837 10.2819 13.8421C10.3565 13.8994 10.3945 13.9859 10.3945 14.1677V14.2255C10.2776 14.2085 10.1694 14.1987 10.1694 14.1987L10.1681 14.1955ZM21.1665 13.4915C21.1684 13.4869 21.1695 13.482 21.1695 13.477C21.1695 13.472 21.1685 13.4671 21.1666 13.4625C21.1647 13.4579 21.1619 13.4538 21.1583 13.4503C21.1548 13.4468 21.1506 13.4441 21.1459 13.4423C21.1226 13.4334 21.0065 13.4089 20.9173 13.4034C20.7458 13.3927 20.6506 13.4216 20.5648 13.46C20.4801 13.4982 20.3864 13.5596 20.3345 13.6306L20.3343 13.4644C20.3343 13.4415 20.3181 13.4231 20.2951 13.4231H19.9452C19.9225 13.4231 19.9061 13.4415 19.9061 13.4644V15.4995C19.9061 15.5105 19.9105 15.521 19.9182 15.5288C19.926 15.5366 19.9365 15.541 19.9475 15.541H20.3061C20.3171 15.541 20.3276 15.5366 20.3353 15.5288C20.3431 15.521 20.3475 15.5105 20.3475 15.4995V14.4776C20.3475 14.3408 20.3625 14.2048 20.3926 14.1191C20.4222 14.0343 20.4625 13.9667 20.5121 13.9182C20.5594 13.8713 20.6174 13.8366 20.681 13.8168C20.7407 13.7997 20.8025 13.791 20.8646 13.791C20.936 13.791 21.0144 13.8094 21.0144 13.8094C21.0407 13.8123 21.0553 13.7962 21.0643 13.7725C21.0877 13.7101 21.1543 13.5231 21.1673 13.4858" fill="#FFFFFE"/>
<path fill-rule="evenodd" clip-rule="evenodd" d="M17.8179 12.5519C17.7736 12.5385 17.7285 12.5278 17.6829 12.5198C17.6216 12.5096 17.5595 12.5048 17.4973 12.5054C17.2502 12.5054 17.0554 12.5752 16.9187 12.7131C16.7829 12.8499 16.6905 13.0584 16.6442 13.3327L16.6274 13.4252H16.3173C16.3173 13.4252 16.2795 13.4237 16.2715 13.465L16.2206 13.749C16.217 13.7762 16.2287 13.7932 16.2651 13.793H16.567L16.2607 15.5028C16.2367 15.6405 16.2092 15.7538 16.1788 15.8396C16.1489 15.9243 16.1196 15.9878 16.0836 16.0338C16.0487 16.0784 16.0156 16.1113 15.9585 16.1304C15.9114 16.1462 15.8572 16.1535 15.7978 16.1535C15.7647 16.1535 15.7207 16.148 15.6882 16.1415C15.6558 16.1351 15.6389 16.1278 15.6145 16.1176C15.6145 16.1176 15.5791 16.1041 15.5652 16.1396C15.5538 16.1686 15.4734 16.3899 15.4639 16.4172C15.4542 16.4442 15.4678 16.4655 15.4849 16.4717C15.5251 16.4861 15.555 16.4952 15.6097 16.5082C15.6857 16.5261 15.7498 16.5272 15.8098 16.5272C15.9356 16.5272 16.0502 16.5095 16.1452 16.4752C16.2408 16.4407 16.324 16.3805 16.3976 16.299C16.4772 16.2111 16.5272 16.1191 16.5751 15.9935C16.6225 15.869 16.6629 15.7145 16.6952 15.5345L17.0029 13.793H17.4529C17.4529 13.793 17.4909 13.7944 17.4987 13.7533L17.5497 13.4692C17.5532 13.442 17.5416 13.4251 17.5051 13.4252H17.0683C17.0705 13.4154 17.0903 13.2617 17.1405 13.1171C17.1619 13.0554 17.2021 13.0056 17.2362 12.9713C17.2681 12.9388 17.3073 12.9144 17.3506 12.9002C17.3981 12.8855 17.4476 12.8784 17.4973 12.879C17.5384 12.879 17.5788 12.884 17.6095 12.8904C17.6518 12.8994 17.6683 12.9041 17.6794 12.9074C17.7239 12.921 17.7299 12.9079 17.7386 12.8863L17.8431 12.5995C17.8538 12.5687 17.8276 12.5557 17.8179 12.5519ZM11.7148 15.5064C11.7148 15.5293 11.6985 15.5479 11.6757 15.5479H11.3134C11.2905 15.5479 11.2742 15.5293 11.2742 15.5064V12.5907C11.2742 12.568 11.2905 12.5495 11.3134 12.5495H11.6757C11.6985 12.5495 11.7148 12.568 11.7148 12.5907V15.5064Z" fill="#FFFFFE"/>
</svg>
