<svg width="30" height="30" viewBox="0 0 30 30" fill="none" xmlns="http://www.w3.org/2000/svg">
<circle cx="15" cy="15" r="15" fill="#1A1A1A"/>
<path d="M9.44691 8.31055C9.44691 10.7224 10.9448 12.1695 13.9406 12.9311L17.114 13.6674C19.9575 14.3275 21.6839 15.9523 21.6839 18.5926C21.7093 19.7351 21.3284 20.8522 20.643 21.7661C20.643 19.1258 19.272 17.7041 15.997 16.8409L12.8743 16.13C10.3609 15.5715 8.4314 14.2259 8.4314 11.3571C8.4314 10.2654 8.78683 9.17373 9.44691 8.31055Z" fill="#F04939"/>
<path d="M18.6883 17.9323C20.0339 18.7955 20.6432 20.0141 20.6432 21.7659C19.5007 23.213 17.5458 24 15.2355 24C11.3512 24 8.58392 22.0705 8 18.7447H11.732C12.2144 20.268 13.4838 20.9788 15.2102 20.9788C17.2666 21.0042 18.6629 19.8872 18.6883 17.9323ZM9.44711 8.28491C10.5388 6.86319 12.4175 6 14.7024 6C18.6883 6 20.9732 8.10719 21.5571 11.0522H17.952C17.5458 9.88434 16.5557 8.97038 14.7532 8.97038C12.7983 8.99577 11.4781 10.1128 11.402 11.89C10.0937 11.1685 9.39633 9.7574 9.44711 8.28491Z" fill="#F37368"/>
</svg>
