<svg width="31" height="31" viewBox="0 0 31 31" fill="none" xmlns="http://www.w3.org/2000/svg">
<circle cx="15.2271" cy="15.2285" r="15" transform="rotate(-180 15.2271 15.2285)" fill="white"/>
<path d="M17.5647 10.0123C17.5647 9.93509 17.4889 9.89649 17.451 9.89649C17.4131 9.89649 16.3515 9.8193 16.3515 9.8193L15.5554 9.00878C15.4796 8.93159 15.3279 8.97018 15.2521 8.97018C15.2521 8.97018 15.1004 9.00878 14.835 9.08597C14.6076 8.39124 14.1526 7.7351 13.4323 7.7351H13.3565C13.129 7.46493 12.8636 7.31055 12.674 7.31055C10.9301 7.31055 10.096 9.51053 9.83062 10.6684L8.61743 11.0544C8.2383 11.1702 8.2383 11.1702 8.20039 11.5561L7.17676 19.5841L14.873 21.0508L19.0433 20.1245C19.0054 20.1245 17.5647 10.0895 17.5647 10.0123ZM14.418 9.24035C14.2285 9.31755 14.001 9.35614 13.7735 9.43334V9.27895C13.7735 8.93158 13.7356 8.54562 13.6219 8.19826C14.001 8.27545 14.2664 8.70001 14.418 9.24035ZM13.1669 8.31405C13.2806 8.70001 13.3565 9.08597 13.3565 9.51053V9.54912L12.0295 9.97368C12.257 8.97018 12.7499 8.50703 13.1669 8.31405ZM12.6361 7.8123C12.712 7.8123 12.7878 7.85089 12.8636 7.88949C12.2949 8.15966 11.7262 8.8158 11.4609 10.1667L10.3993 10.514C10.7026 9.47193 11.385 7.8123 12.6361 7.8123Z" fill="#95BF47"/>
<path d="M17.3735 10.0945C17.3338 10.0945 16.2209 10.0186 16.2209 10.0186L15.3863 9.22248C15.3466 9.18457 15.3068 9.18457 15.2671 9.18457L14.6709 21.0511L19.0428 20.1412L17.4928 10.2082C17.453 10.1324 17.4133 10.0945 17.3735 10.0945Z" fill="#5E8E3E"/>
<path d="M13.4219 11.9104L12.8988 13.4286C12.5999 13.2768 12.2636 13.2009 11.9273 13.2009C11.1426 13.2009 11.1052 13.6943 11.1052 13.8461C11.1052 14.5293 12.8988 14.795 12.8988 16.4272C12.8988 17.7177 12.0767 18.5527 11.0305 18.5527C9.72265 18.5527 9.05005 17.7177 9.05005 17.7177L9.38635 16.541C9.38635 16.541 10.0589 17.1483 10.6568 17.1483C10.9557 17.1483 11.1799 16.9206 11.1799 16.6549C11.1799 16.6549 11.1799 16.6549 11.1799 16.617C11.1799 15.706 9.72265 15.668 9.72265 14.1498C9.72265 12.8972 10.6194 11.6826 12.413 11.6826C13.0856 11.7206 13.4219 11.9104 13.4219 11.9104Z" fill="white"/>
<rect x="20.0195" y="13.9033" width="3.95552" height="1.10755" rx="0.553773" fill="#373737"/>
<path d="M22.1108 12.4795C22.433 12.4795 22.6868 12.7543 22.6611 13.0755L22.4329 15.927C22.41 16.2139 22.1705 16.435 21.8827 16.435V16.435C21.5605 16.435 21.3067 16.1602 21.3324 15.839L21.5606 12.9875C21.5835 12.7006 21.823 12.4795 22.1108 12.4795V12.4795Z" fill="#373737"/>
</svg>
