<svg width="30" height="30" viewBox="0 0 30 30" fill="none" xmlns="http://www.w3.org/2000/svg">
<circle cx="15" cy="15" r="15" fill="#1A1A1A"/>
<g clip-path="url(#clip0_247_1511)">
<path d="M17.6608 10.3283C17.2934 9.96094 16.6977 9.96094 16.3305 10.3283L10.3436 16.3154C9.60847 17.0499 8.41742 17.0499 7.68286 16.3154C6.94752 15.5806 6.94752 14.3894 7.68286 13.6542L13.5545 7.78261C12.8197 7.04766 11.6283 7.04766 10.8935 7.78261L6.35199 12.3239C4.88267 13.7937 4.88267 16.176 6.35199 17.6459C7.8217 19.1156 10.204 19.1156 11.6737 17.6459L17.6608 11.6588C18.0279 11.2914 18.0279 10.6957 17.6608 10.3283ZM19.6564 8.3329C18.1867 6.86299 15.8044 6.86299 14.3347 8.3329L8.3478 14.3196C7.98062 14.6867 7.98062 15.2829 8.3478 15.65C8.71518 16.0174 9.31071 16.0174 9.67809 15.65L15.6653 9.66338C16.4001 8.92842 17.5911 8.92842 18.3257 9.66338C18.6935 10.0306 19.289 10.0306 19.6564 9.66338C20.0238 9.29561 20.0238 8.70027 19.6564 8.3329ZM21.6522 14.3196C21.2848 13.9526 20.6889 13.9526 20.3215 14.3196L14.3347 20.3064C13.5999 21.0412 12.4085 21.0412 11.6737 20.3064C11.3065 19.9392 10.711 19.9392 10.3436 20.3064C9.97566 20.674 9.97566 21.2697 10.3436 21.6367C11.8127 23.1064 14.1956 23.1064 15.6653 21.6367L21.6522 15.65C22.0194 15.2829 22.0194 14.6867 21.6522 14.3196ZM23.648 12.3241C22.1783 10.8546 19.7956 10.8546 18.3263 12.3241L12.339 18.3112C11.9717 18.6782 11.9717 19.2743 12.339 19.6415C12.7066 20.0091 13.3023 20.0091 13.6695 19.6415L19.6564 13.6546C20.3909 12.9197 21.5826 12.9197 22.3171 13.6546C23.0519 14.3894 23.0519 15.5806 22.3171 16.3154L16.4455 22.1872C17.1803 22.9218 18.3711 22.9218 19.1065 22.1872L23.648 17.6459C25.1173 16.176 25.1173 13.7937 23.648 12.3241Z" fill="white"/>
</g>
<defs>
<clipPath id="clip0_247_1511">
<rect width="19.5" height="19.5" fill="white" transform="translate(5.25 5.25)"/>
</clipPath>
</defs>
</svg>
