<svg width="30" height="30" viewBox="0 0 30 30" fill="none" xmlns="http://www.w3.org/2000/svg">
<circle cx="15" cy="15" r="15" fill="#1A1A1A"/>
<path d="M7.81559 7C7.36249 7 7 7.3655 7 7.80409V22.1681C7 22.6067 7.36249 22.8808 7.79747 22.8808H9.89988V25.75L12.5098 22.8991H22.0432C22.4781 22.8991 22.75 22.625 22.75 22.1681V7.82237C22.75 7.38377 22.4963 7 22.0432 7H7.81559Z" fill="#0AB3AF"/>
<path d="M17.6467 10C18.0272 10 18.3505 10.075 18.6549 10.2437C18.9402 10.3937 19.2065 10.6 19.4158 10.8437C19.8419 11.356 20.0709 12.0001 20.0625 12.6625C20.0625 13.15 19.9293 13.6188 19.6821 14.0688C19.4257 14.5214 19.0243 14.8775 18.5408 15.0813C19.1495 15.25 19.625 15.55 19.9864 15.9813C20.3288 16.4313 20.5 17.0125 20.5 17.7438C20.5 18.2125 20.4133 18.6301 20.2337 18.9437C20.0435 19.2812 19.7582 19.5625 19.4158 19.7688C19.0543 19.9938 18.6549 20.2 18.1984 20.2938C17.7418 20.4062 17.2473 20.5 16.7337 20.5H10V10H17.6467ZM16.5543 15.8684H12.742V17.642H16.4626C16.6826 17.642 16.8842 17.5533 17.0492 17.4114C17.1958 17.2696 17.2874 17.0567 17.2874 16.7907C17.2927 16.5624 17.2221 16.3385 17.0858 16.1521C16.9392 15.9748 16.7742 15.8684 16.5543 15.8684ZM16.2427 12.321H12.742V13.9173H16.1694C16.3527 13.9173 16.536 13.8286 16.6826 13.7222C16.8475 13.6158 16.9209 13.3852 16.9209 13.0837C16.9209 12.8176 16.8475 12.6225 16.7192 12.4984C16.5909 12.392 16.426 12.321 16.2427 12.321Z" fill="white"/>
</svg>
