<svg width="50" height="50" viewBox="0 0 50 50" fill="none" xmlns="http://www.w3.org/2000/svg">
<ellipse cx="25.0002" cy="25" rx="25.0002" ry="25" fill="#181818"/>
<path d="M38.4837 25.4909C38.6079 25.7747 39.1626 26.9013 39.2766 27.1777C38.5829 28.2993 38.4201 28.5904 36.97 30.3684C31.0685 36.3284 26.5153 37.2915 23.7251 34.5072C23.4525 34.2231 23.2108 33.8538 23 33.3992C23.0594 33.5035 23.1378 33.6184 23.2353 33.7439L23.2706 33.7886C23.2765 33.7962 23.2826 33.8037 23.2887 33.8113L23.3263 33.8574L23.3655 33.9043L23.4063 33.9522L23.4486 34.0009L23.4926 34.0505L23.5381 34.1009L23.5851 34.1522L23.6338 34.2045L23.6588 34.2309L23.7098 34.2845L23.736 34.3116L23.7894 34.3664L23.8167 34.3942C27.2633 37.4375 30.7013 34.8265 35.3692 29.7818C36.0739 28.9826 37.112 27.5524 38.4837 25.4909ZM40.2862 15.8622C42.4705 17.6934 42.4705 20.5349 40.832 24.5932C40.7064 24.2948 40.1533 23.1019 40.0146 22.7963C41.3045 19.3496 41.3345 17.711 39.4793 16.0769C38.4121 15.1369 37.6542 15.0982 36.2113 15.3271L36.1168 15.3425C36.101 15.345 36.0852 15.3477 36.0693 15.3504L35.9738 15.367L35.8775 15.3844L35.829 15.3933L34.6912 15.6131V15.6111L34.7163 15.6022C36.9997 14.7908 38.9605 14.726 40.2862 15.8622Z" fill="white"/>
<path d="M38.8613 21.7628C42.3062 28.1269 42.5236 31.5704 41.3761 33.9794C40.9628 34.8475 39.9319 35.4474 39.4885 35.6807C38.3755 36.2663 36.071 35.9747 34.011 35.3834L33.7022 35.2546C34.7373 35.5808 36.9869 36.0069 38.1998 35.6807C42.1829 34.6096 41.709 29.9707 37.7056 22.6854C33.7022 15.4 29.322 13.4016 25.8692 14.7752C25.5377 14.9071 25.2486 15.0873 25 15.3105L25.0266 15.2828L25.08 15.2279L25.1067 15.2008L25.1603 15.1475C25.5454 14.769 25.9447 14.4737 26.3562 14.3377C29.4785 13.3059 34.8387 14.3316 38.8613 21.7628Z" fill="white"/>
<path d="M9 28.6994V27.1238C9.39683 27.4132 9.80266 27.6476 10.2175 27.8271C10.6324 28.0067 10.9815 28.0964 11.265 28.0964C11.5587 28.0964 11.8112 28.0214 12.0225 27.8714C12.2338 27.7213 12.3395 27.5418 12.3395 27.3328C12.3395 27.1184 12.2712 26.9402 12.1347 26.7982C11.9981 26.6562 11.703 26.4512 11.2496 26.1832C10.3425 25.6581 9.74854 25.2092 9.46767 24.8368C9.18681 24.4643 9.04641 24.0584 9.04641 23.6189C9.04641 23.0509 9.25899 22.5873 9.68412 22.2283C10.1093 21.8692 10.6569 21.6897 11.3268 21.6897C12.0225 21.6897 12.7364 21.8933 13.4681 22.3006V23.7475C12.6332 23.2224 11.9504 22.9598 11.4196 22.9598C11.1465 22.9598 10.9262 23.0201 10.7586 23.1407C10.5912 23.2612 10.5074 23.4206 10.5074 23.619C10.5074 23.7904 10.5835 23.9539 10.7355 24.1093C10.8875 24.2647 11.1542 24.4523 11.5355 24.672L12.038 24.9694C13.2233 25.6661 13.816 26.4378 13.816 27.2845C13.816 27.8901 13.5879 28.3872 13.1318 28.7757C12.6757 29.1642 12.0895 29.3585 11.3732 29.3585C10.9506 29.3585 10.5744 29.3116 10.2446 29.2178C9.91477 29.124 9.49993 28.9512 9 28.6994ZM13.9474 23.008L16.5911 20.3071V21.8344H18.8407V23.1527H16.5911V26.7781C16.5911 27.6248 16.9287 28.0482 17.6038 28.0482C18.1088 28.0482 18.6423 27.8714 19.2039 27.5177V28.8842C18.6629 29.2004 18.0728 29.3585 17.4338 29.3585C16.7895 29.3585 16.2536 29.1629 15.8259 28.7717C15.6918 28.6538 15.581 28.5211 15.4934 28.3737C15.4059 28.2264 15.3324 28.0335 15.2731 27.795C15.2138 27.5565 15.1842 27.1023 15.1842 26.4324V23.1527H13.9474V23.008V23.008ZM24.5688 21.8344H26.1535L21.1211 33H19.5518L21.9714 27.6463L19.2194 21.8343H20.8196L22.7367 26.0064L24.5688 21.8344ZM26.5384 18H27.9454V29.2298H26.5384V18ZM35 25.6607H29.9985C30.0346 26.3681 30.2626 26.9309 30.6826 27.3489C31.1027 27.7669 31.645 27.9759 32.3098 27.9759C33.2375 27.9759 34.0929 27.6758 34.8763 27.0755V28.5064C34.4434 28.8065 34.0144 29.0209 33.5892 29.1495C33.164 29.2781 32.6654 29.3424 32.0934 29.3424C31.3101 29.3424 30.6762 29.1736 30.1918 28.836C29.7073 28.4983 29.3195 28.0442 29.0284 27.4734C28.7372 26.9027 28.5916 26.2422 28.5916 25.4919C28.5916 24.3665 28.8982 23.4515 29.5115 22.7467C30.1248 22.042 30.921 21.6897 31.9001 21.6897C32.8432 21.6897 33.5956 22.0327 34.1574 22.7186C34.7191 23.4046 35 24.3236 35 25.4758V25.6607ZM30.0294 24.7846H33.6086C33.5724 24.2004 33.405 23.7503 33.106 23.4341C32.8072 23.1179 32.4052 22.9598 31.9001 22.9598C31.3951 22.9598 30.9816 23.1179 30.6594 23.4341C30.3374 23.7503 30.1273 24.2004 30.0294 24.7846H30.0294Z" fill="white"/>
</svg>
