<svg width="30" height="30" viewBox="0 0 30 30" fill="none" xmlns="http://www.w3.org/2000/svg">
<circle cx="15" cy="15" r="15" fill="#1A1A1A"/>
<path d="M5 14.974C5.0041 9.45655 9.48112 4.99182 14.9985 5.00001C20.516 5.0082 24.9807 9.48522 24.9725 14.9985C24.9643 20.5119 20.4955 24.9725 14.9863 24.9725C9.46883 24.9684 4.99591 20.4955 5 14.974ZM14.7815 18.3942C14.0073 18.4188 13.2331 18.3491 12.4754 18.1894C11.9142 18.0747 11.4472 17.6979 11.2138 17.1736C10.9885 16.6534 10.8779 15.8505 10.8861 14.7651C10.8902 14.1998 10.927 13.6305 10.9926 13.0693C11.0581 12.5204 11.1237 12.0698 11.1892 11.7135L11.2588 11.3612C11.2588 11.3489 11.2588 11.3407 11.2588 11.3285C11.2588 11.2301 11.1892 11.1441 11.0909 11.1277L9.80062 10.927H9.77194C9.67773 10.927 9.59581 10.9926 9.57533 11.0827C9.55485 11.1646 9.53847 11.2261 9.5016 11.4227C9.42787 11.8036 9.35824 12.1722 9.28451 12.7129C9.20668 13.2987 9.15753 13.8885 9.14115 14.4783C9.11247 14.892 9.11247 15.3017 9.14115 15.7154C9.16982 16.809 9.35824 17.6815 9.70231 18.3328C10.0464 18.9881 10.6321 19.4551 11.4554 19.7418C12.2787 20.0285 13.4257 20.1678 14.8961 20.1637H15.0805C16.551 20.1678 17.6979 20.0285 18.5212 19.7418C19.3445 19.4551 19.9261 18.984 20.2743 18.3328C20.6184 17.6774 20.8068 16.8049 20.8396 15.7154C20.8682 15.3017 20.8682 14.892 20.8396 14.4783C20.8232 13.8885 20.774 13.2987 20.6962 12.7129C20.6225 12.1804 20.5528 11.8118 20.4791 11.4227C20.4382 11.2261 20.4259 11.1646 20.4054 11.0827C20.3849 10.9926 20.303 10.927 20.2088 10.927H20.176L18.8857 11.1277C18.7874 11.1441 18.7178 11.2301 18.7178 11.3285C18.7178 11.3407 18.7178 11.3489 18.7178 11.3612L18.7874 11.7135C18.853 12.0698 18.9185 12.5204 18.984 13.0693C19.0496 13.6345 19.0864 14.1998 19.0905 14.7651C19.1028 15.8505 18.9922 16.6493 18.7629 17.1736C18.5335 17.6938 18.0665 18.0747 17.5095 18.1894C16.7517 18.3491 15.9775 18.4188 15.2034 18.3983L14.7815 18.3942Z" fill="#3544B1"/>
</svg>
