<svg width="31" height="31" viewBox="0 0 31 31" fill="none" xmlns="http://www.w3.org/2000/svg">
<circle cx="15.773" cy="15.2271" r="15" transform="rotate(-180 15.773 15.2271)" fill="#1A1A1A"/>
<g clip-path="url(#clip0_215_1556)">
<path d="M21.9492 8.89014C20.543 8.89014 19.371 9.82471 19.0115 11.2234C18.3635 9.12173 16.7051 8.89173 16.0131 8.89173C15.3214 8.89173 13.6634 9.12173 13.0142 11.2229C12.6546 9.8255 11.4825 8.89173 10.0766 8.89173C8.35141 8.89173 7.00009 10.1246 7.00009 11.6983C7.00009 12.3942 7.17214 12.9498 7.37999 13.5525L9.72235 20.1739C10.5067 22.3699 12.1045 22.6978 12.9871 22.6978C14.3715 22.6978 15.4503 21.989 16.0129 20.733C16.576 21.9947 17.6549 22.7071 19.0386 22.7071C19.9201 22.7071 21.5163 22.3786 22.3046 20.1745L24.66 13.5305L24.6783 13.4757C24.7052 13.3905 24.7324 13.3107 24.758 13.2347C24.8835 12.8639 25.0255 12.4434 25.0255 11.9282C25.0255 10.1679 23.7318 8.89014 21.9492 8.89014ZM23.0595 12.9636L20.7043 19.6076C20.4167 20.4114 19.9384 21.0098 19.0386 21.0098C18.1956 21.0098 17.6978 20.5402 17.4491 19.7356L16.0319 15.3137H15.9934L14.5769 19.7356C14.3278 20.5403 13.8299 21.0006 12.9871 21.0006C12.087 21.0006 11.6084 20.4071 11.3213 19.6033L8.98523 12.9995C8.79368 12.4442 8.69802 12.1006 8.69802 11.6982C8.69802 11.0855 9.27278 10.589 10.0766 10.589C10.7469 10.589 11.2255 11.0308 11.3788 11.6815L12.9682 16.9489H13.0062L14.6148 11.7976C14.8258 11.0512 15.2086 10.589 16.0131 10.589C16.8171 10.589 17.2 11.0504 17.4106 11.7968L19.0192 16.9489H19.0572L20.6472 11.6815C20.8002 11.0308 21.2787 10.5874 21.9492 10.5874C22.7531 10.5874 23.3276 11.0857 23.3276 11.9282C23.3276 12.2343 23.1932 12.5418 23.0595 12.9636Z" fill="#3192E7"/>
</g>
<defs>
<clipPath id="clip0_215_1556">
<rect width="18.0254" height="13.8657" fill="white" transform="translate(7.00009 8.89014)"/>
</clipPath>
</defs>
</svg>
