<svg width="30" height="30" viewBox="0 0 30 30" fill="none" xmlns="http://www.w3.org/2000/svg">
<circle cx="15" cy="15" r="15" fill="#1A1A1A"/>
<g clip-path="url(#clip0_247_1519)">
<path d="M17.1641 11.1708C16.7204 11.3939 16.5281 11.8105 16.5281 12.941C16.5281 12.941 16.7499 12.7179 17.1049 12.584C17.3638 12.4873 17.5487 12.3609 17.6818 12.2642C18.0663 11.9741 18.1255 11.6245 18.1255 11.0146C18.1181 11.0146 17.5117 10.9774 17.1641 11.1708Z" fill="#FBBD71"/>
<path d="M14.4498 11.4318C14.0653 11.7517 13.9691 12.3021 13.9691 12.3021L12.7267 17.0922L11.7061 13.1723C11.61 12.7558 11.4177 12.2426 11.1293 11.8856C10.7743 11.4318 10.0347 11.4021 9.94598 11.4021C9.87942 11.4021 9.14727 11.4318 8.7627 11.8856C8.47428 12.2426 8.28199 12.7558 8.18585 13.1723L7.22444 17.0922L5.98199 12.3021C5.98199 12.3021 5.88585 11.7889 5.50129 11.4318C4.89486 10.8814 4 11.0153 4 11.0153L6.36656 19.9781C6.36656 19.9781 7.13569 20.0451 7.52026 19.8517C8.03055 19.5913 8.28939 19.4054 8.57781 18.1781C8.86624 17.0847 9.63537 13.9013 9.69453 13.6781C9.72412 13.5814 9.79068 13.2913 9.98296 13.2913C10.1752 13.2913 10.2418 13.5517 10.2714 13.6781C10.3379 13.9013 11.0997 17.0847 11.3881 18.1781C11.7061 19.398 11.928 19.5913 12.4457 19.8517C12.8302 20.0451 13.5994 19.9781 13.5994 19.9781L15.9511 11.0153C15.9511 11.0153 15.0563 10.8889 14.4498 11.4318Z" fill="white"/>
<path d="M18.1179 12.458C18.1179 12.458 17.9552 12.6811 17.6372 12.8745C17.4154 13.001 17.2231 13.0679 17.0012 13.1944C16.6166 13.3878 16.5205 13.5811 16.5205 13.8712V13.9679V14.4514V14.5481V19.9481C16.5205 19.9481 17.1269 20.015 17.5115 19.8216C18.0218 19.5613 18.1179 19.3084 18.1179 18.215V12.815V12.458Z" fill="white"/>
<path d="M23.9975 15.5154L27.0001 11.0451C27.0001 11.0451 25.7576 10.822 25.1142 11.4021C24.7001 11.7592 24.2859 12.4286 24.2859 12.4286L23.1988 14.0352C23.1322 14.1319 23.0731 14.1988 22.9769 14.1988C22.8808 14.1988 22.7846 14.1021 22.7551 14.0352L21.6679 12.4286C21.6679 12.4286 21.2242 11.7889 20.8396 11.4021C20.2036 10.822 18.9538 11.0451 18.9538 11.0451L21.8602 15.5079L18.8872 19.9707C18.8872 19.9707 20.1962 20.1344 20.8396 19.5542C21.2538 19.1972 21.6383 18.5873 21.6383 18.5873L22.7255 16.9806C22.792 16.884 22.8512 16.817 22.9473 16.817C23.0435 16.817 23.1396 16.9137 23.1692 16.9806L24.2563 18.5873C24.2563 18.5873 24.6705 19.1972 25.0551 19.5542C25.6911 20.1344 26.9705 19.9707 26.9705 19.9707L23.9975 15.5154Z" fill="white"/>
</g>
<defs>
<clipPath id="clip0_247_1519">
<rect width="23" height="9" fill="white" transform="translate(4 11)"/>
</clipPath>
</defs>
</svg>
