<svg width="30" height="30" viewBox="0 0 30 30" fill="none" xmlns="http://www.w3.org/2000/svg">
<circle cx="15" cy="15" r="15" fill="#1A1A1A"/>
<path d="M6.42163 14.9997C6.42163 18.3953 8.39498 21.3298 11.2565 22.7204L7.16435 11.5084C6.6738 12.6069 6.42071 13.7966 6.42163 14.9997ZM20.7915 14.5668C20.7915 13.5066 20.4107 12.7724 20.084 12.2009C19.6492 11.4942 19.2416 10.8958 19.2416 10.1892C19.2416 9.40059 19.8397 8.66652 20.6821 8.66652C20.7202 8.66652 20.7562 8.67125 20.7933 8.67337C19.267 7.2751 17.2336 6.42139 15.0003 6.42139C12.0033 6.42139 9.36655 7.95906 7.83263 10.2881C8.0339 10.2941 8.22358 10.2984 8.38469 10.2984C9.28199 10.2984 10.671 10.1895 10.671 10.1895C11.1334 10.1622 11.1879 10.8415 10.726 10.8961C10.726 10.8961 10.2612 10.9508 9.74411 10.9779L12.8681 20.2701L14.7455 14.6396L13.4089 10.9776C12.9469 10.9505 12.5093 10.8958 12.5093 10.8958C12.047 10.8687 12.1012 10.1619 12.5635 10.1892C12.5635 10.1892 13.9802 10.2981 14.8232 10.2981C15.7203 10.2981 17.1094 10.1892 17.1094 10.1892C17.5722 10.1619 17.6265 10.8411 17.1644 10.8958C17.1644 10.8958 16.6987 10.9505 16.1826 10.9776L19.2827 20.1994L20.1384 17.34C20.5093 16.1534 20.7915 15.3012 20.7915 14.5668Z" fill="#21759B"/>
<path d="M15.1508 15.75L12.5769 23.2292C13.3638 23.461 14.1799 23.5787 15.0003 23.5787C15.9993 23.5787 16.9573 23.406 17.8491 23.0924C17.8253 23.0549 17.8048 23.0154 17.788 22.9743L15.1508 15.75ZM22.5277 10.8838C22.5646 11.157 22.5855 11.4504 22.5855 11.7659C22.5855 12.6364 22.4229 13.615 21.9332 14.8386L19.3128 22.4149C21.8632 20.9276 23.5786 18.1645 23.5786 14.9998C23.5787 13.5083 23.1978 12.1058 22.5277 10.8838Z" fill="#21759B"/>
<path d="M15.0001 5C9.48618 5 5 9.48585 5 14.9998C5 20.5143 9.48618 25 15.0001 25C20.5138 25 25.0007 20.5143 25.0007 14.9998C25.0005 9.48585 20.5138 5 15.0001 5ZM15.0001 24.5416C9.73903 24.5416 5.45853 20.2611 5.45853 14.9998C5.45853 9.7387 9.73887 5.45853 15.0001 5.45853C20.261 5.45853 24.5412 9.7387 24.5412 14.9998C24.5412 20.2611 20.261 24.5416 15.0001 24.5416Z" fill="#21759B"/>
</svg>
