<svg xmlns="http://www.w3.org/2000/svg" viewBox="0 0 74.9 47.29">
  <title>hero_title_mob</title>
  <g id="7b1b13b8-7e16-4ccb-98b1-c30c143163db" data-name="Слой 2">
    <g id="11c618b7-bc39-41d8-8778-5f18c61bce28" data-name="Слой 1">
      <path d="M2,7.07a1.77,1.77,0,0,0,1.43.52,3,3,0,0,0,1-.14,1,1,0,0,0,.72-1,.73.73,0,0,0-.35-.66,4,4,0,0,0-1.13-.4l-.87-.2A5.61,5.61,0,0,1,1,4.54,2.14,2.14,0,0,1,.17,2.68,2.53,2.53,0,0,1,1,.76,3.29,3.29,0,0,1,3.33,0,3.48,3.48,0,0,1,5.54.71a2.6,2.6,0,0,1,1,2.1H4.86A1.26,1.26,0,0,0,4.21,1.7a2.13,2.13,0,0,0-1-.21,1.74,1.74,0,0,0-1.07.29.88.88,0,0,0-.4.77.75.75,0,0,0,.4.69,4.62,4.62,0,0,0,1.07.36l1.41.34A3.57,3.57,0,0,1,6,4.58a2.13,2.13,0,0,1,.74,1.75,2.51,2.51,0,0,1-.86,1.94,3.53,3.53,0,0,1-2.44.79A3.83,3.83,0,0,1,1,8.28,2.53,2.53,0,0,1,0,6.19H1.67A1.89,1.89,0,0,0,2,7.07Z" fill="#13cf2e"></path>
      <path d="M10,6.87a1.31,1.31,0,0,0,1.36.71,1.29,1.29,0,0,0,1.34-.71,2.86,2.86,0,0,0,.21-1.26V.46h1.74V5.61a4.19,4.19,0,0,1-.41,2.07,3,3,0,0,1-2.88,1.38,3,3,0,0,1-2.9-1.38,4.19,4.19,0,0,1-.41-2.07V.46H9.79V5.61A2.86,2.86,0,0,0,10,6.87Z" fill="#13cf2e"></path>
      <path d="M19.64.31a3.4,3.4,0,0,1,3,1.38,3,3,0,0,1,.57,1.56H21.53a2.34,2.34,0,0,0-.44-.91,1.9,1.9,0,0,0-2.86.23,3.67,3.67,0,0,0-.54,2.17,3.33,3.33,0,0,0,.57,2.12,1.82,1.82,0,0,0,1.45.7A1.63,1.63,0,0,0,21.09,7a2.69,2.69,0,0,0,.44-1h1.7a3.93,3.93,0,0,1-1.14,2.22,3.31,3.31,0,0,1-2.35.86A3.47,3.47,0,0,1,17,7.91a4.71,4.71,0,0,1-1-3.19,4.67,4.67,0,0,1,1.15-3.39A3.43,3.43,0,0,1,19.64.31Z" fill="#13cf2e"></path>
      <path d="M27.89.31a3.39,3.39,0,0,1,3,1.38,2.9,2.9,0,0,1,.57,1.56H29.77a2.34,2.34,0,0,0-.43-.91A1.74,1.74,0,0,0,28,1.8a1.72,1.72,0,0,0-1.48.77,3.74,3.74,0,0,0-.53,2.17,3.27,3.27,0,0,0,.57,2.12,1.79,1.79,0,0,0,1.45.7A1.64,1.64,0,0,0,29.34,7a2.7,2.7,0,0,0,.43-1h1.7a3.87,3.87,0,0,1-1.14,2.22A3.29,3.29,0,0,1,28,9.07a3.49,3.49,0,0,1-2.79-1.16,4.71,4.71,0,0,1-1-3.19,4.72,4.72,0,0,1,1.15-3.39A3.44,3.44,0,0,1,27.89.31Z" fill="#13cf2e"></path>
      <path d="M38.49,3.73V5.18h-4V7.34h4.54v1.5H32.83V.46h6V2H34.51V3.73Z" fill="#13cf2e"></path>
      <path d="M46.11,3.73V5.18h-4V7.34h4.54v1.5H40.45V.46h6V2H42.13V3.73Z" fill="#13cf2e"></path>
      <path d="M54.22,1.7a3.92,3.92,0,0,1,.58,1.35A6.4,6.4,0,0,1,55,4.45a5.67,5.67,0,0,1-.66,2.83,3,3,0,0,1-2.76,1.56H48V.46h3.53a4.12,4.12,0,0,1,1.28.19A2.74,2.74,0,0,1,54.22,1.7ZM53,6.16a4.49,4.49,0,0,0,.26-1.59,3.93,3.93,0,0,0-.39-2,1.65,1.65,0,0,0-1.56-.69H49.67V7.38h1.59A1.71,1.71,0,0,0,53,6.16Z" fill="#13cf2e"></path>
      <path d="M57.83.46V8.84H56.11V.46Z" fill="#13cf2e"></path>
      <path d="M64.47.46h1.6V8.84H64.35L61,2.89V8.84H59.4V.46h1.79l3.28,5.85Z" fill="#13cf2e"></path>
      <path d="M72.24,1.88a2.23,2.23,0,0,0-.94-.19,2.08,2.08,0,0,0-1.64.76A3.57,3.57,0,0,0,69,4.75a2.86,2.86,0,0,0,.69,2.19,2.23,2.23,0,0,0,1.58.64,2,2,0,0,0,1.41-.51,2.17,2.17,0,0,0,.68-1.33h-1.9V4.35H74.9V8.84H73.77l-.17-1a4.41,4.41,0,0,1-.89.84A3,3,0,0,1,71,9.06a3.48,3.48,0,0,1-2.67-1.15,4.43,4.43,0,0,1-1.08-3.18,4.74,4.74,0,0,1,1.09-3.26A3.75,3.75,0,0,1,71.27.25a3.85,3.85,0,0,1,2.53.8,3.07,3.07,0,0,1,1.08,2H73.19A1.59,1.59,0,0,0,72.24,1.88Z" fill="#13cf2e"></path>
      <path d="M2,10.08v8.63H.28V10.08Z" fill="#13cf2e"></path>
      <path d="M8.49,10.08h1.57v8.63H8.38l-3.3-6.13v6.13H3.51V10.08H5.27l3.22,6Z" fill="#13cf2e"></path>
      <path d="M18.26,9.92a3.54,3.54,0,0,1,3.14,1.43A3,3,0,0,1,22,13H20.22a2.51,2.51,0,0,0-.45-.93,1.83,1.83,0,0,0-1.45-.56,1.79,1.79,0,0,0-1.53.79,3.79,3.79,0,0,0-.56,2.24,3.36,3.36,0,0,0,.59,2.18,1.89,1.89,0,0,0,1.51.72,1.73,1.73,0,0,0,1.44-.62,3,3,0,0,0,.45-1H22a3.9,3.9,0,0,1-1.18,2.29,3.44,3.44,0,0,1-2.45.89,3.6,3.6,0,0,1-2.89-1.2,4.79,4.79,0,0,1-1.05-3.28A4.82,4.82,0,0,1,15.6,11,3.56,3.56,0,0,1,18.26,9.92Z" fill="#13cf2e"></path>
      <path d="M28.93,10.9a2.58,2.58,0,0,1,.42.74,2.28,2.28,0,0,1,.15.89,2.8,2.8,0,0,1-.29,1.22,1.65,1.65,0,0,1-.95.84,1.43,1.43,0,0,1,.78.68,2.93,2.93,0,0,1,.24,1.35v.58a3.61,3.61,0,0,0,0,.8.74.74,0,0,0,.3.5v.21H27.78a3.33,3.33,0,0,1-.11-.47,3.64,3.64,0,0,1-.07-.74v-.79a1.71,1.71,0,0,0-.28-1.11,1.52,1.52,0,0,0-1-.27H24.55v3.38H22.9V10.08h4a3.55,3.55,0,0,1,1.3.22A2.15,2.15,0,0,1,28.93,10.9Zm-1.62,2.86a1,1,0,0,0,.5-1,1.12,1.12,0,0,0-.48-1.06,2,2,0,0,0-.83-.15H24.55V13.9h1.9A2.06,2.06,0,0,0,27.31,13.76Z" fill="#13cf2e"></path>
      <path d="M32.5,10.08v8.63H30.82V10.08Z" fill="#13cf2e"></path>
      <path d="M37.53,18.71H35.82v-7.1H33.4V10.08h6.54v1.53H37.53Z" fill="#13cf2e"></path>
      <path d="M42.48,10.08v8.63H40.79V10.08Z" fill="#13cf2e"></path>
      <path d="M47.7,9.92A3.73,3.73,0,0,1,51,11.35a3,3,0,0,1,.61,1.6H49.73a2.36,2.36,0,0,0-.47-.93,1.92,1.92,0,0,0-1.5-.56,1.88,1.88,0,0,0-1.59.79,3.71,3.71,0,0,0-.58,2.24,3.24,3.24,0,0,0,.62,2.18,2,2,0,0,0,1.56.72,1.8,1.8,0,0,0,1.49-.62,2.83,2.83,0,0,0,.47-1h1.83a3.91,3.91,0,0,1-1.23,2.29A3.62,3.62,0,0,1,47.8,19a3.83,3.83,0,0,1-3-1.2,4.7,4.7,0,0,1-1.09-3.28A4.72,4.72,0,0,1,44.94,11,3.78,3.78,0,0,1,47.7,9.92Z" fill="#13cf2e"></path>
      <path d="M57.39,18.71l-.51-1.77h-3l-.55,1.77H51.57l2.89-8.63h1.9l2.86,8.63Zm-3-3.26h2l-1-3.39Z" fill="#13cf2e"></path>
      <path d="M65.93,17.16v1.55H60.25V10.08h1.69v7.08Z" fill="#13cf2e"></path>
      <path d="M4.3,28.24H2.54V21.61H0V20.17H6.79v1.44H4.3Z" fill="none" stroke="#bdbdbd" stroke-miterlimit="10" stroke-width="0.09"></path>
      <path d="M11.48,28.24l-.54-1.65H7.86L7.3,28.24H5.47l3-8.07h2l2.95,8.07Zm-3.14-3h2.12L9.41,22Z" fill="none" stroke="#bdbdbd" stroke-miterlimit="10" stroke-width="0.09"></path>
      <path d="M16,26.59a1.86,1.86,0,0,0,1.45.49,3.1,3.1,0,0,0,1-.14.94.94,0,0,0,.73-.93.66.66,0,0,0-.36-.61A3.82,3.82,0,0,0,17.66,25l-.88-.19A5.85,5.85,0,0,1,15,24.21a2,2,0,0,1-.85-1.75,2.28,2.28,0,0,1,.83-1.8,3.51,3.51,0,0,1,2.38-.72,3.67,3.67,0,0,1,2.24.67,2.39,2.39,0,0,1,1,2H18.9a1.15,1.15,0,0,0-.66-1,2.33,2.33,0,0,0-1-.2,1.86,1.86,0,0,0-1.07.27.81.81,0,0,0-.41.73.71.71,0,0,0,.41.65,5.1,5.1,0,0,0,1.07.33l1.44.33a3.9,3.9,0,0,1,1.42.59,1.93,1.93,0,0,1,.75,1.65A2.28,2.28,0,0,1,20,27.72a3.76,3.76,0,0,1-2.48.74,4.12,4.12,0,0,1-2.56-.73,2.33,2.33,0,0,1-.92-2h1.65A1.68,1.68,0,0,0,16,26.59Z" fill="none" stroke="#bdbdbd" stroke-miterlimit="10" stroke-width="0.09"></path>
      <path d="M27.08,20.17h2.25L25.92,23.5l3.59,4.74H27.28l-2.59-3.52-.82.82v2.7H22.16V20.17h1.71V23.5Z" fill="none" stroke="#bdbdbd" stroke-miterlimit="10" stroke-width="0.09"></path>
      <path d="M32.05,26.59a1.86,1.86,0,0,0,1.45.49,3,3,0,0,0,1-.14.93.93,0,0,0,.73-.93.66.66,0,0,0-.35-.61A3.92,3.92,0,0,0,33.73,25l-.88-.19a5.74,5.74,0,0,1-1.79-.62,2,2,0,0,1-.85-1.75,2.3,2.3,0,0,1,.82-1.8,3.54,3.54,0,0,1,2.39-.72,3.67,3.67,0,0,1,2.24.67,2.35,2.35,0,0,1,1,2H35a1.19,1.19,0,0,0-.66-1,2.36,2.36,0,0,0-1-.2,1.92,1.92,0,0,0-1.08.27.83.83,0,0,0-.4.73.71.71,0,0,0,.4.65,5.49,5.49,0,0,0,1.08.33l1.44.33a4,4,0,0,1,1.42.59,1.93,1.93,0,0,1,.75,1.65A2.29,2.29,0,0,1,36,27.72a3.75,3.75,0,0,1-2.47.74A4.1,4.1,0,0,1,31,27.73a2.33,2.33,0,0,1-.93-2h1.66A1.59,1.59,0,0,0,32.05,26.59Z" fill="none" stroke="#bdbdbd" stroke-miterlimit="10" stroke-width="0.09"></path>
      <path d="M6.21,30.44a2.53,2.53,0,0,1,.4.67,1.94,1.94,0,0,1,.16.82A2.32,2.32,0,0,1,6.48,33a1.6,1.6,0,0,1-.93.77,1.48,1.48,0,0,1,.77.62,2.65,2.65,0,0,1,.23,1.24v.52a4.17,4.17,0,0,0,0,.74.67.67,0,0,0,.3.44v.2H5.07C5,37.39,5,37.24,5,37.13a3.63,3.63,0,0,1-.06-.67l0-.73a1.41,1.41,0,0,0-.27-1,1.49,1.49,0,0,0-1-.25H1.9v3.08H.28V29.69H4.17a3.76,3.76,0,0,1,1.28.2A2.06,2.06,0,0,1,6.21,30.44ZM4.61,33a.87.87,0,0,0,.5-.88,1,1,0,0,0-.48-1,1.88,1.88,0,0,0-.81-.15H1.9v2.13H3.77A2,2,0,0,0,4.61,33Z" fill="none" stroke="#bdbdbd" stroke-miterlimit="10" stroke-width="0.09"></path>
      <path d="M13.71,32.76v1.37H9.87v2h4.38v1.41h-6V29.69h5.8v1.4H9.87v1.67Z" fill="none" stroke="#bdbdbd" stroke-miterlimit="10" stroke-width="0.09"></path>
      <path d="M22,36.39l.92.84-.88.9-1-.9a3.2,3.2,0,0,1-.75.37,3.73,3.73,0,0,1-1.28.18,3.65,3.65,0,0,1-2.55-.92,4.09,4.09,0,0,1-1.24-3.25,4.09,4.09,0,0,1,1.27-3.26,3.71,3.71,0,0,1,2.55-.9,3.65,3.65,0,0,1,2.58,1,4,4,0,0,1,1.2,3.08,5.63,5.63,0,0,1-.25,1.77A3.08,3.08,0,0,1,22,36.39Zm-2-.21-.81-.75.85-.89.8.76a3.18,3.18,0,0,0,.27-.68,3.78,3.78,0,0,0,.12-1,3.44,3.44,0,0,0-.54-2,1.91,1.91,0,0,0-1.6-.72,2,2,0,0,0-1.57.68,3.13,3.13,0,0,0-.59,2.08,2.84,2.84,0,0,0,.84,2.32,1.92,1.92,0,0,0,1.3.46,1.67,1.67,0,0,0,.55-.08A1.9,1.9,0,0,0,20,36.18Z" fill="none" stroke="#bdbdbd" stroke-miterlimit="10" stroke-width="0.09"></path>
      <path d="M26,35.71a1.28,1.28,0,0,0,1.32.67,1.26,1.26,0,0,0,1.3-.67,2.69,2.69,0,0,0,.19-1.18V29.69h1.69v4.84a3.91,3.91,0,0,1-.4,1.95,2.93,2.93,0,0,1-2.78,1.29,2.94,2.94,0,0,1-2.8-1.29,3.91,3.91,0,0,1-.4-1.95V29.69H25.8v4.84A2.69,2.69,0,0,0,26,35.71Z" fill="none" stroke="#bdbdbd" stroke-miterlimit="10" stroke-width="0.09"></path>
      <path d="M33.59,29.69v7.87H31.93V29.69Z" fill="none" stroke="#bdbdbd" stroke-miterlimit="10" stroke-width="0.09"></path>
      <path d="M41.1,30.44a2.29,2.29,0,0,1,.4.67,1.94,1.94,0,0,1,.16.82,2.32,2.32,0,0,1-.29,1.1,1.57,1.57,0,0,1-.93.77,1.48,1.48,0,0,1,.77.62,2.65,2.65,0,0,1,.23,1.24v.52a4.17,4.17,0,0,0,0,.74.71.71,0,0,0,.3.44v.2H40c-.05-.17-.09-.32-.11-.43a3.63,3.63,0,0,1-.06-.67v-.73a1.4,1.4,0,0,0-.28-1,1.49,1.49,0,0,0-1-.25H36.79v3.08H35.17V29.69h3.89a3.76,3.76,0,0,1,1.28.2A2.06,2.06,0,0,1,41.1,30.44ZM39.5,33a.87.87,0,0,0,.5-.88,1,1,0,0,0-.48-1,1.85,1.85,0,0,0-.81-.15H36.79v2.13h1.87A2,2,0,0,0,39.5,33Z" fill="none" stroke="#bdbdbd" stroke-miterlimit="10" stroke-width="0.09"></path>
      <path d="M48.6,32.76v1.37H44.76v2h4.38v1.41h-6V29.69h5.8v1.4H44.76v1.67Z" fill="none" stroke="#bdbdbd" stroke-miterlimit="10" stroke-width="0.09"></path>
      <path d="M51.93,35.94a1.71,1.71,0,0,0,1.38.48,2.79,2.79,0,0,0,.95-.13.91.91,0,0,0,.7-.91.67.67,0,0,0-.34-.6,4,4,0,0,0-1.09-.37l-.84-.18A5.44,5.44,0,0,1,51,33.62a1.93,1.93,0,0,1-.8-1.7A2.26,2.26,0,0,1,51,30.16a3.3,3.3,0,0,1,2.27-.7,3.48,3.48,0,0,1,2.13.65A2.34,2.34,0,0,1,56.29,32H54.7a1.15,1.15,0,0,0-.62-1,2.16,2.16,0,0,0-1-.2,1.77,1.77,0,0,0-1,.27.8.8,0,0,0-.38.71.68.68,0,0,0,.38.63,4.9,4.9,0,0,0,1,.33l1.36.32a3.55,3.55,0,0,1,1.36.58,1.9,1.9,0,0,1,.71,1.6,2.25,2.25,0,0,1-.82,1.79,3.52,3.52,0,0,1-2.36.72,3.82,3.82,0,0,1-2.43-.71,2.29,2.29,0,0,1-.88-1.93h1.57A1.7,1.7,0,0,0,51.93,35.94Z" fill="none" stroke="#bdbdbd" stroke-miterlimit="10" stroke-width="0.09"></path>


      <path d="M20.67,40.41v1.85h3.54v1.41H20.67v3.39H19V39H24.7v1.43Z" fill="#13cf2e"></path>
      <path d="M29.41,47.29a3.49,3.49,0,0,1-2.64-.95A4.34,4.34,0,0,1,25.53,43a4.27,4.27,0,0,1,1.24-3.34,3.49,3.49,0,0,1,2.64-.94,3.47,3.47,0,0,1,2.63.94A4.26,4.26,0,0,1,33.26,43,4.33,4.33,0,0,1,32,46.34,3.47,3.47,0,0,1,29.41,47.29ZM31.58,43A3.44,3.44,0,0,0,31,40.9a2.09,2.09,0,0,0-3.19,0,3.23,3.23,0,0,0-.6,2.11,3.23,3.23,0,0,0,.6,2.11,2.09,2.09,0,0,0,3.19,0A3.42,3.42,0,0,0,31.58,43Z" fill="#13cf2e"></path>
      <path d="M37.85,38.83a3.36,3.36,0,0,1,3,1.33,3,3,0,0,1,.56,1.51H39.69a2.25,2.25,0,0,0-.42-.88,1.71,1.71,0,0,0-1.37-.53,1.69,1.69,0,0,0-1.44.75,3.53,3.53,0,0,0-.53,2.1,3.1,3.1,0,0,0,.56,2,1.76,1.76,0,0,0,1.42.67,1.63,1.63,0,0,0,1.36-.58,2.61,2.61,0,0,0,.42-.93h1.67a3.66,3.66,0,0,1-1.12,2.14,3.2,3.2,0,0,1-2.3.84,3.46,3.46,0,0,1-2.74-1.13,4.47,4.47,0,0,1-1-3.08,4.51,4.51,0,0,1,1.13-3.27A3.38,3.38,0,0,1,37.85,38.83Z" fill="#13cf2e"></path>
      <path d="M44.56,45.16a1.3,1.3,0,0,0,1.33.69,1.27,1.27,0,0,0,1.32-.69A2.65,2.65,0,0,0,47.42,44V39h1.71v5a4.1,4.1,0,0,1-.4,2,3,3,0,0,1-2.84,1.32A3,3,0,0,1,43.05,46a4.09,4.09,0,0,1-.41-2V39h1.72v5A2.67,2.67,0,0,0,44.56,45.16Z" fill="#13cf2e"></path>
      <path d="M52.26,45.4a1.76,1.76,0,0,0,1.4.49,2.88,2.88,0,0,0,1-.13,1,1,0,0,0,.71-.93.67.67,0,0,0-.35-.62,3.5,3.5,0,0,0-1.11-.38l-.85-.2A5.68,5.68,0,0,1,51.29,43a2,2,0,0,1-.81-1.76,2.31,2.31,0,0,1,.79-1.8,3.3,3.3,0,0,1,2.31-.72,3.48,3.48,0,0,1,2.17.67,2.39,2.39,0,0,1,.94,2H55.08a1.18,1.18,0,0,0-.64-1,2.18,2.18,0,0,0-1-.2,1.76,1.76,0,0,0-1,.27.84.84,0,0,0-.4.73.7.7,0,0,0,.4.65,5.05,5.05,0,0,0,1,.34l1.39.32a3.59,3.59,0,0,1,1.37.6A2,2,0,0,1,57,44.7a2.32,2.32,0,0,1-.84,1.83,3.5,3.5,0,0,1-2.4.74,3.81,3.81,0,0,1-2.47-.73,2.34,2.34,0,0,1-.9-2H52A1.68,1.68,0,0,0,52.26,45.4Z" fill="#13cf2e"></path>
    </g>
  </g>
</svg>
