<svg xmlns="http://www.w3.org/2000/svg" viewBox="0 0 74.86 47.29">
  <title>hero_title_tablet</title>
  <g id="efae5256-65d8-403f-95b5-f2c252ca31a0" data-name="Слой 2">
    <g id="f4932e0b-9dd3-423f-9bfe-44bd1134b22a" data-name="Слой 1">
      <path d="M1.94,7.07a1.74,1.74,0,0,0,1.43.52,3,3,0,0,0,1-.14,1,1,0,0,0,.72-1,.74.74,0,0,0-.36-.66,3.75,3.75,0,0,0-1.13-.4l-.86-.2A5.51,5.51,0,0,1,1,4.54,2.14,2.14,0,0,1,.13,2.68,2.53,2.53,0,0,1,.94.76,3.29,3.29,0,0,1,3.29,0,3.5,3.5,0,0,1,5.5.71a2.6,2.6,0,0,1,1,2.1H4.82A1.28,1.28,0,0,0,4.17,1.7a2.17,2.17,0,0,0-1-.21,1.71,1.71,0,0,0-1.06.29.88.88,0,0,0-.4.77.75.75,0,0,0,.4.69,4.66,4.66,0,0,0,1.06.36l1.42.34A3.52,3.52,0,0,1,6,4.58a2.13,2.13,0,0,1,.74,1.75,2.5,2.5,0,0,1-.85,1.94,3.53,3.53,0,0,1-2.44.79A3.86,3.86,0,0,1,.91,8.28,2.55,2.55,0,0,1,0,6.19H1.63A1.89,1.89,0,0,0,1.94,7.07Z" fill="#13cf2e"></path>
      <path d="M10,6.87a1.3,1.3,0,0,0,1.35.71,1.3,1.3,0,0,0,1.35-.71,2.86,2.86,0,0,0,.21-1.26V.46h1.74V5.61a4.31,4.31,0,0,1-.41,2.07,3,3,0,0,1-2.89,1.38,3,3,0,0,1-2.9-1.38A4.31,4.31,0,0,1,8,5.61V.46H9.75V5.61A2.86,2.86,0,0,0,10,6.87Z" fill="#13cf2e"></path>
      <path d="M19.6.31a3.41,3.41,0,0,1,3,1.38,3.08,3.08,0,0,1,.57,1.56H21.49a2.48,2.48,0,0,0-.44-.91,1.73,1.73,0,0,0-1.39-.54,1.69,1.69,0,0,0-1.47.77,3.67,3.67,0,0,0-.54,2.17,3.27,3.27,0,0,0,.57,2.12,1.82,1.82,0,0,0,1.45.7A1.63,1.63,0,0,0,21.05,7a2.88,2.88,0,0,0,.44-1h1.7A3.88,3.88,0,0,1,22,8.21a3.28,3.28,0,0,1-2.35.86,3.47,3.47,0,0,1-2.78-1.16,4.72,4.72,0,0,1-1-3.19A4.72,4.72,0,0,1,17,1.33,3.45,3.45,0,0,1,19.6.31Z" fill="#13cf2e"></path>
      <path d="M27.84.31a3.4,3.4,0,0,1,3,1.38,3,3,0,0,1,.57,1.56H29.73a2.34,2.34,0,0,0-.44-.91,1.9,1.9,0,0,0-2.86.23,3.67,3.67,0,0,0-.54,2.17,3.33,3.33,0,0,0,.57,2.12,1.82,1.82,0,0,0,1.45.7A1.63,1.63,0,0,0,29.29,7a2.69,2.69,0,0,0,.44-1h1.7a3.93,3.93,0,0,1-1.14,2.22,3.31,3.31,0,0,1-2.35.86,3.49,3.49,0,0,1-2.79-1.16,4.71,4.71,0,0,1-1-3.19,4.67,4.67,0,0,1,1.15-3.39A3.43,3.43,0,0,1,27.84.31Z" fill="#13cf2e"></path>
      <path d="M38.45,3.73V5.18h-4V7.34H39v1.5H32.79V.46h6V2H34.47V3.73Z" fill="#13cf2e"></path>
      <path d="M46.07,3.73V5.18h-4V7.34h4.55v1.5H40.41V.46h6V2H42.08V3.73Z" fill="#13cf2e"></path>
      <path d="M54.17,1.7a3.74,3.74,0,0,1,.58,1.35,5.88,5.88,0,0,1,.17,1.4,5.57,5.57,0,0,1-.67,2.83A3,3,0,0,1,51.5,8.84H48V.46H51.5a4.12,4.12,0,0,1,1.28.19A2.68,2.68,0,0,1,54.17,1.7ZM52.91,6.16a4.49,4.49,0,0,0,.26-1.59,4,4,0,0,0-.39-2,1.66,1.66,0,0,0-1.56-.69H49.63V7.38h1.59A1.71,1.71,0,0,0,52.91,6.16Z" fill="#13cf2e"></path>
      <path d="M57.78.46V8.84H56.07V.46Z" fill="#13cf2e"></path>
      <path d="M64.43.46H66V8.84H64.31L61,2.89V8.84h-1.6V.46h1.79l3.28,5.85Z" fill="#13cf2e"></path>
      <path d="M72.2,1.88a2.24,2.24,0,0,0-1-.19,2.08,2.08,0,0,0-1.63.76A3.56,3.56,0,0,0,69,4.75a2.86,2.86,0,0,0,.7,2.19,2.21,2.21,0,0,0,1.57.64,2,2,0,0,0,1.42-.51,2.21,2.21,0,0,0,.67-1.33H71.45V4.35h3.41V8.84H73.73l-.17-1a4.41,4.41,0,0,1-.89.84A3.09,3.09,0,0,1,71,9.06a3.48,3.48,0,0,1-2.67-1.15,4.43,4.43,0,0,1-1.08-3.18,4.74,4.74,0,0,1,1.09-3.26A3.72,3.72,0,0,1,71.23.25a3.82,3.82,0,0,1,2.52.8,3,3,0,0,1,1.09,2H73.15A1.63,1.63,0,0,0,72.2,1.88Z" fill="#13cf2e"></path>
      <path d="M1.92,10.08v8.63H.24V10.08Z" fill="#13cf2e"></path>
      <path d="M8.45,10.08H10v8.63H8.34L5,12.58v6.13H3.47V10.08H5.23l3.22,6Z" fill="#13cf2e"></path>
      <path d="M18.22,9.92a3.55,3.55,0,0,1,3.14,1.43A3,3,0,0,1,22,13H20.17a2.37,2.37,0,0,0-.45-.93,1.8,1.8,0,0,0-1.44-.56,1.77,1.77,0,0,0-1.53.79,3.79,3.79,0,0,0-.56,2.24,3.36,3.36,0,0,0,.59,2.18,1.87,1.87,0,0,0,1.51.72,1.7,1.7,0,0,0,1.43-.62,2.84,2.84,0,0,0,.45-1h1.77a4,4,0,0,1-1.19,2.29,3.43,3.43,0,0,1-2.44.89,3.6,3.6,0,0,1-2.89-1.2,4.79,4.79,0,0,1-1.06-3.28A4.83,4.83,0,0,1,15.56,11,3.56,3.56,0,0,1,18.22,9.92Z" fill="#13cf2e"></path>
      <path d="M28.89,10.9a2.55,2.55,0,0,1,.41.74,2.11,2.11,0,0,1,.16.89,2.8,2.8,0,0,1-.29,1.22,1.68,1.68,0,0,1-1,.84,1.47,1.47,0,0,1,.78.68,2.93,2.93,0,0,1,.24,1.35v.58a4.7,4.7,0,0,0,0,.8.82.82,0,0,0,.3.5v.21H27.73c-.05-.19-.08-.35-.11-.47a4.52,4.52,0,0,1-.06-.74l0-.79a1.71,1.71,0,0,0-.28-1.11,1.5,1.5,0,0,0-1-.27H24.5v3.38H22.86V10.08h4a3.59,3.59,0,0,1,1.3.22A2.15,2.15,0,0,1,28.89,10.9Zm-1.63,2.86a1,1,0,0,0,.51-1,1.12,1.12,0,0,0-.48-1.06,2,2,0,0,0-.83-.15h-2V13.9h1.91A2,2,0,0,0,27.26,13.76Z" fill="#13cf2e"></path>
      <path d="M32.46,10.08v8.63H30.78V10.08Z" fill="#13cf2e"></path>
      <path d="M37.48,18.71h-1.7v-7.1H33.36V10.08H39.9v1.53H37.48Z" fill="#13cf2e"></path>
      <path d="M42.43,10.08v8.63H40.75V10.08Z" fill="#13cf2e"></path>
      <path d="M47.65,9.92a3.75,3.75,0,0,1,3.27,1.43,3,3,0,0,1,.61,1.6H49.69a2.5,2.5,0,0,0-.47-.93,1.92,1.92,0,0,0-1.5-.56,1.87,1.87,0,0,0-1.59.79,3.71,3.71,0,0,0-.58,2.24,3.24,3.24,0,0,0,.62,2.18,2,2,0,0,0,1.56.72,1.82,1.82,0,0,0,1.49-.62,3,3,0,0,0,.47-1h1.83a3.91,3.91,0,0,1-1.23,2.29,3.66,3.66,0,0,1-2.54.89,3.81,3.81,0,0,1-3-1.2,4.66,4.66,0,0,1-1.09-3.28A4.68,4.68,0,0,1,44.9,11,3.75,3.75,0,0,1,47.65,9.92Z" fill="#13cf2e"></path>
      <path d="M57.35,18.71l-.51-1.77h-3l-.55,1.77H51.53l2.88-8.63h1.91l2.86,8.63Zm-3-3.26h2.06l-1-3.39Z" fill="#13cf2e"></path>
      <path d="M65.89,17.16v1.55H60.2V10.08h1.7v7.08Z" fill="#13cf2e"></path>
      <path d="M28.26,28.27H26.5V21.64H24V20.2h6.75v1.44H28.26Z" fill="none" stroke="#bdbdbd" stroke-miterlimit="10" stroke-width="0.09"></path>
      <path d="M35.43,28.27l-.53-1.65H31.82l-.57,1.65H29.42l3-8.07h2l3,8.07Zm-3.14-3h2.12l-1-3.18Z" fill="none" stroke="#bdbdbd" stroke-miterlimit="10" stroke-width="0.09"></path>
      <path d="M39.94,26.62a1.85,1.85,0,0,0,1.45.49,3,3,0,0,0,1-.14.93.93,0,0,0,.73-.93.65.65,0,0,0-.36-.61,3.74,3.74,0,0,0-1.14-.38l-.88-.19a5.93,5.93,0,0,1-1.8-.62,2,2,0,0,1-.84-1.75,2.3,2.3,0,0,1,.82-1.8A3.52,3.52,0,0,1,41.31,20a3.69,3.69,0,0,1,2.24.67,2.35,2.35,0,0,1,1,2H42.86a1.19,1.19,0,0,0-.66-1,2.36,2.36,0,0,0-1-.2,1.92,1.92,0,0,0-1.08.27.83.83,0,0,0-.4.73.71.71,0,0,0,.4.65,5.26,5.26,0,0,0,1.08.33l1.43.33a4,4,0,0,1,1.43.59,1.93,1.93,0,0,1,.75,1.65,2.29,2.29,0,0,1-.87,1.83,3.75,3.75,0,0,1-2.47.74,4.1,4.1,0,0,1-2.56-.73,2.31,2.31,0,0,1-.93-2h1.66A1.59,1.59,0,0,0,39.94,26.62Z" fill="none" stroke="#bdbdbd" stroke-miterlimit="10" stroke-width="0.09"></path>
      <path d="M51,20.2h2.26l-3.41,3.33,3.58,4.74H51.23l-2.58-3.52-.82.82v2.7H46.12V20.2h1.71v3.33Z" fill="none" stroke="#bdbdbd" stroke-miterlimit="10" stroke-width="0.09"></path>
      <path d="M56,26.62a1.82,1.82,0,0,0,1.44.49,3.06,3.06,0,0,0,1-.14.93.93,0,0,0,.73-.93.66.66,0,0,0-.36-.61,3.72,3.72,0,0,0-1.15-.38l-.87-.19a5.93,5.93,0,0,1-1.8-.62,2,2,0,0,1-.84-1.75,2.27,2.27,0,0,1,.82-1.8A3.51,3.51,0,0,1,57.37,20a3.72,3.72,0,0,1,2.25.67,2.38,2.38,0,0,1,1,2H58.92a1.15,1.15,0,0,0-.66-1,2.28,2.28,0,0,0-1-.2,1.92,1.92,0,0,0-1.08.27.81.81,0,0,0-.4.73.7.7,0,0,0,.4.65,5.05,5.05,0,0,0,1.08.33l1.43.33a3.9,3.9,0,0,1,1.42.59,1.94,1.94,0,0,1,.76,1.65A2.29,2.29,0,0,1,60,27.75a3.76,3.76,0,0,1-2.48.74A4.09,4.09,0,0,1,55,27.76a2.31,2.31,0,0,1-.93-2h1.65A1.68,1.68,0,0,0,56,26.62Z" fill="none" stroke="#bdbdbd" stroke-miterlimit="10" stroke-width="0.09"></path>
      <path d="M20.7,30.44a2.32,2.32,0,0,1,.41.67,1.94,1.94,0,0,1,.15.82A2.43,2.43,0,0,1,21,33a1.59,1.59,0,0,1-.94.77,1.44,1.44,0,0,1,.77.62A2.53,2.53,0,0,1,21,35.66v.52a3.2,3.2,0,0,0,.05.74.66.66,0,0,0,.29.44v.2H19.57a2.72,2.72,0,0,1-.11-.43,2.93,2.93,0,0,1-.07-.67v-.73a1.4,1.4,0,0,0-.28-1,1.45,1.45,0,0,0-1-.25H16.39v3.08H14.78V29.69h3.88a3.76,3.76,0,0,1,1.28.2A2,2,0,0,1,20.7,30.44ZM19.1,33a.87.87,0,0,0,.5-.88,1,1,0,0,0-.47-1,1.93,1.93,0,0,0-.82-.15H16.39v2.13h1.88A1.94,1.94,0,0,0,19.1,33Z" fill="none" stroke="#bdbdbd" stroke-miterlimit="10" stroke-width="0.09"></path>
      <path d="M28.2,32.76v1.37H24.36v2h4.38v1.41h-6V29.69h5.8v1.4H24.36v1.67Z" fill="none" stroke="#bdbdbd" stroke-miterlimit="10" stroke-width="0.09"></path>
      <path d="M36.47,36.39l.91.84-.87.9-1-.9a3,3,0,0,1-.75.37,3.71,3.71,0,0,1-1.27.18A3.65,3.65,0,0,1,31,36.86a4.09,4.09,0,0,1-1.23-3.25A4.12,4.12,0,0,1,31,30.35a3.74,3.74,0,0,1,2.56-.9,3.64,3.64,0,0,1,2.57,1,3.94,3.94,0,0,1,1.21,3.08,5.33,5.33,0,0,1-.26,1.77A3.07,3.07,0,0,1,36.47,36.39Zm-2-.21-.8-.75.84-.89.81.76a3.1,3.1,0,0,0,.26-.68,3.78,3.78,0,0,0,.12-1,3.37,3.37,0,0,0-.54-2,1.89,1.89,0,0,0-1.59-.72,2,2,0,0,0-1.58.68,3.18,3.18,0,0,0-.58,2.08,2.81,2.81,0,0,0,.84,2.32,1.92,1.92,0,0,0,1.3.46,1.75,1.75,0,0,0,.55-.08A1.85,1.85,0,0,0,34.45,36.18Z" fill="none" stroke="#bdbdbd" stroke-miterlimit="10" stroke-width="0.09"></path>
      <path d="M40.49,35.71a1.28,1.28,0,0,0,1.31.67,1.26,1.26,0,0,0,1.3-.67,2.66,2.66,0,0,0,.2-1.18V29.69H45v4.84a4,4,0,0,1-.39,1.95,3,3,0,0,1-2.79,1.29A3,3,0,0,1,39,36.48a4,4,0,0,1-.39-1.95V29.69h1.68v4.84A2.66,2.66,0,0,0,40.49,35.71Z" fill="none" stroke="#bdbdbd" stroke-miterlimit="10" stroke-width="0.09"></path>
      <path d="M48.08,29.69v7.87H46.43V29.69Z" fill="none" stroke="#bdbdbd" stroke-miterlimit="10" stroke-width="0.09"></path>
      <path d="M55.59,30.44a2.32,2.32,0,0,1,.41.67,1.94,1.94,0,0,1,.15.82,2.43,2.43,0,0,1-.28,1.1,1.59,1.59,0,0,1-.94.77,1.44,1.44,0,0,1,.77.62,2.53,2.53,0,0,1,.23,1.24v.52a3.2,3.2,0,0,0,0,.74.66.66,0,0,0,.29.44v.2H54.46a2.72,2.72,0,0,1-.11-.43,2.93,2.93,0,0,1-.07-.67v-.73a1.4,1.4,0,0,0-.28-1,1.45,1.45,0,0,0-1-.25h-1.7v3.08H49.67V29.69h3.88a3.72,3.72,0,0,1,1.28.2A2,2,0,0,1,55.59,30.44ZM54,33a.87.87,0,0,0,.5-.88,1,1,0,0,0-.47-1,1.93,1.93,0,0,0-.82-.15H51.29v2.13h1.87A1.94,1.94,0,0,0,54,33Z" fill="none" stroke="#bdbdbd" stroke-miterlimit="10" stroke-width="0.09"></path>
      <path d="M63.09,32.76v1.37H59.25v2h4.38v1.41h-6V29.69h5.8v1.4H59.25v1.67Z" fill="none" stroke="#bdbdbd" stroke-miterlimit="10" stroke-width="0.09"></path>
      <path d="M66.42,35.94a1.72,1.72,0,0,0,1.38.48,2.81,2.81,0,0,0,1-.13.91.91,0,0,0,.69-.91.67.67,0,0,0-.34-.6A3.76,3.76,0,0,0,68,34.41l-.84-.18a5.45,5.45,0,0,1-1.7-.61,1.93,1.93,0,0,1-.81-1.7,2.3,2.3,0,0,1,.78-1.76,3.3,3.3,0,0,1,2.27-.7,3.51,3.51,0,0,1,2.14.65A2.36,2.36,0,0,1,70.78,32H69.2a1.14,1.14,0,0,0-.63-1,2.1,2.1,0,0,0-1-.2,1.71,1.71,0,0,0-1,.27.79.79,0,0,0-.39.71.68.68,0,0,0,.39.63,4.54,4.54,0,0,0,1,.33l1.37.32a3.56,3.56,0,0,1,1.35.58,1.88,1.88,0,0,1,.72,1.6,2.26,2.26,0,0,1-.83,1.79,3.49,3.49,0,0,1-2.35.72,3.85,3.85,0,0,1-2.44-.71,2.31,2.31,0,0,1-.88-1.93h1.58A1.6,1.6,0,0,0,66.42,35.94Z" fill="none" stroke="#bdbdbd" stroke-miterlimit="10" stroke-width="0.09"></path>


      <path d="M25,40.41v1.85H28.5v1.41H25v3.39H23.28V39H29v1.43Z" fill="#13cf2e"></path>
      <path d="M33.7,47.29a3.52,3.52,0,0,1-2.65-.95A4.37,4.37,0,0,1,29.82,43a4.3,4.3,0,0,1,1.23-3.34,3.51,3.51,0,0,1,2.65-.94,3.47,3.47,0,0,1,2.63.94A4.26,4.26,0,0,1,37.55,43a4.33,4.33,0,0,1-1.22,3.33A3.47,3.47,0,0,1,33.7,47.29ZM35.87,43a3.44,3.44,0,0,0-.58-2.11,2.09,2.09,0,0,0-3.19,0A3.23,3.23,0,0,0,31.5,43a3.23,3.23,0,0,0,.6,2.11,2.09,2.09,0,0,0,3.19,0A3.42,3.42,0,0,0,35.87,43Z" fill="#13cf2e"></path>
      <path d="M42.14,38.83a3.33,3.33,0,0,1,3,1.33,2.82,2.82,0,0,1,.56,1.51H44a2.25,2.25,0,0,0-.42-.88,1.71,1.71,0,0,0-1.37-.53,1.69,1.69,0,0,0-1.44.75,3.53,3.53,0,0,0-.53,2.1,3.1,3.1,0,0,0,.56,2,1.76,1.76,0,0,0,1.42.67,1.64,1.64,0,0,0,1.36-.58,2.61,2.61,0,0,0,.42-.93h1.67a3.66,3.66,0,0,1-1.12,2.14,3.22,3.22,0,0,1-2.3.84,3.46,3.46,0,0,1-2.74-1.13,4.47,4.47,0,0,1-1-3.08,4.51,4.51,0,0,1,1.14-3.27A3.38,3.38,0,0,1,42.14,38.83Z" fill="#13cf2e"></path>
      <path d="M48.85,45.16a1.3,1.3,0,0,0,1.33.69,1.28,1.28,0,0,0,1.32-.69A2.67,2.67,0,0,0,51.7,44V39h1.72v5A4.09,4.09,0,0,1,53,46a3,3,0,0,1-2.83,1.32A3,3,0,0,1,47.33,46a4.21,4.21,0,0,1-.4-2V39h1.72v5A2.67,2.67,0,0,0,48.85,45.16Z" fill="#13cf2e"></path>
      <path d="M56.55,45.4a1.74,1.74,0,0,0,1.4.49,2.91,2.91,0,0,0,1-.13,1,1,0,0,0,.71-.93.69.69,0,0,0-.35-.62,3.7,3.7,0,0,0-1.11-.38l-.85-.2A5.68,5.68,0,0,1,55.58,43a2,2,0,0,1-.82-1.76,2.32,2.32,0,0,1,.8-1.8,3.28,3.28,0,0,1,2.31-.72,3.48,3.48,0,0,1,2.17.67,2.39,2.39,0,0,1,.94,2H59.37a1.18,1.18,0,0,0-.64-1,2.18,2.18,0,0,0-1-.2,1.82,1.82,0,0,0-1,.27.85.85,0,0,0-.39.73.71.71,0,0,0,.39.65,5.47,5.47,0,0,0,1,.34l1.38.32a3.57,3.57,0,0,1,1.38.6,2,2,0,0,1,.73,1.65,2.32,2.32,0,0,1-.84,1.83,3.52,3.52,0,0,1-2.4.74,3.81,3.81,0,0,1-2.47-.73,2.34,2.34,0,0,1-.9-2h1.6A1.68,1.68,0,0,0,56.55,45.4Z" fill="#13cf2e"></path>
    </g>
  </g>
</svg>
