<svg xmlns="http://www.w3.org/2000/svg" viewBox="0 0 110.02 47.29">
  <title>hero_title_desktop</title>
  <g id="dac43a2d-98a7-49f8-9d90-3e2e82dbf233" data-name="Слой 2">
    <g id="b668246e-39d1-4d7d-a38b-878433cb4fe9" data-name="Слой 1">
      <path d="M1.94,7.07a1.74,1.74,0,0,0,1.43.52,3,3,0,0,0,1-.14,1,1,0,0,0,.72-1,.74.74,0,0,0-.36-.66,3.75,3.75,0,0,0-1.13-.4l-.86-.2A5.51,5.51,0,0,1,1,4.54,2.14,2.14,0,0,1,.13,2.68,2.53,2.53,0,0,1,.94.76,3.29,3.29,0,0,1,3.29,0,3.5,3.5,0,0,1,5.5.71a2.6,2.6,0,0,1,1,2.1H4.82A1.28,1.28,0,0,0,4.17,1.7a2.17,2.17,0,0,0-1-.21,1.71,1.71,0,0,0-1.06.29.88.88,0,0,0-.4.77.75.75,0,0,0,.4.69,4.66,4.66,0,0,0,1.06.36l1.42.34A3.52,3.52,0,0,1,6,4.58a2.13,2.13,0,0,1,.74,1.75,2.5,2.5,0,0,1-.85,1.94,3.53,3.53,0,0,1-2.44.79A3.86,3.86,0,0,1,.91,8.28,2.55,2.55,0,0,1,0,6.19H1.63A1.89,1.89,0,0,0,1.94,7.07Z" fill="#13cf2e"></path>
      <path d="M10,6.87a1.3,1.3,0,0,0,1.35.71,1.3,1.3,0,0,0,1.35-.71,2.86,2.86,0,0,0,.21-1.26V.46h1.74V5.61a4.31,4.31,0,0,1-.41,2.07,3,3,0,0,1-2.89,1.38,3,3,0,0,1-2.9-1.38A4.31,4.31,0,0,1,8,5.61V.46H9.75V5.61A2.86,2.86,0,0,0,10,6.87Z" fill="#13cf2e"></path>
      <path d="M19.6.31a3.41,3.41,0,0,1,3,1.38,3.08,3.08,0,0,1,.57,1.56H21.49a2.48,2.48,0,0,0-.44-.91,1.73,1.73,0,0,0-1.39-.54,1.69,1.69,0,0,0-1.47.77,3.67,3.67,0,0,0-.54,2.17,3.27,3.27,0,0,0,.57,2.12,1.82,1.82,0,0,0,1.45.7A1.63,1.63,0,0,0,21.05,7a2.88,2.88,0,0,0,.44-1h1.7A3.88,3.88,0,0,1,22,8.21a3.28,3.28,0,0,1-2.35.86,3.47,3.47,0,0,1-2.78-1.16,4.72,4.72,0,0,1-1-3.19A4.72,4.72,0,0,1,17,1.33,3.45,3.45,0,0,1,19.6.31Z" fill="#13cf2e"></path>
      <path d="M27.84.31a3.4,3.4,0,0,1,3,1.38,3,3,0,0,1,.57,1.56H29.73a2.34,2.34,0,0,0-.44-.91,1.9,1.9,0,0,0-2.86.23,3.67,3.67,0,0,0-.54,2.17,3.33,3.33,0,0,0,.57,2.12,1.82,1.82,0,0,0,1.45.7A1.63,1.63,0,0,0,29.29,7a2.69,2.69,0,0,0,.44-1h1.7a3.93,3.93,0,0,1-1.14,2.22,3.31,3.31,0,0,1-2.35.86,3.49,3.49,0,0,1-2.79-1.16,4.71,4.71,0,0,1-1-3.19,4.67,4.67,0,0,1,1.15-3.39A3.43,3.43,0,0,1,27.84.31Z" fill="#13cf2e"></path>
      <path d="M38.45,3.73V5.18h-4V7.34H39v1.5H32.79V.46h6V2H34.47V3.73Z" fill="#13cf2e"></path>
      <path d="M46.07,3.73V5.18h-4V7.34h4.55v1.5H40.41V.46h6V2H42.08V3.73Z" fill="#13cf2e"></path>
      <path d="M54.17,1.7a3.74,3.74,0,0,1,.58,1.35,5.88,5.88,0,0,1,.17,1.4,5.57,5.57,0,0,1-.67,2.83A3,3,0,0,1,51.5,8.84H48V.46H51.5a4.12,4.12,0,0,1,1.28.19A2.68,2.68,0,0,1,54.17,1.7ZM52.91,6.16a4.49,4.49,0,0,0,.26-1.59,4,4,0,0,0-.39-2,1.66,1.66,0,0,0-1.56-.69H49.63V7.38h1.59A1.71,1.71,0,0,0,52.91,6.16Z" fill="#13cf2e"></path>
      <path d="M57.78.46V8.84H56.07V.46Z" fill="#13cf2e"></path>
      <path d="M64.43.46H66V8.84H64.31L61,2.89V8.84h-1.6V.46h1.79l3.28,5.85Z" fill="#13cf2e"></path>
      <path d="M72.2,1.88a2.24,2.24,0,0,0-1-.19,2.08,2.08,0,0,0-1.63.76A3.56,3.56,0,0,0,69,4.75a2.86,2.86,0,0,0,.7,2.19,2.21,2.21,0,0,0,1.57.64,2,2,0,0,0,1.42-.51,2.21,2.21,0,0,0,.67-1.33H71.45V4.35h3.41V8.84H73.73l-.17-1a4.41,4.41,0,0,1-.89.84A3.09,3.09,0,0,1,71,9.06a3.48,3.48,0,0,1-2.67-1.15,4.43,4.43,0,0,1-1.08-3.18,4.74,4.74,0,0,1,1.09-3.26A3.72,3.72,0,0,1,71.23.25a3.82,3.82,0,0,1,2.52.8,3,3,0,0,1,1.09,2H73.15A1.63,1.63,0,0,0,72.2,1.88Z" fill="#13cf2e"></path>
      <path d="M1.92,10.08v8.63H.24V10.08Z" fill="#13cf2e"></path>
      <path d="M8.45,10.08H10v8.63H8.34L5,12.58v6.13H3.47V10.08H5.23l3.22,6Z" fill="#13cf2e"></path>
      <path d="M18.22,9.92a3.55,3.55,0,0,1,3.14,1.43A3,3,0,0,1,22,13H20.17a2.37,2.37,0,0,0-.45-.93,1.8,1.8,0,0,0-1.44-.56,1.77,1.77,0,0,0-1.53.79,3.79,3.79,0,0,0-.56,2.24,3.36,3.36,0,0,0,.59,2.18,1.87,1.87,0,0,0,1.51.72,1.7,1.7,0,0,0,1.43-.62,2.84,2.84,0,0,0,.45-1h1.77a4,4,0,0,1-1.19,2.29,3.43,3.43,0,0,1-2.44.89,3.6,3.6,0,0,1-2.89-1.2,4.79,4.79,0,0,1-1.06-3.28A4.83,4.83,0,0,1,15.56,11,3.56,3.56,0,0,1,18.22,9.92Z" fill="#13cf2e"></path>
      <path d="M28.89,10.9a2.55,2.55,0,0,1,.41.74,2.11,2.11,0,0,1,.16.89,2.8,2.8,0,0,1-.29,1.22,1.68,1.68,0,0,1-1,.84,1.47,1.47,0,0,1,.78.68,2.93,2.93,0,0,1,.24,1.35v.58a4.7,4.7,0,0,0,0,.8.82.82,0,0,0,.3.5v.21H27.73c-.05-.19-.08-.35-.11-.47a4.52,4.52,0,0,1-.06-.74l0-.79a1.71,1.71,0,0,0-.28-1.11,1.5,1.5,0,0,0-1-.27H24.5v3.38H22.86V10.08h4a3.59,3.59,0,0,1,1.3.22A2.15,2.15,0,0,1,28.89,10.9Zm-1.63,2.86a1,1,0,0,0,.51-1,1.12,1.12,0,0,0-.48-1.06,2,2,0,0,0-.83-.15h-2V13.9h1.91A2,2,0,0,0,27.26,13.76Z" fill="#13cf2e"></path>
      <path d="M32.46,10.08v8.63H30.78V10.08Z" fill="#13cf2e"></path>
      <path d="M37.48,18.71h-1.7v-7.1H33.36V10.08H39.9v1.53H37.48Z" fill="#13cf2e"></path>
      <path d="M42.43,10.08v8.63H40.75V10.08Z" fill="#13cf2e"></path>
      <path d="M47.65,9.92a3.75,3.75,0,0,1,3.27,1.43,3,3,0,0,1,.61,1.6H49.69a2.5,2.5,0,0,0-.47-.93,1.92,1.92,0,0,0-1.5-.56,1.87,1.87,0,0,0-1.59.79,3.71,3.71,0,0,0-.58,2.24,3.24,3.24,0,0,0,.62,2.18,2,2,0,0,0,1.56.72,1.82,1.82,0,0,0,1.49-.62,3,3,0,0,0,.47-1h1.83a3.91,3.91,0,0,1-1.23,2.29,3.66,3.66,0,0,1-2.54.89,3.81,3.81,0,0,1-3-1.2,4.66,4.66,0,0,1-1.09-3.28A4.68,4.68,0,0,1,44.9,11,3.75,3.75,0,0,1,47.65,9.92Z" fill="#13cf2e"></path>
      <path d="M57.35,18.71l-.51-1.77h-3l-.55,1.77H51.53l2.88-8.63h1.91l2.86,8.63Zm-3-3.26h2.06l-1-3.39Z" fill="#13cf2e"></path>
      <path d="M65.89,17.16v1.55H60.2V10.08h1.7v7.08Z" fill="#13cf2e"></path>
      <path d="M41.53,28.36H39.77V21.73h-2.5V20.29H44v1.44H41.53Z" fill="none" stroke="#bdbdbd" stroke-miterlimit="10" stroke-width="0.09"></path>
      <path d="M48.7,28.36l-.53-1.66H45.09l-.57,1.66H42.7l3-8.07h2l3,8.07Zm-3.13-3.05h2.11l-1-3.17Z" fill="none" stroke="#bdbdbd" stroke-miterlimit="10" stroke-width="0.09"></path>
      <path d="M53.21,26.7a1.83,1.83,0,0,0,1.45.5,3,3,0,0,0,1-.14.94.94,0,0,0,.73-.93.68.68,0,0,0-.35-.62,4.62,4.62,0,0,0-1.15-.38L54,24.94a5.79,5.79,0,0,1-1.79-.61,2,2,0,0,1-.85-1.75,2.32,2.32,0,0,1,.82-1.81,3.53,3.53,0,0,1,2.39-.71,3.67,3.67,0,0,1,2.24.67,2.35,2.35,0,0,1,1,2H56.13a1.19,1.19,0,0,0-.66-1,2.22,2.22,0,0,0-1-.2,1.86,1.86,0,0,0-1.07.27.8.8,0,0,0-.41.72.69.69,0,0,0,.41.65,4.92,4.92,0,0,0,1.07.34l1.44.33a3.65,3.65,0,0,1,1.42.59A1.93,1.93,0,0,1,58.07,26a2.27,2.27,0,0,1-.87,1.82,3.7,3.7,0,0,1-2.47.74,4.12,4.12,0,0,1-2.56-.72,2.35,2.35,0,0,1-.93-2H52.9A1.68,1.68,0,0,0,53.21,26.7Z" fill="none" stroke="#bdbdbd" stroke-miterlimit="10" stroke-width="0.09"></path>
      <path d="M64.31,20.29h2.25l-3.41,3.33,3.59,4.74H64.5l-2.58-3.52-.82.82v2.7H59.39V20.29H61.1v3.33Z" fill="none" stroke="#bdbdbd" stroke-miterlimit="10" stroke-width="0.09"></path>
      <path d="M69.28,26.7a1.81,1.81,0,0,0,1.45.5,3,3,0,0,0,1-.14.94.94,0,0,0,.73-.93.67.67,0,0,0-.36-.62A4.38,4.38,0,0,0,71,25.13l-.88-.19a6,6,0,0,1-1.8-.61,2,2,0,0,1-.84-1.75,2.32,2.32,0,0,1,.82-1.81,3.51,3.51,0,0,1,2.38-.71,3.7,3.7,0,0,1,2.25.67,2.38,2.38,0,0,1,1,2H72.19a1.16,1.16,0,0,0-.65-1,2.22,2.22,0,0,0-1-.2,1.92,1.92,0,0,0-1.08.27.81.81,0,0,0-.4.72.69.69,0,0,0,.4.65,4.88,4.88,0,0,0,1.08.34l1.43.33a3.7,3.7,0,0,1,1.43.59A2,2,0,0,1,74.14,26a2.27,2.27,0,0,1-.87,1.82,3.71,3.71,0,0,1-2.48.74,4.09,4.09,0,0,1-2.55-.72,2.33,2.33,0,0,1-.93-2H69A1.59,1.59,0,0,0,69.28,26.7Z" fill="none" stroke="#bdbdbd" stroke-miterlimit="10" stroke-width="0.09"></path>
      <path d="M59.63,30.5a2.57,2.57,0,0,1,.41.67,1.94,1.94,0,0,1,.15.82,2.32,2.32,0,0,1-.29,1.1,1.54,1.54,0,0,1-.93.77,1.48,1.48,0,0,1,.77.62A2.65,2.65,0,0,1,60,35.72v.52A4.17,4.17,0,0,0,60,37a.71.71,0,0,0,.3.44v.2H58.49c-.05-.17-.08-.32-.11-.43a3.63,3.63,0,0,1-.06-.67v-.73a1.4,1.4,0,0,0-.28-1,1.47,1.47,0,0,0-1-.25H55.32v3.08H53.7V29.75h3.89a3.76,3.76,0,0,1,1.28.2A2,2,0,0,1,59.63,30.5ZM58,33.1a.87.87,0,0,0,.5-.88,1,1,0,0,0-.48-1,1.85,1.85,0,0,0-.81-.15H55.32v2.13h1.87A2,2,0,0,0,58,33.1Z" fill="none" stroke="#bdbdbd" stroke-miterlimit="10" stroke-width="0.09"></path>
      <path d="M67.13,32.82v1.37H63.29v2h4.38v1.41h-6V29.75h5.8v1.4H63.29v1.67Z" fill="none" stroke="#bdbdbd" stroke-miterlimit="10" stroke-width="0.09"></path>
      <path d="M75.39,36.45l.92.84-.87.9-1-.9a3.2,3.2,0,0,1-.75.37,3.73,3.73,0,0,1-1.28.18,3.65,3.65,0,0,1-2.55-.92,4.09,4.09,0,0,1-1.24-3.25,4.09,4.09,0,0,1,1.27-3.26,3.72,3.72,0,0,1,2.56-.9,3.64,3.64,0,0,1,2.57,1,3.93,3.93,0,0,1,1.2,3.08A5.35,5.35,0,0,1,76,35.32,3,3,0,0,1,75.39,36.45Zm-2-.21-.81-.75.85-.89.81.76a3.1,3.1,0,0,0,.26-.68,3.78,3.78,0,0,0,.12-1,3.44,3.44,0,0,0-.54-2,1.89,1.89,0,0,0-1.6-.72,2,2,0,0,0-1.57.68,3.13,3.13,0,0,0-.58,2.08A2.84,2.84,0,0,0,71.15,36a2,2,0,0,0,1.3.46,1.67,1.67,0,0,0,.55-.08A1.9,1.9,0,0,0,73.38,36.24Z" fill="none" stroke="#bdbdbd" stroke-miterlimit="10" stroke-width="0.09"></path>
      <path d="M79.42,35.77a1.28,1.28,0,0,0,1.31.67,1.26,1.26,0,0,0,1.3-.67,2.69,2.69,0,0,0,.19-1.18V29.75h1.69v4.84a3.91,3.91,0,0,1-.4,1.95,3.66,3.66,0,0,1-5.58,0,4,4,0,0,1-.4-1.95V29.75h1.69v4.84A2.53,2.53,0,0,0,79.42,35.77Z" fill="none" stroke="#bdbdbd" stroke-miterlimit="10" stroke-width="0.09"></path>
      <path d="M87,29.75v7.87H85.36V29.75Z" fill="none" stroke="#bdbdbd" stroke-miterlimit="10" stroke-width="0.09"></path>
      <path d="M94.52,30.5a2.57,2.57,0,0,1,.41.67,1.94,1.94,0,0,1,.15.82,2.32,2.32,0,0,1-.29,1.1,1.54,1.54,0,0,1-.93.77,1.48,1.48,0,0,1,.77.62,2.65,2.65,0,0,1,.23,1.24v.52a4.17,4.17,0,0,0,0,.74.71.71,0,0,0,.3.44v.2H93.38a4.11,4.11,0,0,1-.1-.43,2.93,2.93,0,0,1-.07-.67v-.73a1.4,1.4,0,0,0-.28-1,1.47,1.47,0,0,0-1-.25H90.21v3.08H88.59V29.75h3.89a3.76,3.76,0,0,1,1.28.2A2,2,0,0,1,94.52,30.5Zm-1.6,2.6a.87.87,0,0,0,.5-.88,1,1,0,0,0-.48-1,1.85,1.85,0,0,0-.81-.15H90.21v2.13h1.88A2,2,0,0,0,92.92,33.1Z" fill="none" stroke="#bdbdbd" stroke-miterlimit="10" stroke-width="0.09"></path>
      <path d="M102,32.82v1.37H98.18v2h4.38v1.41h-6V29.75h5.8v1.4H98.18v1.67Z" fill="none" stroke="#bdbdbd" stroke-miterlimit="10" stroke-width="0.09"></path>
      <path d="M105.35,36a1.72,1.72,0,0,0,1.38.48,2.89,2.89,0,0,0,1-.13.91.91,0,0,0,.69-.91.67.67,0,0,0-.34-.6,3.87,3.87,0,0,0-1.09-.37l-.84-.18a5.54,5.54,0,0,1-1.71-.61,2,2,0,0,1-.8-1.7,2.26,2.26,0,0,1,.78-1.76,3.3,3.3,0,0,1,2.27-.7,3.53,3.53,0,0,1,2.14.65,2.36,2.36,0,0,1,.92,1.93h-1.58a1.18,1.18,0,0,0-.63-1,2.16,2.16,0,0,0-1-.2,1.71,1.71,0,0,0-1,.27.79.79,0,0,0-.39.71.68.68,0,0,0,.39.63,4.54,4.54,0,0,0,1,.33l1.37.32a3.56,3.56,0,0,1,1.35.58,1.91,1.91,0,0,1,.72,1.6,2.26,2.26,0,0,1-.83,1.79,3.5,3.5,0,0,1-2.36.72,3.82,3.82,0,0,1-2.43-.71,2.29,2.29,0,0,1-.88-1.93h1.57A1.7,1.7,0,0,0,105.35,36Z" fill="none" stroke="#bdbdbd" stroke-miterlimit="10" stroke-width="0.09"></path>


      <path d="M47.35,40.41v1.85h3.54v1.41H47.35v3.39H45.67V39h5.71v1.43Z" fill="#13cf2e"></path>
      <path d="M56.09,47.29a3.52,3.52,0,0,1-2.65-.95A4.37,4.37,0,0,1,52.21,43a4.3,4.3,0,0,1,1.23-3.34,4.18,4.18,0,0,1,5.28,0A4.26,4.26,0,0,1,59.94,43a4.33,4.33,0,0,1-1.22,3.33A3.49,3.49,0,0,1,56.09,47.29ZM58.26,43a3.44,3.44,0,0,0-.58-2.11,2.1,2.1,0,0,0-3.2,0A3.29,3.29,0,0,0,53.89,43a3.29,3.29,0,0,0,.59,2.11,2.1,2.1,0,0,0,3.2,0A3.42,3.42,0,0,0,58.26,43Z" fill="#13cf2e"></path>
      <path d="M64.52,38.83a3.34,3.34,0,0,1,3,1.33,2.82,2.82,0,0,1,.56,1.51H66.37a2.4,2.4,0,0,0-.42-.88,1.74,1.74,0,0,0-1.37-.53,1.69,1.69,0,0,0-1.45.75,3.6,3.6,0,0,0-.52,2.1,3.1,3.1,0,0,0,.56,2,1.76,1.76,0,0,0,1.42.67A1.65,1.65,0,0,0,66,45.24a2.8,2.8,0,0,0,.42-.93H68a3.77,3.77,0,0,1-1.12,2.14,3.22,3.22,0,0,1-2.31.84,3.45,3.45,0,0,1-2.73-1.13,4.47,4.47,0,0,1-1-3.08A4.51,4.51,0,0,1,62,39.81,3.4,3.4,0,0,1,64.52,38.83Z" fill="#13cf2e"></path>
      <path d="M71.24,45.16a1.3,1.3,0,0,0,1.33.69,1.28,1.28,0,0,0,1.32-.69,2.82,2.82,0,0,0,.2-1.21V39h1.72v5a4.09,4.09,0,0,1-.41,2,3,3,0,0,1-2.83,1.32A3,3,0,0,1,69.72,46a4.1,4.1,0,0,1-.4-2V39H71v5A2.65,2.65,0,0,0,71.24,45.16Z" fill="#13cf2e"></path>
      <path d="M78.93,45.4a1.76,1.76,0,0,0,1.4.49,2.94,2.94,0,0,0,1-.13.94.94,0,0,0,.7-.93.68.68,0,0,0-.34-.62,3.7,3.7,0,0,0-1.11-.38l-.85-.2A5.68,5.68,0,0,1,78,43a2,2,0,0,1-.82-1.76,2.32,2.32,0,0,1,.8-1.8,3.28,3.28,0,0,1,2.31-.72,3.5,3.5,0,0,1,2.17.67,2.42,2.42,0,0,1,.94,2H81.76a1.2,1.2,0,0,0-.64-1,2.22,2.22,0,0,0-1-.2,1.8,1.8,0,0,0-1,.27.83.83,0,0,0-.39.73.69.69,0,0,0,.39.65,5.56,5.56,0,0,0,1,.34l1.39.32a3.57,3.57,0,0,1,1.38.6,2,2,0,0,1,.73,1.65,2.32,2.32,0,0,1-.84,1.83,3.52,3.52,0,0,1-2.4.74,3.81,3.81,0,0,1-2.47-.73,2.34,2.34,0,0,1-.9-2h1.6A1.78,1.78,0,0,0,78.93,45.4Z" fill="#13cf2e"></path>
    </g>
  </g>
</svg>
